<svg xmlns="http://www.w3.org/2000/svg" width="1040" height="932" viewBox="0 0 1040 932" role="img">
<style>
.title{font:700 19px -apple-system,BlinkMacSystemFont,"Segoe UI",sans-serif;fill:#1f2933}
.label{font:600 14px -apple-system,BlinkMacSystemFont,"Segoe UI",sans-serif;fill:#24323d}
.num{font:600 13px -apple-system,BlinkMacSystemFont,"Segoe UI",sans-serif;fill:#24323d}
.axis,.legend,.note{font:12px -apple-system,BlinkMacSystemFont,"Segoe UI",sans-serif;fill:#52616b}
.inside{font:700 13px -apple-system,BlinkMacSystemFont,"Segoe UI",sans-serif;fill:white}
.big{font:700 34px -apple-system,BlinkMacSystemFont,"Segoe UI",sans-serif;fill:#1f2933}
</style>
<rect width="100%" height="100%" fill="white"/>
<text x="310" y="30" class="title">図8. 医師が外来導入受容性を過小評価しやすい患者・医師要因</text>
<line x1="310.0" y1="48" x2="310.0" y2="878" stroke="#e5eaf0" stroke-width="1"/>
<text x="310.0" y="910" text-anchor="middle" class="axis">0.25</text>
<line x1="435.0" y1="48" x2="435.0" y2="878" stroke="#e5eaf0" stroke-width="1"/>
<text x="435.0" y="910" text-anchor="middle" class="axis">0.5</text>
<line x1="560.0" y1="48" x2="560.0" y2="878" stroke="#1f2933" stroke-width="1.4"/>
<text x="560.0" y="910" text-anchor="middle" class="axis">1</text>
<line x1="685.0" y1="48" x2="685.0" y2="878" stroke="#e5eaf0" stroke-width="1"/>
<text x="685.0" y="910" text-anchor="middle" class="axis">2</text>
<line x1="810.0" y1="48" x2="810.0" y2="878" stroke="#e5eaf0" stroke-width="1"/>
<text x="810.0" y="910" text-anchor="middle" class="axis">4</text>
<text x="298" y="64" text-anchor="end" class="label">A. 患者要因</text>
<line x1="310" y1="70" x2="810" y2="70" stroke="#d8dee4"/>
<text x="298" y="106" text-anchor="end" class="label">現在の状態で回答</text>
<line x1="429.2" y1="100" x2="650.4" y2="100" stroke="#2f7d8c" stroke-width="2"/>
<circle cx="539.8" cy="100" r="5.5" fill="#2f7d8c"/>
<text x="828" y="105" class="num">0.89 (0.48-1.65)</text>
<text x="932" y="105" class="axis">26/67</text>
<text x="298" y="148" text-anchor="end" class="label">臨床家評価mGAF-F 40以下</text>
<line x1="429.2" y1="142" x2="650.4" y2="142" stroke="#2f7d8c" stroke-width="2"/>
<circle cx="539.8" cy="142" r="5.5" fill="#2f7d8c"/>
<text x="828" y="147" class="num">0.89 (0.48-1.65)</text>
<text x="932" y="147" class="axis">26/67</text>
<text x="298" y="190" text-anchor="end" class="label">現在治療で困りごとあり</text>
<line x1="446.1" y1="184" x2="661.2" y2="184" stroke="#2f7d8c" stroke-width="2"/>
<circle cx="553.7" cy="184" r="5.5" fill="#2f7d8c"/>
<text x="828" y="189" class="num">0.97 (0.53-1.75)</text>
<text x="932" y="189" class="axis">41/102</text>
<text x="298" y="232" text-anchor="end" class="label">主観的困りごと/つらさあり</text>
<line x1="536.1" y1="226" x2="752.2" y2="226" stroke="#2f7d8c" stroke-width="2"/>
<circle cx="644.2" cy="226" r="5.5" fill="#2f7d8c"/>
<text x="828" y="231" class="num">1.59 (0.88-2.90)</text>
<text x="932" y="231" class="axis">44/96</text>
<text x="298" y="274" text-anchor="end" class="label">入院導入は前向きに考えにくい</text>
<line x1="414.2" y1="268" x2="628.3" y2="268" stroke="#2f7d8c" stroke-width="2"/>
<circle cx="521.2" cy="268" r="5.5" fill="#2f7d8c"/>
<text x="828" y="273" class="num">0.81 (0.45-1.46)</text>
<text x="932" y="273" class="axis">37/97</text>
<text x="298" y="316" text-anchor="end" class="label">外来週1回通院なら受容</text>
<line x1="716.8" y1="310" x2="810.0" y2="310" stroke="#2f7d8c" stroke-width="2"/>
<circle cx="810.0" cy="310" r="5.5" fill="#2f7d8c"/>
<text x="828" y="315" class="num">4.63 (2.39-8.98)</text>
<text x="932" y="315" class="axis">38/58</text>
<text x="298" y="358" text-anchor="end" class="label">週5回確認まで受容</text>
<line x1="569.9" y1="352" x2="810.0" y2="352" stroke="#2f7d8c" stroke-width="2"/>
<circle cx="694.8" cy="352" r="5.5" fill="#2f7d8c"/>
<text x="828" y="357" class="num">2.11 (1.06-4.22)</text>
<text x="932" y="357" class="axis">23/42</text>
<text x="298" y="400" text-anchor="end" class="label">副作用懸念が強い（最大4以上）</text>
<line x1="370.0" y1="394" x2="772.4" y2="394" stroke="#2f7d8c" stroke-width="2"/>
<circle cx="571.2" cy="394" r="5.5" fill="#2f7d8c"/>
<text x="828" y="399" class="num">1.06 (0.35-3.25)</text>
<text x="932" y="399" class="axis">68/167</text>
<text x="298" y="442" text-anchor="end" class="label">有効性は十分（4以上）</text>
<line x1="533.6" y1="436" x2="748.3" y2="436" stroke="#2f7d8c" stroke-width="2"/>
<circle cx="640.9" cy="436" r="5.5" fill="#2f7d8c"/>
<text x="828" y="441" class="num">1.57 (0.86-2.84)</text>
<text x="932" y="441" class="axis">41/89</text>
<text x="298" y="484" text-anchor="end" class="label">過去拒否記載あり</text>
<line x1="550.8" y1="478" x2="810.0" y2="478" stroke="#2f7d8c" stroke-width="2"/>
<circle cx="711.3" cy="478" r="5.5" fill="#2f7d8c"/>
<text x="828" y="483" class="num">2.31 (0.95-5.63)</text>
<text x="932" y="483" class="axis">13/22</text>
<text x="298" y="526" text-anchor="end" class="label">B. 医師要因</text>
<line x1="310" y1="532" x2="810" y2="532" stroke="#d8dee4"/>
<text x="298" y="568" text-anchor="end" class="label">精神科経験15年以上</text>
<line x1="451.0" y1="562" x2="670.3" y2="562" stroke="#2f7d8c" stroke-width="2"/>
<circle cx="560.7" cy="562" r="5.5" fill="#2f7d8c"/>
<text x="828" y="567" class="num">1.00 (0.55-1.84)</text>
<text x="932" y="567" class="axis">28/69</text>
<text x="298" y="610" text-anchor="end" class="label">精神科専門医</text>
<line x1="508.1" y1="604" x2="729.2" y2="604" stroke="#2f7d8c" stroke-width="2"/>
<circle cx="618.7" cy="604" r="5.5" fill="#2f7d8c"/>
<text x="828" y="609" class="num">1.38 (0.75-2.56)</text>
<text x="932" y="609" class="axis">48/110</text>
<text x="298" y="652" text-anchor="end" class="label">精神保健指定医</text>
<line x1="486.1" y1="646" x2="701.7" y2="646" stroke="#2f7d8c" stroke-width="2"/>
<circle cx="593.9" cy="646" r="5.5" fill="#2f7d8c"/>
<text x="828" y="651" class="num">1.21 (0.66-2.19)</text>
<text x="932" y="651" class="axis">43/101</text>
<text x="298" y="694" text-anchor="end" class="label">クロザピン導入3例以上</text>
<line x1="478.1" y1="688" x2="696.1" y2="688" stroke="#2f7d8c" stroke-width="2"/>
<circle cx="587.1" cy="688" r="5.5" fill="#2f7d8c"/>
<text x="828" y="693" class="num">1.16 (0.64-2.13)</text>
<text x="932" y="693" class="axis">45/107</text>
<text x="298" y="736" text-anchor="end" class="label">現在担当クロザピン患者3名以上</text>
<line x1="447.1" y1="730" x2="665.2" y2="730" stroke="#2f7d8c" stroke-width="2"/>
<circle cx="556.1" cy="730" r="5.5" fill="#2f7d8c"/>
<text x="828" y="735" class="num">0.98 (0.53-1.79)</text>
<text x="932" y="735" class="axis">44/109</text>
<text x="298" y="778" text-anchor="end" class="label">医師の外来導入推奨率が高い</text>
<line x1="401.9" y1="772" x2="616.7" y2="772" stroke="#2f7d8c" stroke-width="2"/>
<circle cx="509.3" cy="772" r="5.5" fill="#2f7d8c"/>
<text x="828" y="777" class="num">0.76 (0.42-1.37)</text>
<text x="932" y="777" class="axis">31/84</text>
<text x="298" y="820" text-anchor="end" class="label">stably unwell理由選択率が高い</text>
<line x1="426.6" y1="814" x2="646.0" y2="814" stroke="#2f7d8c" stroke-width="2"/>
<circle cx="536.3" cy="814" r="5.5" fill="#2f7d8c"/>
<text x="828" y="819" class="num">0.88 (0.48-1.61)</text>
<text x="932" y="819" class="axis">27/70</text>
<text x="298" y="862" text-anchor="end" class="label">患者拒否見込み理由選択率が高い</text>
<line x1="550.8" y1="856" x2="810.0" y2="856" stroke="#2f7d8c" stroke-width="2"/>
<circle cx="683.6" cy="856" r="5.5" fill="#2f7d8c"/>
<text x="828" y="861" class="num">1.98 (0.95-4.14)</text>
<text x="932" y="861" class="axis">19/35</text>
<text x="560.0" y="924" text-anchor="middle" class="axis">Odds ratio（対数軸）</text>
<text x="828" y="34" class="axis">OR (95% CI)</text>
<text x="932" y="34" class="axis">該当者中の過小評価</text>
</svg>