<svg xmlns="http://www.w3.org/2000/svg" width="900" height="380" viewBox="0 0 900 380" role="img">
<style>
.title{font:700 19px -apple-system,BlinkMacSystemFont,"Segoe UI",sans-serif;fill:#1f2933}
.label{font:600 14px -apple-system,BlinkMacSystemFont,"Segoe UI",sans-serif;fill:#24323d}
.num{font:600 13px -apple-system,BlinkMacSystemFont,"Segoe UI",sans-serif;fill:#24323d}
.axis,.legend,.note{font:12px -apple-system,BlinkMacSystemFont,"Segoe UI",sans-serif;fill:#52616b}
.inside{font:700 13px -apple-system,BlinkMacSystemFont,"Segoe UI",sans-serif;fill:white}
.big{font:700 34px -apple-system,BlinkMacSystemFont,"Segoe UI",sans-serif;fill:#1f2933}
</style>
<rect width="100%" height="100%" fill="white"/>
<text x="190" y="30" class="title">図2. 入院導入受容性別にみた外来通院頻度threshold</text>
<text x="178" y="96" text-anchor="end" class="label">入院導入を前向きに考える</text>
<rect x="190.0" y="68" width="108.9" height="36" fill="#0f766e"/>
<text x="244.5" y="91" text-anchor="middle" class="inside">15</text>
<rect x="298.9" y="68" width="130.7" height="36" fill="#2f7d8c"/>
<text x="364.3" y="91" text-anchor="middle" class="inside">18</text>
<rect x="429.6" y="68" width="188.8" height="36" fill="#8bbbc3"/>
<text x="524.0" y="91" text-anchor="middle" class="inside">26</text>
<rect x="618.4" y="68" width="239.6" height="36" fill="#d8dee4"/>
<text x="738.2" y="91" text-anchor="middle" class="inside">33</text>
<text x="866" y="91" class="num">n=92</text>
<text x="178" y="172" text-anchor="end" class="label">入院導入を前向きに考えにくい</text>
<rect x="190.0" y="144" width="106.3" height="36" fill="#0f766e"/>
<text x="243.1" y="167" text-anchor="middle" class="inside">14</text>
<rect x="296.3" y="144" width="159.4" height="36" fill="#2f7d8c"/>
<text x="376.0" y="167" text-anchor="middle" class="inside">21</text>
<rect x="455.7" y="144" width="129.0" height="36" fill="#8bbbc3"/>
<text x="520.2" y="167" text-anchor="middle" class="inside">17</text>
<rect x="584.7" y="144" width="273.3" height="36" fill="#d8dee4"/>
<text x="721.4" y="167" text-anchor="middle" class="inside">36</text>
<text x="866" y="167" class="num">n=88</text>
<rect x="190" y="322" width="14" height="14" fill="#0f766e"/>
<text x="210" y="334" class="legend">週3回通院なら受容</text>
<rect x="360" y="322" width="14" height="14" fill="#2f7d8c"/>
<text x="380" y="334" class="legend">週2回通院なら受容</text>
<rect x="530" y="322" width="14" height="14" fill="#8bbbc3"/>
<text x="550" y="334" class="legend">週1回通院なら受容</text>
<rect x="700" y="322" width="14" height="14" fill="#d8dee4"/>
<text x="720" y="334" class="legend">通院のみ条件は非受容/保留</text>
</svg>