<svg xmlns="http://www.w3.org/2000/svg" width="1040" height="764" viewBox="0 0 1040 764" role="img">
<style>
.title{font:700 19px -apple-system,BlinkMacSystemFont,"Segoe UI",sans-serif;fill:#1f2933}
.label{font:600 14px -apple-system,BlinkMacSystemFont,"Segoe UI",sans-serif;fill:#24323d}
.num{font:600 13px -apple-system,BlinkMacSystemFont,"Segoe UI",sans-serif;fill:#24323d}
.axis,.legend,.note{font:12px -apple-system,BlinkMacSystemFont,"Segoe UI",sans-serif;fill:#52616b}
.inside{font:700 13px -apple-system,BlinkMacSystemFont,"Segoe UI",sans-serif;fill:white}
.big{font:700 34px -apple-system,BlinkMacSystemFont,"Segoe UI",sans-serif;fill:#1f2933}
</style>
<rect width="100%" height="100%" fill="white"/>
<text x="310" y="30" class="title">図9. ベースライン情報でみる医師予測の過小評価要因</text>
<line x1="310.0" y1="48" x2="310.0" y2="710" stroke="#e5eaf0" stroke-width="1"/>
<text x="310.0" y="742" text-anchor="middle" class="axis">0.25</text>
<line x1="435.0" y1="48" x2="435.0" y2="710" stroke="#e5eaf0" stroke-width="1"/>
<text x="435.0" y="742" text-anchor="middle" class="axis">0.5</text>
<line x1="560.0" y1="48" x2="560.0" y2="710" stroke="#1f2933" stroke-width="1.4"/>
<text x="560.0" y="742" text-anchor="middle" class="axis">1</text>
<line x1="685.0" y1="48" x2="685.0" y2="710" stroke="#e5eaf0" stroke-width="1"/>
<text x="685.0" y="742" text-anchor="middle" class="axis">2</text>
<line x1="810.0" y1="48" x2="810.0" y2="710" stroke="#e5eaf0" stroke-width="1"/>
<text x="810.0" y="742" text-anchor="middle" class="axis">4</text>
<text x="298" y="64" text-anchor="end" class="label">A. 患者要因</text>
<line x1="310" y1="70" x2="810" y2="70" stroke="#d8dee4"/>
<text x="298" y="106" text-anchor="end" class="label">65歳以上</text>
<line x1="526.1" y1="100" x2="810.0" y2="100" stroke="#2f7d8c" stroke-width="2"/>
<circle cx="739.4" cy="100" r="5.5" fill="#2f7d8c"/>
<text x="828" y="105" class="num">2.70 (0.83-8.83)</text>
<text x="932" y="105" class="axis">8/12</text>
<text x="298" y="148" text-anchor="end" class="label">臨床家評価mGAF-F 40以下</text>
<line x1="452.7" y1="142" x2="669.7" y2="142" stroke="#2f7d8c" stroke-width="2"/>
<circle cx="561.2" cy="142" r="5.5" fill="#2f7d8c"/>
<text x="828" y="147" class="num">1.01 (0.55-1.84)</text>
<text x="932" y="147" class="axis">30/70</text>
<text x="298" y="190" text-anchor="end" class="label">過去拒否記載あり</text>
<line x1="466.2" y1="184" x2="749.5" y2="184" stroke="#2f7d8c" stroke-width="2"/>
<circle cx="607.8" cy="184" r="5.5" fill="#2f7d8c"/>
<text x="828" y="189" class="num">1.30 (0.59-2.86)</text>
<text x="932" y="189" class="axis">14/29</text>
<text x="298" y="232" text-anchor="end" class="label">日中活動あり</text>
<line x1="397.0" y1="226" x2="609.5" y2="226" stroke="#2f7d8c" stroke-width="2"/>
<circle cx="503.2" cy="226" r="5.5" fill="#2f7d8c"/>
<text x="828" y="231" class="num">0.73 (0.40-1.32)</text>
<text x="932" y="231" class="axis">35/90</text>
<text x="298" y="274" text-anchor="end" class="label">同居家族から支援あり</text>
<line x1="471.4" y1="268" x2="747.5" y2="268" stroke="#2f7d8c" stroke-width="2"/>
<circle cx="609.4" cy="268" r="5.5" fill="#2f7d8c"/>
<text x="828" y="273" class="num">1.32 (0.61-2.83)</text>
<text x="932" y="273" class="axis">15/31</text>
<text x="298" y="316" text-anchor="end" class="label">ケア役割あり</text>
<line x1="538.9" y1="310" x2="769.0" y2="310" stroke="#2f7d8c" stroke-width="2"/>
<circle cx="654.0" cy="310" r="5.5" fill="#2f7d8c"/>
<text x="828" y="315" class="num">1.68 (0.89-3.19)</text>
<text x="932" y="315" class="axis">28/54</text>
<text x="298" y="358" text-anchor="end" class="label">通院片道60分以上</text>
<line x1="385.7" y1="352" x2="677.7" y2="352" stroke="#2f7d8c" stroke-width="2"/>
<circle cx="531.7" cy="352" r="5.5" fill="#2f7d8c"/>
<text x="828" y="357" class="num">0.85 (0.38-1.92)</text>
<text x="932" y="357" class="axis">11/28</text>
<text x="298" y="400" text-anchor="end" class="label">訪問看護を現在利用</text>
<line x1="492.3" y1="394" x2="729.8" y2="394" stroke="#2f7d8c" stroke-width="2"/>
<circle cx="611.1" cy="394" r="5.5" fill="#2f7d8c"/>
<text x="828" y="399" class="num">1.33 (0.69-2.56)</text>
<text x="932" y="399" class="axis">23/48</text>
<text x="298" y="442" text-anchor="end" class="label">経済的にかなり困る</text>
<line x1="310.0" y1="436" x2="584.4" y2="436" stroke="#2f7d8c" stroke-width="2"/>
<circle cx="435.8" cy="436" r="5.5" fill="#2f7d8c"/>
<text x="828" y="441" class="num">0.50 (0.22-1.14)</text>
<text x="932" y="441" class="axis">9/31</text>
<text x="298" y="484" text-anchor="end" class="label">B. 医師要因</text>
<line x1="310" y1="490" x2="810" y2="490" stroke="#d8dee4"/>
<text x="298" y="526" text-anchor="end" class="label">精神科経験15年以上</text>
<line x1="420.5" y1="520" x2="648.7" y2="520" stroke="#2f7d8c" stroke-width="2"/>
<circle cx="534.6" cy="520" r="5.5" fill="#2f7d8c"/>
<text x="828" y="525" class="num">0.87 (0.46-1.64)</text>
<text x="932" y="525" class="axis">23/57</text>
<text x="298" y="568" text-anchor="end" class="label">精神科専門医</text>
<line x1="463.1" y1="562" x2="678.4" y2="562" stroke="#2f7d8c" stroke-width="2"/>
<circle cx="570.7" cy="562" r="5.5" fill="#2f7d8c"/>
<text x="828" y="567" class="num">1.06 (0.58-1.93)</text>
<text x="932" y="567" class="axis">46/106</text>
<text x="298" y="610" text-anchor="end" class="label">精神保健指定医</text>
<line x1="447.9" y1="604" x2="669.6" y2="604" stroke="#2f7d8c" stroke-width="2"/>
<circle cx="558.7" cy="604" r="5.5" fill="#2f7d8c"/>
<text x="828" y="609" class="num">0.99 (0.54-1.84)</text>
<text x="932" y="609" class="axis">50/117</text>
<text x="298" y="652" text-anchor="end" class="label">クロザピン導入3例以上</text>
<line x1="325.0" y1="646" x2="570.2" y2="646" stroke="#2f7d8c" stroke-width="2"/>
<circle cx="447.6" cy="646" r="5.5" fill="#2f7d8c"/>
<text x="828" y="651" class="num">0.54 (0.27-1.06)</text>
<text x="932" y="651" class="axis">53/136</text>
<text x="298" y="694" text-anchor="end" class="label">現在担当クロザピン患者3名以上</text>
<line x1="373.4" y1="688" x2="586.5" y2="688" stroke="#2f7d8c" stroke-width="2"/>
<circle cx="479.9" cy="688" r="5.5" fill="#2f7d8c"/>
<text x="828" y="693" class="num">0.64 (0.36-1.16)</text>
<text x="932" y="693" class="axis">34/91</text>
<text x="560.0" y="756" text-anchor="middle" class="axis">Odds ratio（対数軸）</text>
<text x="828" y="34" class="axis">OR (95% CI)</text>
<text x="932" y="34" class="axis">該当者中の過小評価</text>
</svg>