<svg xmlns="http://www.w3.org/2000/svg" width="980" height="560" viewBox="0 0 980 560" role="img">
<style>
.title{font:700 19px -apple-system,BlinkMacSystemFont,"Segoe UI",sans-serif;fill:#1f2933}
.label{font:600 14px -apple-system,BlinkMacSystemFont,"Segoe UI",sans-serif;fill:#24323d}
.num{font:600 13px -apple-system,BlinkMacSystemFont,"Segoe UI",sans-serif;fill:#24323d}
.axis,.legend,.note{font:12px -apple-system,BlinkMacSystemFont,"Segoe UI",sans-serif;fill:#52616b}
.inside{font:700 13px -apple-system,BlinkMacSystemFont,"Segoe UI",sans-serif;fill:white}
.big{font:700 34px -apple-system,BlinkMacSystemFont,"Segoe UI",sans-serif;fill:#1f2933}
</style>
<rect width="100%" height="100%" fill="white"/>
<text x="250" y="30" class="title">図5. 通院OK者における訪問看護追加の影響</text>
<text x="238" y="86" text-anchor="end" class="label">週5回確認: 週3回通院+週2回訪問看護</text>
<rect x="250.0" y="67" width="159.2" height="26" fill="#2f7d8c"/>
<text x="329.6" y="85" text-anchor="middle" class="inside">6</text>
<rect x="409.2" y="67" width="291.9" height="26" fill="#b7d5da"/>
<text x="555.2" y="85" text-anchor="middle" class="inside">11</text>
<rect x="701.2" y="67" width="185.8" height="26" fill="#c47f4f"/>
<text x="794.0" y="85" text-anchor="middle" class="inside">7</text>
<rect x="886.9" y="67" width="53.1" height="26" fill="#d8dee4"/>
<text x="913.5" y="85" text-anchor="middle" class="inside">2</text>
<text x="948" y="86" class="num">n=26</text>
<text x="238" y="128" text-anchor="end" class="label">週5回確認: 週2回通院+週3回訪問看護</text>
<rect x="250.0" y="109" width="360.0" height="26" fill="#2f7d8c"/>
<text x="430.0" y="127" text-anchor="middle" class="inside">24</text>
<rect x="610.0" y="109" width="135.0" height="26" fill="#b7d5da"/>
<text x="677.5" y="127" text-anchor="middle" class="inside">9</text>
<rect x="745.0" y="109" width="90.0" height="26" fill="#c47f4f"/>
<text x="790.0" y="127" text-anchor="middle" class="inside">6</text>
<rect x="835.0" y="109" width="105.0" height="26" fill="#d8dee4"/>
<text x="887.5" y="127" text-anchor="middle" class="inside">7</text>
<text x="948" y="128" class="num">n=46</text>
<text x="238" y="170" text-anchor="end" class="label">週5回確認: 週1回通院+週4回訪問看護</text>
<rect x="250.0" y="151" width="201.2" height="26" fill="#2f7d8c"/>
<text x="350.6" y="169" text-anchor="middle" class="inside">14</text>
<rect x="451.2" y="151" width="316.2" height="26" fill="#b7d5da"/>
<text x="609.4" y="169" text-anchor="middle" class="inside">22</text>
<rect x="767.5" y="151" width="86.2" height="26" fill="#c47f4f"/>
<text x="810.6" y="169" text-anchor="middle" class="inside">6</text>
<rect x="853.8" y="151" width="86.2" height="26" fill="#d8dee4"/>
<text x="896.9" y="169" text-anchor="middle" class="inside">6</text>
<text x="948" y="170" class="num">n=48</text>
<text x="238" y="212" text-anchor="end" class="label">週3回確認: 週2回通院+週1回訪問看護</text>
<rect x="250.0" y="193" width="210.0" height="26" fill="#2f7d8c"/>
<text x="355.0" y="211" text-anchor="middle" class="inside">14</text>
<rect x="460.0" y="193" width="195.0" height="26" fill="#b7d5da"/>
<text x="557.5" y="211" text-anchor="middle" class="inside">13</text>
<rect x="655.0" y="193" width="195.0" height="26" fill="#c47f4f"/>
<text x="752.5" y="211" text-anchor="middle" class="inside">13</text>
<rect x="850.0" y="193" width="90.0" height="26" fill="#d8dee4"/>
<text x="895.0" y="211" text-anchor="middle" class="inside">6</text>
<text x="948" y="212" class="num">n=46</text>
<text x="238" y="254" text-anchor="end" class="label">週3回確認: 週1回通院+週2回訪問看護</text>
<rect x="250.0" y="235" width="301.9" height="26" fill="#2f7d8c"/>
<text x="400.9" y="253" text-anchor="middle" class="inside">21</text>
<rect x="551.9" y="235" width="215.6" height="26" fill="#b7d5da"/>
<text x="659.7" y="253" text-anchor="middle" class="inside">15</text>
<rect x="767.5" y="235" width="86.2" height="26" fill="#c47f4f"/>
<text x="810.6" y="253" text-anchor="middle" class="inside">6</text>
<rect x="853.8" y="235" width="86.2" height="26" fill="#d8dee4"/>
<text x="896.9" y="253" text-anchor="middle" class="inside">6</text>
<text x="948" y="254" class="num">n=48</text>
<text x="238" y="296" text-anchor="end" class="label">週2回確認: 週1回通院+週1回訪問看護</text>
<rect x="250.0" y="277" width="215.6" height="26" fill="#2f7d8c"/>
<text x="357.8" y="295" text-anchor="middle" class="inside">15</text>
<rect x="465.6" y="277" width="287.5" height="26" fill="#b7d5da"/>
<text x="609.4" y="295" text-anchor="middle" class="inside">20</text>
<rect x="753.1" y="277" width="115.0" height="26" fill="#c47f4f"/>
<text x="810.6" y="295" text-anchor="middle" class="inside">8</text>
<rect x="868.1" y="277" width="71.9" height="26" fill="#d8dee4"/>
<text x="904.1" y="295" text-anchor="middle" class="inside">5</text>
<text x="948" y="296" class="num">n=48</text>
<rect x="250" y="502" width="14" height="14" fill="#2f7d8c"/>
<text x="270" y="514" class="legend">より前向き</text>
<rect x="430" y="502" width="14" height="14" fill="#b7d5da"/>
<text x="450" y="514" class="legend">あまり変わらない</text>
<rect x="610" y="502" width="14" height="14" fill="#c47f4f"/>
<text x="630" y="514" class="legend">むしろ難しい</text>
<rect x="790" y="502" width="14" height="14" fill="#d8dee4"/>
<text x="810" y="514" class="legend">わからない</text>
</svg>