<svg xmlns="http://www.w3.org/2000/svg" width="980" height="560" viewBox="0 0 980 560" role="img">
<style>
.title{font:700 19px -apple-system,BlinkMacSystemFont,"Segoe UI",sans-serif;fill:#1f2933}
.label{font:600 14px -apple-system,BlinkMacSystemFont,"Segoe UI",sans-serif;fill:#24323d}
.num{font:600 13px -apple-system,BlinkMacSystemFont,"Segoe UI",sans-serif;fill:#24323d}
.axis,.legend,.note{font:12px -apple-system,BlinkMacSystemFont,"Segoe UI",sans-serif;fill:#52616b}
.inside{font:700 13px -apple-system,BlinkMacSystemFont,"Segoe UI",sans-serif;fill:white}
.big{font:700 34px -apple-system,BlinkMacSystemFont,"Segoe UI",sans-serif;fill:#1f2933}
</style>
<rect width="100%" height="100%" fill="white"/>
<text x="250" y="30" class="title">図5. 訪問看護を加えた場合の服用判断への方向性</text>
<text x="238" y="86" text-anchor="end" class="label">週5回確認: 週3回通院+週2回訪問看護</text>
<rect x="250.0" y="67" width="103.5" height="26" fill="#2f7d8c"/>
<text x="301.8" y="85" text-anchor="middle" class="inside">3</text>
<rect x="353.5" y="67" width="103.5" height="26" fill="#b7d5da"/>
<text x="405.2" y="85" text-anchor="middle" class="inside">3</text>
<rect x="457.0" y="67" width="345.0" height="26" fill="#c47f4f"/>
<text x="629.5" y="85" text-anchor="middle" class="inside">10</text>
<rect x="802.0" y="67" width="138.0" height="26" fill="#d8dee4"/>
<text x="871.0" y="85" text-anchor="middle" class="inside">4</text>
<text x="948" y="86" class="num">n=20</text>
<text x="238" y="128" text-anchor="end" class="label">週5回確認: 週2回通院+週3回訪問看護</text>
<rect x="250.0" y="109" width="271.5" height="26" fill="#2f7d8c"/>
<text x="385.7" y="127" text-anchor="middle" class="inside">24</text>
<rect x="521.5" y="109" width="158.4" height="26" fill="#b7d5da"/>
<text x="600.7" y="127" text-anchor="middle" class="inside">14</text>
<rect x="679.8" y="109" width="214.9" height="26" fill="#c47f4f"/>
<text x="787.3" y="127" text-anchor="middle" class="inside">19</text>
<rect x="894.8" y="109" width="45.2" height="26" fill="#d8dee4"/>
<text x="917.4" y="127" text-anchor="middle" class="inside">4</text>
<text x="948" y="128" class="num">n=61</text>
<text x="238" y="170" text-anchor="end" class="label">週5回確認: 週1回通院+週4回訪問看護</text>
<rect x="250.0" y="151" width="230.0" height="26" fill="#2f7d8c"/>
<text x="365.0" y="169" text-anchor="middle" class="inside">33</text>
<rect x="480.0" y="151" width="132.4" height="26" fill="#b7d5da"/>
<text x="546.2" y="169" text-anchor="middle" class="inside">19</text>
<rect x="612.4" y="151" width="195.2" height="26" fill="#c47f4f"/>
<text x="710.0" y="169" text-anchor="middle" class="inside">28</text>
<rect x="807.6" y="151" width="132.4" height="26" fill="#d8dee4"/>
<text x="873.8" y="169" text-anchor="middle" class="inside">19</text>
<text x="948" y="170" class="num">n=99</text>
<text x="238" y="212" text-anchor="end" class="label">週3回確認: 週3回通院</text>
<rect x="250.0" y="193" width="34.5" height="26" fill="#2f7d8c"/>
<rect x="284.5" y="193" width="345.0" height="26" fill="#b7d5da"/>
<text x="457.0" y="211" text-anchor="middle" class="inside">10</text>
<rect x="629.5" y="193" width="207.0" height="26" fill="#c47f4f"/>
<text x="733.0" y="211" text-anchor="middle" class="inside">6</text>
<rect x="836.5" y="193" width="103.5" height="26" fill="#d8dee4"/>
<text x="888.2" y="211" text-anchor="middle" class="inside">3</text>
<text x="948" y="212" class="num">n=20</text>
<text x="238" y="254" text-anchor="end" class="label">週3回確認: 週2回通院+週1回訪問看護</text>
<rect x="250.0" y="235" width="316.7" height="26" fill="#2f7d8c"/>
<text x="408.4" y="253" text-anchor="middle" class="inside">28</text>
<rect x="566.7" y="235" width="158.4" height="26" fill="#b7d5da"/>
<text x="645.9" y="253" text-anchor="middle" class="inside">14</text>
<rect x="725.1" y="235" width="147.0" height="26" fill="#c47f4f"/>
<text x="798.6" y="253" text-anchor="middle" class="inside">13</text>
<rect x="872.1" y="235" width="67.9" height="26" fill="#d8dee4"/>
<text x="906.1" y="253" text-anchor="middle" class="inside">6</text>
<text x="948" y="254" class="num">n=61</text>
<text x="238" y="296" text-anchor="end" class="label">週3回確認: 週1回通院+週2回訪問看護</text>
<rect x="250.0" y="277" width="243.9" height="26" fill="#2f7d8c"/>
<text x="372.0" y="295" text-anchor="middle" class="inside">35</text>
<rect x="493.9" y="277" width="216.1" height="26" fill="#b7d5da"/>
<text x="602.0" y="295" text-anchor="middle" class="inside">31</text>
<rect x="710.0" y="277" width="181.2" height="26" fill="#c47f4f"/>
<text x="800.6" y="295" text-anchor="middle" class="inside">26</text>
<rect x="891.2" y="277" width="48.8" height="26" fill="#d8dee4"/>
<text x="915.6" y="295" text-anchor="middle" class="inside">7</text>
<text x="948" y="296" class="num">n=99</text>
<text x="238" y="338" text-anchor="end" class="label">週2回確認: 週2回通院</text>
<rect x="250.0" y="319" width="124.4" height="26" fill="#2f7d8c"/>
<text x="312.2" y="337" text-anchor="middle" class="inside">11</text>
<rect x="374.4" y="319" width="350.7" height="26" fill="#b7d5da"/>
<text x="549.8" y="337" text-anchor="middle" class="inside">31</text>
<rect x="725.1" y="319" width="124.4" height="26" fill="#c47f4f"/>
<text x="787.3" y="337" text-anchor="middle" class="inside">11</text>
<rect x="849.5" y="319" width="90.5" height="26" fill="#d8dee4"/>
<text x="894.8" y="337" text-anchor="middle" class="inside">8</text>
<text x="948" y="338" class="num">n=61</text>
<text x="238" y="380" text-anchor="end" class="label">週2回確認: 週1回通院+週1回訪問看護</text>
<rect x="250.0" y="361" width="257.9" height="26" fill="#2f7d8c"/>
<text x="378.9" y="379" text-anchor="middle" class="inside">37</text>
<rect x="507.9" y="361" width="174.2" height="26" fill="#b7d5da"/>
<text x="595.0" y="379" text-anchor="middle" class="inside">25</text>
<rect x="682.1" y="361" width="181.2" height="26" fill="#c47f4f"/>
<text x="772.7" y="379" text-anchor="middle" class="inside">26</text>
<rect x="863.3" y="361" width="76.7" height="26" fill="#d8dee4"/>
<text x="901.7" y="379" text-anchor="middle" class="inside">11</text>
<text x="948" y="380" class="num">n=99</text>
<rect x="250" y="502" width="14" height="14" fill="#2f7d8c"/>
<text x="270" y="514" class="legend">より前向きになる</text>
<rect x="430" y="502" width="14" height="14" fill="#b7d5da"/>
<text x="450" y="514" class="legend">変わらない</text>
<rect x="610" y="502" width="14" height="14" fill="#c47f4f"/>
<text x="630" y="514" class="legend">むしろ後ろ向きになる</text>
<rect x="790" y="502" width="14" height="14" fill="#d8dee4"/>
<text x="810" y="514" class="legend">わからない</text>
</svg>