<svg xmlns="http://www.w3.org/2000/svg" width="940" height="426" viewBox="0 0 940 426" role="img">
<style>
.title{font:700 19px -apple-system,BlinkMacSystemFont,"Segoe UI",sans-serif;fill:#1f2933}
.label{font:600 14px -apple-system,BlinkMacSystemFont,"Segoe UI",sans-serif;fill:#24323d}
.num{font:600 13px -apple-system,BlinkMacSystemFont,"Segoe UI",sans-serif;fill:#24323d}
.axis,.legend,.note{font:12px -apple-system,BlinkMacSystemFont,"Segoe UI",sans-serif;fill:#52616b}
.inside{font:700 13px -apple-system,BlinkMacSystemFont,"Segoe UI",sans-serif;fill:white}
.big{font:700 34px -apple-system,BlinkMacSystemFont,"Segoe UI",sans-serif;fill:#1f2933}
</style>
<rect width="100%" height="100%" fill="white"/>
<text x="230" y="30" class="title">図4. 通院頻度threshold別にみた訪問看護確認頻度threshold</text>
<text x="218" y="93" text-anchor="end" class="label">週3回通院受容</text>
<rect x="230.0" y="66" width="329.0" height="38" fill="#245b67"/>
<text x="394.5" y="91" text-anchor="middle" class="inside">9</text>
<rect x="559.0" y="66" width="329.0" height="38" fill="#d8dee4"/>
<text x="723.5" y="91" text-anchor="middle" class="inside">9</text>
<text x="896" y="91" class="num">n=18</text>
<text x="218" y="161" text-anchor="end" class="label">週2回通院受容</text>
<rect x="230.0" y="134" width="198.9" height="38" fill="#245b67"/>
<text x="329.5" y="159" text-anchor="middle" class="inside">13</text>
<rect x="428.9" y="134" width="260.1" height="38" fill="#2f7d8c"/>
<text x="559.0" y="159" text-anchor="middle" class="inside">17</text>
<rect x="689.1" y="134" width="198.9" height="38" fill="#d8dee4"/>
<text x="788.5" y="159" text-anchor="middle" class="inside">13</text>
<text x="896" y="159" class="num">n=43</text>
<text x="218" y="229" text-anchor="end" class="label">週1回通院受容</text>
<rect x="230.0" y="202" width="241.7" height="38" fill="#245b67"/>
<text x="350.9" y="227" text-anchor="middle" class="inside">18</text>
<rect x="471.7" y="202" width="241.7" height="38" fill="#2f7d8c"/>
<text x="592.6" y="227" text-anchor="middle" class="inside">18</text>
<rect x="713.4" y="202" width="134.3" height="38" fill="#8bbbc3"/>
<text x="780.6" y="227" text-anchor="middle" class="inside">10</text>
<rect x="847.7" y="202" width="40.3" height="38" fill="#d8dee4"/>
<text x="896" y="227" class="num">n=49</text>
<rect x="230" y="368" width="14" height="14" fill="#245b67"/>
<text x="250" y="380" class="legend">週5回確認まで受容</text>
<rect x="440" y="368" width="14" height="14" fill="#2f7d8c"/>
<text x="460" y="380" class="legend">週3回確認まで受容</text>
<rect x="650" y="368" width="14" height="14" fill="#8bbbc3"/>
<text x="670" y="380" class="legend">週2回確認まで受容</text>
<rect x="230" y="392" width="14" height="14" fill="#d8dee4"/>
<text x="250" y="404" class="legend">訪問看護追加は非受容/保留</text>
</svg>