<svg xmlns="http://www.w3.org/2000/svg" width="980" height="532" viewBox="0 0 980 532" role="img">
<style>
.title{font:700 19px -apple-system,BlinkMacSystemFont,"Segoe UI",sans-serif;fill:#1f2933}
.label{font:600 14px -apple-system,BlinkMacSystemFont,"Segoe UI",sans-serif;fill:#24323d}
.num{font:600 13px -apple-system,BlinkMacSystemFont,"Segoe UI",sans-serif;fill:#24323d}
.axis,.legend,.note{font:12px -apple-system,BlinkMacSystemFont,"Segoe UI",sans-serif;fill:#52616b}
.inside{font:700 13px -apple-system,BlinkMacSystemFont,"Segoe UI",sans-serif;fill:white}
.big{font:700 34px -apple-system,BlinkMacSystemFont,"Segoe UI",sans-serif;fill:#1f2933}
</style>
<rect width="100%" height="100%" fill="white"/>
<text x="310" y="30" class="title">図8. 医師が外来導入受容性を過小評価しやすい患者特徴</text>
<line x1="310.0" y1="48" x2="310.0" y2="478" stroke="#e5eaf0" stroke-width="1"/>
<text x="310.0" y="510" text-anchor="middle" class="axis">0.25</text>
<line x1="420.0" y1="48" x2="420.0" y2="478" stroke="#e5eaf0" stroke-width="1"/>
<text x="420.0" y="510" text-anchor="middle" class="axis">0.5</text>
<line x1="530.0" y1="48" x2="530.0" y2="478" stroke="#1f2933" stroke-width="1.4"/>
<text x="530.0" y="510" text-anchor="middle" class="axis">1</text>
<line x1="640.0" y1="48" x2="640.0" y2="478" stroke="#e5eaf0" stroke-width="1"/>
<text x="640.0" y="510" text-anchor="middle" class="axis">2</text>
<line x1="750.0" y1="48" x2="750.0" y2="478" stroke="#e5eaf0" stroke-width="1"/>
<text x="750.0" y="510" text-anchor="middle" class="axis">4</text>
<text x="298" y="64" text-anchor="end" class="label">現在の状態で回答</text>
<line x1="433.2" y1="58" x2="629.1" y2="58" stroke="#2f7d8c" stroke-width="2"/>
<circle cx="531.1" cy="58" r="5.5" fill="#2f7d8c"/>
<text x="768" y="63" class="num">1.01 (0.54-1.87)</text>
<text x="872" y="63" class="axis">26/73</text>
<text x="298" y="108" text-anchor="end" class="label">臨床家評価mGAF-F 40以下</text>
<line x1="433.2" y1="102" x2="629.1" y2="102" stroke="#2f7d8c" stroke-width="2"/>
<circle cx="531.1" cy="102" r="5.5" fill="#2f7d8c"/>
<text x="768" y="107" class="num">1.01 (0.54-1.87)</text>
<text x="872" y="107" class="axis">26/73</text>
<text x="298" y="152" text-anchor="end" class="label">現在治療で困りごとあり</text>
<line x1="399.9" y1="146" x2="595.1" y2="146" stroke="#2f7d8c" stroke-width="2"/>
<circle cx="497.5" cy="146" r="5.5" fill="#2f7d8c"/>
<text x="768" y="151" class="num">0.81 (0.44-1.51)</text>
<text x="872" y="151" class="axis">36/107</text>
<text x="298" y="196" text-anchor="end" class="label">主観的困りごと/つらさあり</text>
<line x1="439.7" y1="190" x2="633.5" y2="190" stroke="#2f7d8c" stroke-width="2"/>
<circle cx="536.6" cy="190" r="5.5" fill="#2f7d8c"/>
<text x="768" y="195" class="num">1.04 (0.57-1.92)</text>
<text x="872" y="195" class="axis">36/100</text>
<text x="298" y="240" text-anchor="end" class="label">入院導入は前向きに考えにくい</text>
<line x1="384.1" y1="234" x2="577.4" y2="234" stroke="#2f7d8c" stroke-width="2"/>
<circle cx="480.8" cy="234" r="5.5" fill="#2f7d8c"/>
<text x="768" y="239" class="num">0.73 (0.40-1.35)</text>
<text x="872" y="239" class="axis">32/99</text>
<text x="298" y="284" text-anchor="end" class="label">外来週1回通院なら受容</text>
<line x1="536.7" y1="278" x2="750.0" y2="278" stroke="#2f7d8c" stroke-width="2"/>
<circle cx="650.9" cy="278" r="5.5" fill="#2f7d8c"/>
<text x="768" y="283" class="num">2.14 (1.04-4.40)</text>
<text x="872" y="283" class="axis">19/38</text>
<text x="298" y="328" text-anchor="end" class="label">週5回確認まで受容</text>
<line x1="561.0" y1="322" x2="750.0" y2="322" stroke="#2f7d8c" stroke-width="2"/>
<circle cx="673.6" cy="322" r="5.5" fill="#2f7d8c"/>
<text x="768" y="327" class="num">2.47 (1.22-5.02)</text>
<text x="872" y="327" class="axis">21/40</text>
<text x="298" y="372" text-anchor="end" class="label">副作用懸念が強い（最大4以上）</text>
<line x1="363.8" y1="366" x2="668.7" y2="366" stroke="#2f7d8c" stroke-width="2"/>
<circle cx="516.3" cy="366" r="5.5" fill="#2f7d8c"/>
<text x="768" y="371" class="num">0.92 (0.35-2.40)</text>
<text x="872" y="371" class="axis">57/161</text>
<text x="298" y="416" text-anchor="end" class="label">有効性は十分（4以上）</text>
<line x1="399.4" y1="410" x2="592.9" y2="410" stroke="#2f7d8c" stroke-width="2"/>
<circle cx="496.2" cy="410" r="5.5" fill="#2f7d8c"/>
<text x="768" y="415" class="num">0.81 (0.44-1.49)</text>
<text x="872" y="415" class="axis">28/85</text>
<text x="298" y="460" text-anchor="end" class="label">過去拒否記載あり</text>
<line x1="407.1" y1="454" x2="698.2" y2="454" stroke="#2f7d8c" stroke-width="2"/>
<circle cx="552.6" cy="454" r="5.5" fill="#2f7d8c"/>
<text x="768" y="459" class="num">1.15 (0.46-2.89)</text>
<text x="872" y="459" class="axis">8/21</text>
<text x="530.0" y="524" text-anchor="middle" class="axis">Odds ratio（対数軸）</text>
<text x="768" y="34" class="axis">OR (95% CI)</text>
<text x="872" y="34" class="axis">該当者中の過小評価</text>
</svg>