<svg xmlns="http://www.w3.org/2000/svg" width="820" height="440" viewBox="0 0 820 440" role="img">
<style>
.title{font:700 19px -apple-system,BlinkMacSystemFont,"Segoe UI",sans-serif;fill:#1f2933}
.label{font:600 14px -apple-system,BlinkMacSystemFont,"Segoe UI",sans-serif;fill:#24323d}
.num{font:600 13px -apple-system,BlinkMacSystemFont,"Segoe UI",sans-serif;fill:#24323d}
.axis,.legend,.note{font:12px -apple-system,BlinkMacSystemFont,"Segoe UI",sans-serif;fill:#52616b}
.inside{font:700 13px -apple-system,BlinkMacSystemFont,"Segoe UI",sans-serif;fill:white}
.big{font:700 34px -apple-system,BlinkMacSystemFont,"Segoe UI",sans-serif;fill:#1f2933}
</style>
<rect width="100%" height="100%" fill="white"/>
<text x="240" y="30" class="title">図4. 安全面不安による拒否者での訪問看護追加後の受容</text>
<text x="228" y="84.2" text-anchor="end" class="label">週5回確認: 週3回通院+週2回訪問看護</text>
<rect x="240" y="66.4" width="157.6" height="26.2" fill="#2f7d8c"/>
<text x="405.6" y="84.2" class="num">10</text>
<text x="228" y="131.1" text-anchor="end" class="label">週5回確認: 週2回通院+週3回訪問看護</text>
<rect x="240" y="113.3" width="15.8" height="26.2" fill="#2f7d8c"/>
<text x="263.8" y="131.1" class="num">1</text>
<text x="228" y="178.0" text-anchor="end" class="label">週5回確認: 週1回通院+週4回訪問看護</text>
<rect x="240" y="160.1" width="15.8" height="26.2" fill="#2f7d8c"/>
<text x="263.8" y="178.0" class="num">1</text>
<text x="228" y="224.8" text-anchor="end" class="label">週3回確認: 週2回通院+週1回訪問看護</text>
<rect x="240" y="207.0" width="173.4" height="26.2" fill="#2f7d8c"/>
<text x="421.4" y="224.8" class="num">11</text>
<text x="228" y="271.7" text-anchor="end" class="label">週3回確認: 週1回通院+週2回訪問看護</text>
<rect x="240" y="253.9" width="31.5" height="26.2" fill="#2f7d8c"/>
<text x="279.5" y="271.7" class="num">2</text>
<text x="228" y="318.5" text-anchor="end" class="label">週2回確認: 週1回通院+週1回訪問看護</text>
<rect x="240" y="300.7" width="63.1" height="26.2" fill="#2f7d8c"/>
<text x="311.1" y="318.5" class="num">4</text>
<text x="228" y="365.4" text-anchor="end" class="label">受容に転じず</text>
<rect x="240" y="347.6" width="536.0" height="26.2" fill="#2f7d8c"/>
<text x="784.0" y="365.4" class="num">34</text>
<line x1="240" y1="386" x2="776" y2="386" stroke="#1f2933"/>
<text x="508.0" y="424" text-anchor="middle" class="axis">人数</text>
</svg>