<svg xmlns="http://www.w3.org/2000/svg" width="1040" height="806" viewBox="0 0 1040 806" role="img">
<style>
.title{font:700 19px -apple-system,BlinkMacSystemFont,"Segoe UI",sans-serif;fill:#1f2933}
.label{font:600 14px -apple-system,BlinkMacSystemFont,"Segoe UI",sans-serif;fill:#24323d}
.num{font:600 13px -apple-system,BlinkMacSystemFont,"Segoe UI",sans-serif;fill:#24323d}
.axis,.legend,.note{font:12px -apple-system,BlinkMacSystemFont,"Segoe UI",sans-serif;fill:#52616b}
.inside{font:700 13px -apple-system,BlinkMacSystemFont,"Segoe UI",sans-serif;fill:white}
.big{font:700 34px -apple-system,BlinkMacSystemFont,"Segoe UI",sans-serif;fill:#1f2933}
</style>
<rect width="100%" height="100%" fill="white"/>
<text x="310" y="30" class="title">図9. ベースライン情報でみる外来導入受容性の過小評価要因</text>
<line x1="310.0" y1="48" x2="310.0" y2="752" stroke="#e5eaf0" stroke-width="1"/>
<text x="310.0" y="784" text-anchor="middle" class="axis">0.25</text>
<line x1="435.0" y1="48" x2="435.0" y2="752" stroke="#e5eaf0" stroke-width="1"/>
<text x="435.0" y="784" text-anchor="middle" class="axis">0.5</text>
<line x1="560.0" y1="48" x2="560.0" y2="752" stroke="#1f2933" stroke-width="1.4"/>
<text x="560.0" y="784" text-anchor="middle" class="axis">1</text>
<line x1="685.0" y1="48" x2="685.0" y2="752" stroke="#e5eaf0" stroke-width="1"/>
<text x="685.0" y="784" text-anchor="middle" class="axis">2</text>
<line x1="810.0" y1="48" x2="810.0" y2="752" stroke="#e5eaf0" stroke-width="1"/>
<text x="810.0" y="784" text-anchor="middle" class="axis">4</text>
<text x="298" y="64" text-anchor="end" class="label">A. 患者要因</text>
<line x1="310" y1="70" x2="810" y2="70" stroke="#d8dee4"/>
<text x="298" y="106" text-anchor="end" class="label">65歳以上</text>
<line x1="310.0" y1="100" x2="702.1" y2="100" stroke="#2f7d8c" stroke-width="2"/>
<circle cx="470.9" cy="100" r="5.5" fill="#2f7d8c"/>
<text x="828" y="105" class="num">0.61 (0.17-2.20)</text>
<text x="932" y="105" class="axis">3/11</text>
<text x="298" y="148" text-anchor="end" class="label">臨床家評価mGAF-F 40以下</text>
<line x1="506.4" y1="142" x2="724.0" y2="142" stroke="#2f7d8c" stroke-width="2"/>
<circle cx="615.2" cy="142" r="5.5" fill="#2f7d8c"/>
<text x="828" y="147" class="num">1.36 (0.74-2.48)</text>
<text x="932" y="147" class="axis">32/73</text>
<text x="298" y="190" text-anchor="end" class="label">過去拒否記載あり</text>
<line x1="310.0" y1="184" x2="536.4" y2="184" stroke="#2f7d8c" stroke-width="2"/>
<circle cx="378.9" cy="184" r="5.5" fill="#2f7d8c"/>
<text x="828" y="189" class="num">0.37 (0.15-0.88)</text>
<text x="932" y="189" class="axis">7/33</text>
<text x="298" y="232" text-anchor="end" class="label">日中活動あり</text>
<line x1="504.8" y1="226" x2="724.5" y2="226" stroke="#2f7d8c" stroke-width="2"/>
<circle cx="614.7" cy="226" r="5.5" fill="#2f7d8c"/>
<text x="828" y="231" class="num">1.35 (0.74-2.49)</text>
<text x="932" y="231" class="axis">45/106</text>
<text x="298" y="274" text-anchor="end" class="label">同居家族から支援あり</text>
<line x1="465.9" y1="268" x2="727.0" y2="268" stroke="#2f7d8c" stroke-width="2"/>
<circle cx="596.4" cy="268" r="5.5" fill="#2f7d8c"/>
<text x="828" y="273" class="num">1.22 (0.59-2.52)</text>
<text x="932" y="273" class="axis">16/37</text>
<text x="298" y="316" text-anchor="end" class="label">ケア役割あり</text>
<line x1="459.3" y1="310" x2="725.8" y2="310" stroke="#2f7d8c" stroke-width="2"/>
<circle cx="592.5" cy="310" r="5.5" fill="#2f7d8c"/>
<text x="828" y="315" class="num">1.20 (0.57-2.51)</text>
<text x="932" y="315" class="axis">15/35</text>
<text x="298" y="358" text-anchor="end" class="label">通院片道60分以上</text>
<line x1="404.9" y1="352" x2="676.0" y2="352" stroke="#2f7d8c" stroke-width="2"/>
<circle cx="540.5" cy="352" r="5.5" fill="#2f7d8c"/>
<text x="828" y="357" class="num">0.90 (0.42-1.90)</text>
<text x="932" y="357" class="axis">13/35</text>
<text x="298" y="400" text-anchor="end" class="label">訪問看護を現在利用</text>
<line x1="443.6" y1="394" x2="689.7" y2="394" stroke="#2f7d8c" stroke-width="2"/>
<circle cx="566.6" cy="394" r="5.5" fill="#2f7d8c"/>
<text x="828" y="399" class="num">1.04 (0.52-2.05)</text>
<text x="932" y="399" class="axis">18/45</text>
<text x="298" y="442" text-anchor="end" class="label">生活保護あり</text>
<line x1="485.3" y1="436" x2="750.8" y2="436" stroke="#2f7d8c" stroke-width="2"/>
<circle cx="618.1" cy="436" r="5.5" fill="#2f7d8c"/>
<text x="828" y="441" class="num">1.38 (0.66-2.88)</text>
<text x="932" y="441" class="axis">16/35</text>
<text x="298" y="484" text-anchor="end" class="label">経済的にかなり困る</text>
<line x1="413.8" y1="478" x2="671.8" y2="478" stroke="#2f7d8c" stroke-width="2"/>
<circle cx="542.8" cy="478" r="5.5" fill="#2f7d8c"/>
<text x="828" y="483" class="num">0.91 (0.44-1.86)</text>
<text x="932" y="483" class="axis">15/40</text>
<text x="298" y="526" text-anchor="end" class="label">B. 医師要因</text>
<line x1="310" y1="532" x2="810" y2="532" stroke="#d8dee4"/>
<text x="298" y="568" text-anchor="end" class="label">精神科経験15年以上</text>
<line x1="466.4" y1="562" x2="682.2" y2="562" stroke="#2f7d8c" stroke-width="2"/>
<circle cx="574.3" cy="562" r="5.5" fill="#2f7d8c"/>
<text x="828" y="567" class="num">1.08 (0.60-1.97)</text>
<text x="932" y="567" class="axis">32/79</text>
<text x="298" y="610" text-anchor="end" class="label">精神科専門医</text>
<line x1="432.0" y1="604" x2="659.4" y2="604" stroke="#2f7d8c" stroke-width="2"/>
<circle cx="545.7" cy="604" r="5.5" fill="#2f7d8c"/>
<text x="828" y="609" class="num">0.92 (0.49-1.74)</text>
<text x="932" y="609" class="axis">47/121</text>
<text x="298" y="652" text-anchor="end" class="label">精神保健指定医</text>
<line x1="463.4" y1="646" x2="684.7" y2="646" stroke="#2f7d8c" stroke-width="2"/>
<circle cx="574.1" cy="646" r="5.5" fill="#2f7d8c"/>
<text x="828" y="651" class="num">1.08 (0.59-2.00)</text>
<text x="932" y="651" class="axis">45/112</text>
<text x="298" y="694" text-anchor="end" class="label">クロザピン導入3例以上</text>
<line x1="439.5" y1="688" x2="684.5" y2="688" stroke="#2f7d8c" stroke-width="2"/>
<circle cx="562.0" cy="688" r="5.5" fill="#2f7d8c"/>
<text x="828" y="693" class="num">1.01 (0.51-1.99)</text>
<text x="932" y="693" class="axis">53/134</text>
<text x="298" y="736" text-anchor="end" class="label">現在担当クロザピン患者3名以上</text>
<line x1="461.2" y1="730" x2="677.0" y2="730" stroke="#2f7d8c" stroke-width="2"/>
<circle cx="569.1" cy="730" r="5.5" fill="#2f7d8c"/>
<text x="828" y="735" class="num">1.05 (0.58-1.91)</text>
<text x="932" y="735" class="axis">40/100</text>
<text x="560.0" y="798" text-anchor="middle" class="axis">Odds ratio（対数軸）</text>
<text x="828" y="34" class="axis">OR (95% CI)</text>
<text x="932" y="34" class="axis">該当者中の過小評価</text>
</svg>