<svg xmlns="http://www.w3.org/2000/svg" width="960" height="420" viewBox="0 0 960 420" role="img">
<style>
.title{font:700 19px -apple-system,BlinkMacSystemFont,"Segoe UI",sans-serif;fill:#1f2933}
.label{font:600 14px -apple-system,BlinkMacSystemFont,"Segoe UI",sans-serif;fill:#24323d}
.num{font:600 13px -apple-system,BlinkMacSystemFont,"Segoe UI",sans-serif;fill:#24323d}
.axis,.legend,.note{font:12px -apple-system,BlinkMacSystemFont,"Segoe UI",sans-serif;fill:#52616b}
.inside{font:700 13px -apple-system,BlinkMacSystemFont,"Segoe UI",sans-serif;fill:white}
.big{font:700 34px -apple-system,BlinkMacSystemFont,"Segoe UI",sans-serif;fill:#1f2933}
</style>
<rect width="100%" height="100%" fill="white"/>
<text x="230" y="30" class="title">図1. 回答前提別にみた入院導入・外来導入の受容パターン</text>
<text x="218" y="95" text-anchor="end" class="label">現在の状態で回答</text>
<rect x="230.0" y="68" width="249.3" height="42" fill="#2f7d8c"/>
<text x="354.6" y="96" text-anchor="middle" class="inside">25</text>
<rect x="479.3" y="68" width="169.5" height="42" fill="#0f766e"/>
<text x="564.0" y="96" text-anchor="middle" class="inside">17</text>
<rect x="648.8" y="68" width="69.8" height="42" fill="#9aa6b2"/>
<text x="683.7" y="96" text-anchor="middle" class="inside">7</text>
<rect x="718.6" y="68" width="199.4" height="42" fill="#d8dee4"/>
<text x="818.3" y="96" text-anchor="middle" class="inside">20</text>
<text x="926" y="95" class="num">n=69</text>
<text x="218" y="181" text-anchor="end" class="label">将来TRS相当を想定</text>
<rect x="230.0" y="154" width="179.7" height="42" fill="#2f7d8c"/>
<text x="319.9" y="182" text-anchor="middle" class="inside">29</text>
<rect x="409.7" y="154" width="266.5" height="42" fill="#0f766e"/>
<text x="543.0" y="182" text-anchor="middle" class="inside">43</text>
<rect x="676.3" y="154" width="136.4" height="42" fill="#9aa6b2"/>
<text x="744.5" y="182" text-anchor="middle" class="inside">22</text>
<rect x="812.6" y="154" width="105.4" height="42" fill="#d8dee4"/>
<text x="865.3" y="182" text-anchor="middle" class="inside">17</text>
<text x="926" y="181" class="num">n=111</text>
<rect x="230" y="344" width="14" height="14" fill="#2f7d8c"/>
<text x="250" y="356" class="legend">入院は難しいが外来なら前向き</text>
<rect x="230" y="368" width="14" height="14" fill="#0f766e"/>
<text x="250" y="380" class="legend">入院・外来のどちらも前向き</text>
<rect x="230" y="392" width="14" height="14" fill="#9aa6b2"/>
<text x="250" y="404" class="legend">入院なら前向き</text>
<rect x="580" y="344" width="14" height="14" fill="#d8dee4"/>
<text x="600" y="356" class="legend">どちらも前向きに考えにくい</text>
</svg>