<svg xmlns="http://www.w3.org/2000/svg" width="980" height="560" viewBox="0 0 980 560" role="img">
<style>
.title{font:700 19px -apple-system,BlinkMacSystemFont,"Segoe UI",sans-serif;fill:#1f2933}
.label{font:600 14px -apple-system,BlinkMacSystemFont,"Segoe UI",sans-serif;fill:#24323d}
.num{font:600 13px -apple-system,BlinkMacSystemFont,"Segoe UI",sans-serif;fill:#24323d}
.axis,.legend,.note{font:12px -apple-system,BlinkMacSystemFont,"Segoe UI",sans-serif;fill:#52616b}
.inside{font:700 13px -apple-system,BlinkMacSystemFont,"Segoe UI",sans-serif;fill:white}
.big{font:700 34px -apple-system,BlinkMacSystemFont,"Segoe UI",sans-serif;fill:#1f2933}
</style>
<rect width="100%" height="100%" fill="white"/>
<text x="250" y="30" class="title">図5. 通院OK者における訪問看護追加の影響</text>
<text x="238" y="86" text-anchor="end" class="label">週5回確認: 週3回通院+週2回訪問看護</text>
<rect x="250.0" y="67" width="241.5" height="26" fill="#2f7d8c"/>
<text x="370.8" y="85" text-anchor="middle" class="inside">7</text>
<rect x="491.5" y="67" width="241.5" height="26" fill="#b7d5da"/>
<text x="612.2" y="85" text-anchor="middle" class="inside">7</text>
<rect x="733.0" y="67" width="103.5" height="26" fill="#c47f4f"/>
<text x="784.8" y="85" text-anchor="middle" class="inside">3</text>
<rect x="836.5" y="67" width="103.5" height="26" fill="#d8dee4"/>
<text x="888.2" y="85" text-anchor="middle" class="inside">3</text>
<text x="948" y="86" class="num">n=20</text>
<text x="238" y="128" text-anchor="end" class="label">週5回確認: 週2回通院+週3回訪問看護</text>
<rect x="250.0" y="109" width="306.7" height="26" fill="#2f7d8c"/>
<text x="403.3" y="127" text-anchor="middle" class="inside">16</text>
<rect x="556.7" y="109" width="172.5" height="26" fill="#b7d5da"/>
<text x="642.9" y="127" text-anchor="middle" class="inside">9</text>
<rect x="729.2" y="109" width="115.0" height="26" fill="#c47f4f"/>
<text x="786.7" y="127" text-anchor="middle" class="inside">6</text>
<rect x="844.2" y="109" width="95.8" height="26" fill="#d8dee4"/>
<text x="892.1" y="127" text-anchor="middle" class="inside">5</text>
<text x="948" y="128" class="num">n=36</text>
<text x="238" y="170" text-anchor="end" class="label">週5回確認: 週1回通院+週4回訪問看護</text>
<rect x="250.0" y="151" width="213.6" height="26" fill="#2f7d8c"/>
<text x="356.8" y="169" text-anchor="middle" class="inside">13</text>
<rect x="463.6" y="151" width="246.4" height="26" fill="#b7d5da"/>
<text x="586.8" y="169" text-anchor="middle" class="inside">15</text>
<rect x="710.0" y="151" width="115.0" height="26" fill="#c47f4f"/>
<text x="767.5" y="169" text-anchor="middle" class="inside">7</text>
<rect x="825.0" y="151" width="115.0" height="26" fill="#d8dee4"/>
<text x="882.5" y="169" text-anchor="middle" class="inside">7</text>
<text x="948" y="170" class="num">n=42</text>
<text x="238" y="212" text-anchor="end" class="label">週3回確認: 週2回通院+週1回訪問看護</text>
<rect x="250.0" y="193" width="191.7" height="26" fill="#2f7d8c"/>
<text x="345.8" y="211" text-anchor="middle" class="inside">10</text>
<rect x="441.7" y="193" width="306.7" height="26" fill="#b7d5da"/>
<text x="595.0" y="211" text-anchor="middle" class="inside">16</text>
<rect x="748.3" y="193" width="57.5" height="26" fill="#c47f4f"/>
<text x="777.1" y="211" text-anchor="middle" class="inside">3</text>
<rect x="805.8" y="193" width="134.2" height="26" fill="#d8dee4"/>
<text x="872.9" y="211" text-anchor="middle" class="inside">7</text>
<text x="948" y="212" class="num">n=36</text>
<text x="238" y="254" text-anchor="end" class="label">週3回確認: 週1回通院+週2回訪問看護</text>
<rect x="250.0" y="235" width="246.4" height="26" fill="#2f7d8c"/>
<text x="373.2" y="253" text-anchor="middle" class="inside">15</text>
<rect x="496.4" y="235" width="213.6" height="26" fill="#b7d5da"/>
<text x="603.2" y="253" text-anchor="middle" class="inside">13</text>
<rect x="710.0" y="235" width="131.4" height="26" fill="#c47f4f"/>
<text x="775.7" y="253" text-anchor="middle" class="inside">8</text>
<rect x="841.4" y="235" width="98.6" height="26" fill="#d8dee4"/>
<text x="890.7" y="253" text-anchor="middle" class="inside">6</text>
<text x="948" y="254" class="num">n=42</text>
<text x="238" y="296" text-anchor="end" class="label">週2回確認: 週1回通院+週1回訪問看護</text>
<rect x="250.0" y="277" width="279.3" height="26" fill="#2f7d8c"/>
<text x="389.6" y="295" text-anchor="middle" class="inside">17</text>
<rect x="529.3" y="277" width="230.0" height="26" fill="#b7d5da"/>
<text x="644.3" y="295" text-anchor="middle" class="inside">14</text>
<rect x="759.3" y="277" width="164.3" height="26" fill="#c47f4f"/>
<text x="841.4" y="295" text-anchor="middle" class="inside">10</text>
<rect x="923.6" y="277" width="16.4" height="26" fill="#d8dee4"/>
<text x="948" y="296" class="num">n=42</text>
<rect x="250" y="502" width="14" height="14" fill="#2f7d8c"/>
<text x="270" y="514" class="legend">より前向き</text>
<rect x="430" y="502" width="14" height="14" fill="#b7d5da"/>
<text x="450" y="514" class="legend">あまり変わらない</text>
<rect x="610" y="502" width="14" height="14" fill="#c47f4f"/>
<text x="630" y="514" class="legend">むしろ難しい</text>
<rect x="790" y="502" width="14" height="14" fill="#d8dee4"/>
<text x="810" y="514" class="legend">わからない</text>
</svg>