<svg xmlns="http://www.w3.org/2000/svg" width="1040" height="806" viewBox="0 0 1040 806" role="img">
<style>
.title{font:700 19px -apple-system,BlinkMacSystemFont,"Segoe UI",sans-serif;fill:#1f2933}
.label{font:600 14px -apple-system,BlinkMacSystemFont,"Segoe UI",sans-serif;fill:#24323d}
.num{font:600 13px -apple-system,BlinkMacSystemFont,"Segoe UI",sans-serif;fill:#24323d}
.axis,.legend,.note{font:12px -apple-system,BlinkMacSystemFont,"Segoe UI",sans-serif;fill:#52616b}
.inside{font:700 13px -apple-system,BlinkMacSystemFont,"Segoe UI",sans-serif;fill:white}
.big{font:700 34px -apple-system,BlinkMacSystemFont,"Segoe UI",sans-serif;fill:#1f2933}
</style>
<rect width="100%" height="100%" fill="white"/>
<text x="310" y="30" class="title">図9. ベースライン情報でみる外来導入受容性の過小評価要因</text>
<line x1="310.0" y1="48" x2="310.0" y2="752" stroke="#e5eaf0" stroke-width="1"/>
<text x="310.0" y="784" text-anchor="middle" class="axis">0.25</text>
<line x1="435.0" y1="48" x2="435.0" y2="752" stroke="#e5eaf0" stroke-width="1"/>
<text x="435.0" y="784" text-anchor="middle" class="axis">0.5</text>
<line x1="560.0" y1="48" x2="560.0" y2="752" stroke="#1f2933" stroke-width="1.4"/>
<text x="560.0" y="784" text-anchor="middle" class="axis">1</text>
<line x1="685.0" y1="48" x2="685.0" y2="752" stroke="#e5eaf0" stroke-width="1"/>
<text x="685.0" y="784" text-anchor="middle" class="axis">2</text>
<line x1="810.0" y1="48" x2="810.0" y2="752" stroke="#e5eaf0" stroke-width="1"/>
<text x="810.0" y="784" text-anchor="middle" class="axis">4</text>
<text x="298" y="64" text-anchor="end" class="label">A. 患者要因</text>
<line x1="310" y1="70" x2="810" y2="70" stroke="#d8dee4"/>
<text x="298" y="106" text-anchor="end" class="label">65歳以上</text>
<line x1="526.8" y1="100" x2="810.0" y2="100" stroke="#2f7d8c" stroke-width="2"/>
<circle cx="795.5" cy="100" r="5.5" fill="#2f7d8c"/>
<text x="828" y="105" class="num">3.69 (0.83-16.37)</text>
<text x="932" y="105" class="axis">6/8</text>
<text x="298" y="148" text-anchor="end" class="label">臨床家評価mGAF-F 40以下</text>
<line x1="407.5" y1="142" x2="623.8" y2="142" stroke="#2f7d8c" stroke-width="2"/>
<circle cx="515.7" cy="142" r="5.5" fill="#2f7d8c"/>
<text x="828" y="147" class="num">0.78 (0.43-1.42)</text>
<text x="932" y="147" class="axis">29/74</text>
<text x="298" y="190" text-anchor="end" class="label">過去拒否記載あり</text>
<line x1="361.6" y1="184" x2="674.3" y2="184" stroke="#2f7d8c" stroke-width="2"/>
<circle cx="517.9" cy="184" r="5.5" fill="#2f7d8c"/>
<text x="828" y="189" class="num">0.79 (0.33-1.88)</text>
<text x="932" y="189" class="axis">9/24</text>
<text x="298" y="232" text-anchor="end" class="label">日中活動あり</text>
<line x1="491.7" y1="226" x2="706.2" y2="226" stroke="#2f7d8c" stroke-width="2"/>
<circle cx="598.9" cy="226" r="5.5" fill="#2f7d8c"/>
<text x="828" y="231" class="num">1.24 (0.68-2.25)</text>
<text x="932" y="231" class="axis">46/102</text>
<text x="298" y="274" text-anchor="end" class="label">同居家族から支援あり</text>
<line x1="440.8" y1="268" x2="696.0" y2="268" stroke="#2f7d8c" stroke-width="2"/>
<circle cx="568.4" cy="268" r="5.5" fill="#2f7d8c"/>
<text x="828" y="273" class="num">1.05 (0.52-2.13)</text>
<text x="932" y="273" class="axis">17/39</text>
<text x="298" y="316" text-anchor="end" class="label">ケア役割あり</text>
<line x1="425.5" y1="310" x2="706.7" y2="310" stroke="#2f7d8c" stroke-width="2"/>
<circle cx="566.1" cy="310" r="5.5" fill="#2f7d8c"/>
<text x="828" y="315" class="num">1.03 (0.47-2.26)</text>
<text x="932" y="315" class="axis">13/30</text>
<text x="298" y="358" text-anchor="end" class="label">通院片道60分以上</text>
<line x1="310.0" y1="352" x2="595.6" y2="352" stroke="#2f7d8c" stroke-width="2"/>
<circle cx="446.2" cy="352" r="5.5" fill="#2f7d8c"/>
<text x="828" y="357" class="num">0.53 (0.23-1.22)</text>
<text x="932" y="357" class="axis">9/30</text>
<text x="298" y="400" text-anchor="end" class="label">訪問看護を現在利用</text>
<line x1="356.2" y1="394" x2="595.1" y2="394" stroke="#2f7d8c" stroke-width="2"/>
<circle cx="475.6" cy="394" r="5.5" fill="#2f7d8c"/>
<text x="828" y="399" class="num">0.63 (0.32-1.21)</text>
<text x="932" y="399" class="axis">18/52</text>
<text x="298" y="442" text-anchor="end" class="label">生活保護あり</text>
<line x1="374.5" y1="436" x2="676.1" y2="436" stroke="#2f7d8c" stroke-width="2"/>
<circle cx="525.3" cy="436" r="5.5" fill="#2f7d8c"/>
<text x="828" y="441" class="num">0.82 (0.36-1.90)</text>
<text x="932" y="441" class="axis">10/26</text>
<text x="298" y="484" text-anchor="end" class="label">経済的にかなり困る</text>
<line x1="444.9" y1="478" x2="707.1" y2="478" stroke="#2f7d8c" stroke-width="2"/>
<circle cx="576.0" cy="478" r="5.5" fill="#2f7d8c"/>
<text x="828" y="483" class="num">1.09 (0.53-2.26)</text>
<text x="932" y="483" class="axis">16/36</text>
<text x="298" y="526" text-anchor="end" class="label">B. 医師要因</text>
<line x1="310" y1="532" x2="810" y2="532" stroke="#d8dee4"/>
<text x="298" y="568" text-anchor="end" class="label">精神科経験15年以上</text>
<line x1="397.2" y1="562" x2="614.3" y2="562" stroke="#2f7d8c" stroke-width="2"/>
<circle cx="505.8" cy="562" r="5.5" fill="#2f7d8c"/>
<text x="828" y="567" class="num">0.74 (0.41-1.35)</text>
<text x="932" y="567" class="axis">28/73</text>
<text x="298" y="610" text-anchor="end" class="label">精神科専門医</text>
<line x1="541.9" y1="604" x2="773.2" y2="604" stroke="#2f7d8c" stroke-width="2"/>
<circle cx="657.6" cy="604" r="5.5" fill="#2f7d8c"/>
<text x="828" y="609" class="num">1.72 (0.90-3.26)</text>
<text x="932" y="609" class="axis">57/121</text>
<text x="298" y="652" text-anchor="end" class="label">精神保健指定医</text>
<line x1="524.5" y1="646" x2="740.1" y2="646" stroke="#2f7d8c" stroke-width="2"/>
<circle cx="632.3" cy="646" r="5.5" fill="#2f7d8c"/>
<text x="828" y="651" class="num">1.49 (0.82-2.72)</text>
<text x="932" y="651" class="axis">48/102</text>
<text x="298" y="694" text-anchor="end" class="label">クロザピン導入3例以上</text>
<line x1="398.5" y1="688" x2="627.0" y2="688" stroke="#2f7d8c" stroke-width="2"/>
<circle cx="512.8" cy="688" r="5.5" fill="#2f7d8c"/>
<text x="828" y="693" class="num">0.77 (0.41-1.45)</text>
<text x="932" y="693" class="axis">51/125</text>
<text x="298" y="736" text-anchor="end" class="label">現在担当クロザピン患者3名以上</text>
<line x1="443.5" y1="730" x2="655.6" y2="730" stroke="#2f7d8c" stroke-width="2"/>
<circle cx="549.6" cy="730" r="5.5" fill="#2f7d8c"/>
<text x="828" y="735" class="num">0.94 (0.52-1.70)</text>
<text x="932" y="735" class="axis">40/95</text>
<text x="560.0" y="798" text-anchor="middle" class="axis">Odds ratio（対数軸）</text>
<text x="828" y="34" class="axis">OR (95% CI)</text>
<text x="932" y="34" class="axis">該当者中の過小評価</text>
</svg>