<svg xmlns="http://www.w3.org/2000/svg" width="900" height="380" viewBox="0 0 900 380" role="img">
<style>
.title{font:700 19px -apple-system,BlinkMacSystemFont,"Segoe UI",sans-serif;fill:#1f2933}
.label{font:600 14px -apple-system,BlinkMacSystemFont,"Segoe UI",sans-serif;fill:#24323d}
.num{font:600 13px -apple-system,BlinkMacSystemFont,"Segoe UI",sans-serif;fill:#24323d}
.axis,.legend,.note{font:12px -apple-system,BlinkMacSystemFont,"Segoe UI",sans-serif;fill:#52616b}
.inside{font:700 13px -apple-system,BlinkMacSystemFont,"Segoe UI",sans-serif;fill:white}
.big{font:700 34px -apple-system,BlinkMacSystemFont,"Segoe UI",sans-serif;fill:#1f2933}
</style>
<rect width="100%" height="100%" fill="white"/>
<text x="190" y="30" class="title">図2. 入院導入受容性別にみた外来通院頻度threshold</text>
<text x="178" y="96" text-anchor="end" class="label">入院導入を前向きに考える</text>
<rect x="190.0" y="68" width="135.5" height="36" fill="#0f766e"/>
<text x="257.8" y="91" text-anchor="middle" class="inside">14</text>
<rect x="325.5" y="68" width="154.9" height="36" fill="#2f7d8c"/>
<text x="403.0" y="91" text-anchor="middle" class="inside">16</text>
<rect x="480.4" y="68" width="106.5" height="36" fill="#8bbbc3"/>
<text x="533.7" y="91" text-anchor="middle" class="inside">11</text>
<rect x="586.9" y="68" width="271.1" height="36" fill="#d8dee4"/>
<text x="722.5" y="91" text-anchor="middle" class="inside">28</text>
<text x="866" y="91" class="num">n=69</text>
<text x="178" y="172" text-anchor="end" class="label">入院導入を前向きに考えにくい</text>
<rect x="190.0" y="144" width="132.4" height="36" fill="#0f766e"/>
<text x="256.2" y="167" text-anchor="middle" class="inside">22</text>
<rect x="322.4" y="144" width="174.5" height="36" fill="#2f7d8c"/>
<text x="409.7" y="167" text-anchor="middle" class="inside">29</text>
<rect x="496.9" y="144" width="132.4" height="36" fill="#8bbbc3"/>
<text x="563.1" y="167" text-anchor="middle" class="inside">22</text>
<rect x="629.3" y="144" width="228.7" height="36" fill="#d8dee4"/>
<text x="743.7" y="167" text-anchor="middle" class="inside">38</text>
<text x="866" y="167" class="num">n=111</text>
<rect x="190" y="322" width="14" height="14" fill="#0f766e"/>
<text x="210" y="334" class="legend">週3回通院なら受容</text>
<rect x="360" y="322" width="14" height="14" fill="#2f7d8c"/>
<text x="380" y="334" class="legend">週2回通院なら受容</text>
<rect x="530" y="322" width="14" height="14" fill="#8bbbc3"/>
<text x="550" y="334" class="legend">週1回通院なら受容</text>
<rect x="700" y="322" width="14" height="14" fill="#d8dee4"/>
<text x="720" y="334" class="legend">通院のみ条件は非受容/保留</text>
</svg>