<svg xmlns="http://www.w3.org/2000/svg" width="940" height="430" viewBox="0 0 940 430" role="img">
<style>
.title{font:700 19px -apple-system,BlinkMacSystemFont,"Segoe UI",sans-serif;fill:#1f2933}
.label{font:600 14px -apple-system,BlinkMacSystemFont,"Segoe UI",sans-serif;fill:#24323d}
.num{font:600 13px -apple-system,BlinkMacSystemFont,"Segoe UI",sans-serif;fill:#24323d}
.axis,.legend,.note{font:12px -apple-system,BlinkMacSystemFont,"Segoe UI",sans-serif;fill:#52616b}
.inside{font:700 13px -apple-system,BlinkMacSystemFont,"Segoe UI",sans-serif;fill:white}
.big{font:700 34px -apple-system,BlinkMacSystemFont,"Segoe UI",sans-serif;fill:#1f2933}
</style>
<rect width="100%" height="100%" fill="white"/>
<text x="210" y="30" class="title">図3. 通院頻度別にみた拒否理由</text>
<text x="198" y="93" text-anchor="end" class="label">週3回通院を拒否</text>
<rect x="210.0" y="66" width="484.3" height="38" fill="#2f7d8c"/>
<text x="452.1" y="91" text-anchor="middle" class="inside">70</text>
<rect x="694.3" y="66" width="48.4" height="38" fill="#c47f4f"/>
<text x="718.5" y="91" text-anchor="middle" class="inside">7</text>
<rect x="742.7" y="66" width="145.3" height="38" fill="#7a9a3d"/>
<text x="815.4" y="91" text-anchor="middle" class="inside">21</text>
<text x="896" y="91" class="num">n=98</text>
<text x="198" y="165" text-anchor="end" class="label">週2回通院を拒否</text>
<rect x="210.0" y="138" width="400.1" height="38" fill="#2f7d8c"/>
<text x="410.1" y="163" text-anchor="middle" class="inside">36</text>
<rect x="610.1" y="138" width="88.9" height="38" fill="#c47f4f"/>
<text x="654.6" y="163" text-anchor="middle" class="inside">8</text>
<rect x="699.0" y="138" width="189.0" height="38" fill="#7a9a3d"/>
<text x="793.5" y="163" text-anchor="middle" class="inside">17</text>
<text x="896" y="163" class="num">n=61</text>
<text x="198" y="237" text-anchor="end" class="label">週1回通院を拒否</text>
<rect x="210.0" y="210" width="419.7" height="38" fill="#2f7d8c"/>
<text x="419.9" y="235" text-anchor="middle" class="inside">13</text>
<rect x="629.7" y="210" width="161.4" height="38" fill="#c47f4f"/>
<text x="710.4" y="235" text-anchor="middle" class="inside">5</text>
<rect x="791.1" y="210" width="96.9" height="38" fill="#7a9a3d"/>
<text x="839.6" y="235" text-anchor="middle" class="inside">3</text>
<text x="896" y="235" class="num">n=21</text>
<rect x="210" y="382" width="14" height="14" fill="#2f7d8c"/>
<text x="230" y="394" class="legend">通院負担のみ</text>
<rect x="420" y="382" width="14" height="14" fill="#c47f4f"/>
<text x="440" y="394" class="legend">安全面不安のみ</text>
<rect x="630" y="382" width="14" height="14" fill="#7a9a3d"/>
<text x="650" y="394" class="legend">通院負担+安全面不安</text>
</svg>