<svg xmlns="http://www.w3.org/2000/svg" width="980" height="560" viewBox="0 0 980 560" role="img">
<style>
.title{font:700 19px -apple-system,BlinkMacSystemFont,"Segoe UI",sans-serif;fill:#1f2933}
.label{font:600 14px -apple-system,BlinkMacSystemFont,"Segoe UI",sans-serif;fill:#24323d}
.num{font:600 13px -apple-system,BlinkMacSystemFont,"Segoe UI",sans-serif;fill:#24323d}
.axis,.legend,.note{font:12px -apple-system,BlinkMacSystemFont,"Segoe UI",sans-serif;fill:#52616b}
.inside{font:700 13px -apple-system,BlinkMacSystemFont,"Segoe UI",sans-serif;fill:white}
.big{font:700 34px -apple-system,BlinkMacSystemFont,"Segoe UI",sans-serif;fill:#1f2933}
</style>
<rect width="100%" height="100%" fill="white"/>
<text x="250" y="30" class="title">図5. 訪問看護を加えた場合の服用判断への方向性</text>
<text x="238" y="86" text-anchor="end" class="label">週5回確認: 週3回通院+週2回訪問看護</text>
<rect x="250.0" y="67" width="197.1" height="26" fill="#2f7d8c"/>
<text x="348.6" y="85" text-anchor="middle" class="inside">10</text>
<rect x="447.1" y="67" width="157.7" height="26" fill="#b7d5da"/>
<text x="526.0" y="85" text-anchor="middle" class="inside">8</text>
<rect x="604.9" y="67" width="276.0" height="26" fill="#c47f4f"/>
<text x="742.9" y="85" text-anchor="middle" class="inside">14</text>
<rect x="880.9" y="67" width="59.1" height="26" fill="#d8dee4"/>
<text x="910.4" y="85" text-anchor="middle" class="inside">3</text>
<text x="948" y="86" class="num">n=35</text>
<text x="238" y="128" text-anchor="end" class="label">週5回確認: 週2回通院+週3回訪問看護</text>
<rect x="250.0" y="109" width="258.8" height="26" fill="#2f7d8c"/>
<text x="379.4" y="127" text-anchor="middle" class="inside">18</text>
<rect x="508.8" y="109" width="129.4" height="26" fill="#b7d5da"/>
<text x="573.4" y="127" text-anchor="middle" class="inside">9</text>
<rect x="638.1" y="109" width="186.9" height="26" fill="#c47f4f"/>
<text x="731.6" y="127" text-anchor="middle" class="inside">13</text>
<rect x="825.0" y="109" width="115.0" height="26" fill="#d8dee4"/>
<text x="882.5" y="127" text-anchor="middle" class="inside">8</text>
<text x="948" y="128" class="num">n=48</text>
<text x="238" y="170" text-anchor="end" class="label">週5回確認: 週1回通院+週4回訪問看護</text>
<rect x="250.0" y="151" width="256.1" height="26" fill="#2f7d8c"/>
<text x="378.0" y="169" text-anchor="middle" class="inside">36</text>
<rect x="506.1" y="151" width="156.5" height="26" fill="#b7d5da"/>
<text x="584.3" y="169" text-anchor="middle" class="inside">22</text>
<rect x="662.6" y="151" width="170.7" height="26" fill="#c47f4f"/>
<text x="747.9" y="169" text-anchor="middle" class="inside">24</text>
<rect x="833.3" y="151" width="106.7" height="26" fill="#d8dee4"/>
<text x="886.6" y="169" text-anchor="middle" class="inside">15</text>
<text x="948" y="170" class="num">n=97</text>
<text x="238" y="212" text-anchor="end" class="label">週3回確認: 週3回通院</text>
<rect x="250.0" y="193" width="197.1" height="26" fill="#2f7d8c"/>
<text x="348.6" y="211" text-anchor="middle" class="inside">10</text>
<rect x="447.1" y="193" width="335.1" height="26" fill="#b7d5da"/>
<text x="614.7" y="211" text-anchor="middle" class="inside">17</text>
<rect x="782.3" y="193" width="98.6" height="26" fill="#c47f4f"/>
<text x="831.6" y="211" text-anchor="middle" class="inside">5</text>
<rect x="880.9" y="193" width="59.1" height="26" fill="#d8dee4"/>
<text x="910.4" y="211" text-anchor="middle" class="inside">3</text>
<text x="948" y="212" class="num">n=35</text>
<text x="238" y="254" text-anchor="end" class="label">週3回確認: 週2回通院+週1回訪問看護</text>
<rect x="250.0" y="235" width="316.2" height="26" fill="#2f7d8c"/>
<text x="408.1" y="253" text-anchor="middle" class="inside">22</text>
<rect x="566.2" y="235" width="215.6" height="26" fill="#b7d5da"/>
<text x="674.1" y="253" text-anchor="middle" class="inside">15</text>
<rect x="781.9" y="235" width="71.9" height="26" fill="#c47f4f"/>
<text x="817.8" y="253" text-anchor="middle" class="inside">5</text>
<rect x="853.8" y="235" width="86.2" height="26" fill="#d8dee4"/>
<text x="896.9" y="253" text-anchor="middle" class="inside">6</text>
<text x="948" y="254" class="num">n=48</text>
<text x="238" y="296" text-anchor="end" class="label">週3回確認: 週1回通院+週2回訪問看護</text>
<rect x="250.0" y="277" width="227.6" height="26" fill="#2f7d8c"/>
<text x="363.8" y="295" text-anchor="middle" class="inside">32</text>
<rect x="477.6" y="277" width="227.6" height="26" fill="#b7d5da"/>
<text x="591.4" y="295" text-anchor="middle" class="inside">32</text>
<rect x="705.3" y="277" width="142.3" height="26" fill="#c47f4f"/>
<text x="776.4" y="295" text-anchor="middle" class="inside">20</text>
<rect x="847.5" y="277" width="92.5" height="26" fill="#d8dee4"/>
<text x="893.8" y="295" text-anchor="middle" class="inside">13</text>
<text x="948" y="296" class="num">n=97</text>
<text x="238" y="338" text-anchor="end" class="label">週2回確認: 週2回通院</text>
<rect x="250.0" y="319" width="143.8" height="26" fill="#2f7d8c"/>
<text x="321.9" y="337" text-anchor="middle" class="inside">10</text>
<rect x="393.8" y="319" width="359.4" height="26" fill="#b7d5da"/>
<text x="573.4" y="337" text-anchor="middle" class="inside">25</text>
<rect x="753.1" y="319" width="100.6" height="26" fill="#c47f4f"/>
<text x="803.4" y="337" text-anchor="middle" class="inside">7</text>
<rect x="853.8" y="319" width="86.2" height="26" fill="#d8dee4"/>
<text x="896.9" y="337" text-anchor="middle" class="inside">6</text>
<text x="948" y="338" class="num">n=48</text>
<text x="238" y="380" text-anchor="end" class="label">週2回確認: 週1回通院+週1回訪問看護</text>
<rect x="250.0" y="361" width="270.3" height="26" fill="#2f7d8c"/>
<text x="385.2" y="379" text-anchor="middle" class="inside">38</text>
<rect x="520.3" y="361" width="213.4" height="26" fill="#b7d5da"/>
<text x="627.0" y="379" text-anchor="middle" class="inside">30</text>
<rect x="733.7" y="361" width="92.5" height="26" fill="#c47f4f"/>
<text x="779.9" y="379" text-anchor="middle" class="inside">13</text>
<rect x="826.2" y="361" width="113.8" height="26" fill="#d8dee4"/>
<text x="883.1" y="379" text-anchor="middle" class="inside">16</text>
<text x="948" y="380" class="num">n=97</text>
<rect x="250" y="502" width="14" height="14" fill="#2f7d8c"/>
<text x="270" y="514" class="legend">より前向きになる</text>
<rect x="430" y="502" width="14" height="14" fill="#b7d5da"/>
<text x="450" y="514" class="legend">変わらない</text>
<rect x="610" y="502" width="14" height="14" fill="#c47f4f"/>
<text x="630" y="514" class="legend">むしろ後ろ向きになる</text>
<rect x="790" y="502" width="14" height="14" fill="#d8dee4"/>
<text x="810" y="514" class="legend">わからない</text>
</svg>