<svg xmlns="http://www.w3.org/2000/svg" width="900" height="380" viewBox="0 0 900 380" role="img">
<style>
.title{font:700 19px -apple-system,BlinkMacSystemFont,"Segoe UI",sans-serif;fill:#1f2933}
.label{font:600 14px -apple-system,BlinkMacSystemFont,"Segoe UI",sans-serif;fill:#24323d}
.num{font:600 13px -apple-system,BlinkMacSystemFont,"Segoe UI",sans-serif;fill:#24323d}
.axis,.legend,.note{font:12px -apple-system,BlinkMacSystemFont,"Segoe UI",sans-serif;fill:#52616b}
.inside{font:700 13px -apple-system,BlinkMacSystemFont,"Segoe UI",sans-serif;fill:white}
.big{font:700 34px -apple-system,BlinkMacSystemFont,"Segoe UI",sans-serif;fill:#1f2933}
</style>
<rect width="100%" height="100%" fill="white"/>
<text x="190" y="30" class="title">図3. 対象集団別のburden threshold</text>
<text x="178" y="96" text-anchor="end" class="label">TRS適格候補</text>
<rect x="190.0" y="68" width="132.0" height="36" fill="#0f766e"/>
<text x="256.0" y="91" text-anchor="middle" class="inside">17</text>
<rect x="322.0" y="68" width="163.1" height="36" fill="#2f7d8c"/>
<text x="403.6" y="91" text-anchor="middle" class="inside">21</text>
<rect x="485.2" y="68" width="225.3" height="36" fill="#8bbbc3"/>
<text x="597.8" y="91" text-anchor="middle" class="inside">29</text>
<rect x="710.4" y="68" width="147.6" height="36" fill="#d8dee4"/>
<text x="784.2" y="91" text-anchor="middle" class="inside">19</text>
<text x="866" y="91" class="num">n=86</text>
<text x="178" y="172" text-anchor="end" class="label">広い未使用外来患者</text>
<rect x="190.0" y="144" width="64.0" height="36" fill="#0f766e"/>
<text x="222.0" y="167" text-anchor="middle" class="inside">9</text>
<rect x="254.0" y="144" width="206.1" height="36" fill="#2f7d8c"/>
<text x="357.0" y="167" text-anchor="middle" class="inside">29</text>
<rect x="460.0" y="144" width="312.7" height="36" fill="#8bbbc3"/>
<text x="616.4" y="167" text-anchor="middle" class="inside">44</text>
<rect x="772.7" y="144" width="85.3" height="36" fill="#d8dee4"/>
<text x="815.4" y="167" text-anchor="middle" class="inside">12</text>
<text x="866" y="167" class="num">n=94</text>
<rect x="190" y="322" width="14" height="14" fill="#0f766e"/>
<text x="210" y="334" class="legend">週3回通院なら受容</text>
<rect x="360" y="322" width="14" height="14" fill="#2f7d8c"/>
<text x="380" y="334" class="legend">週2回通院なら受容</text>
<rect x="530" y="322" width="14" height="14" fill="#8bbbc3"/>
<text x="550" y="334" class="legend">週1回通院なら受容</text>
<rect x="700" y="322" width="14" height="14" fill="#d8dee4"/>
<text x="720" y="334" class="legend">通院のみ条件は非受容/保留</text>
</svg>