<svg xmlns="http://www.w3.org/2000/svg" width="940" height="430" viewBox="0 0 940 430" role="img">
<style>
.title{font:700 19px -apple-system,BlinkMacSystemFont,"Segoe UI",sans-serif;fill:#1f2933}
.label{font:600 14px -apple-system,BlinkMacSystemFont,"Segoe UI",sans-serif;fill:#24323d}
.num{font:600 13px -apple-system,BlinkMacSystemFont,"Segoe UI",sans-serif;fill:#24323d}
.axis,.legend,.note{font:12px -apple-system,BlinkMacSystemFont,"Segoe UI",sans-serif;fill:#52616b}
.inside{font:700 13px -apple-system,BlinkMacSystemFont,"Segoe UI",sans-serif;fill:white}
.big{font:700 34px -apple-system,BlinkMacSystemFont,"Segoe UI",sans-serif;fill:#1f2933}
</style>
<rect width="100%" height="100%" fill="white"/>
<text x="210" y="30" class="title">図3. 通院頻度別にみた拒否理由</text>
<text x="198" y="93" text-anchor="end" class="label">週3回通院を拒否</text>
<rect x="210.0" y="66" width="504.2" height="38" fill="#2f7d8c"/>
<text x="462.1" y="91" text-anchor="middle" class="inside">87</text>
<rect x="714.2" y="66" width="29.0" height="38" fill="#c47f4f"/>
<rect x="743.1" y="66" width="144.9" height="38" fill="#7a9a3d"/>
<text x="815.6" y="91" text-anchor="middle" class="inside">25</text>
<text x="896" y="91" class="num">n=117</text>
<text x="198" y="165" text-anchor="end" class="label">週2回通院を拒否</text>
<rect x="210.0" y="138" width="455.2" height="38" fill="#2f7d8c"/>
<text x="437.6" y="163" text-anchor="middle" class="inside">47</text>
<rect x="665.2" y="138" width="77.5" height="38" fill="#c47f4f"/>
<text x="704.0" y="163" text-anchor="middle" class="inside">8</text>
<rect x="742.7" y="138" width="145.3" height="38" fill="#7a9a3d"/>
<text x="815.4" y="163" text-anchor="middle" class="inside">15</text>
<text x="896" y="163" class="num">n=70</text>
<text x="198" y="237" text-anchor="end" class="label">週1回通院を拒否</text>
<rect x="210.0" y="210" width="226.0" height="38" fill="#2f7d8c"/>
<text x="323.0" y="235" text-anchor="middle" class="inside">8</text>
<rect x="436.0" y="210" width="254.2" height="38" fill="#c47f4f"/>
<text x="563.1" y="235" text-anchor="middle" class="inside">9</text>
<rect x="690.2" y="210" width="197.8" height="38" fill="#7a9a3d"/>
<text x="789.1" y="235" text-anchor="middle" class="inside">7</text>
<text x="896" y="235" class="num">n=24</text>
<rect x="210" y="382" width="14" height="14" fill="#2f7d8c"/>
<text x="230" y="394" class="legend">通院負担のみ</text>
<rect x="420" y="382" width="14" height="14" fill="#c47f4f"/>
<text x="440" y="394" class="legend">安全面不安のみ</text>
<rect x="630" y="382" width="14" height="14" fill="#7a9a3d"/>
<text x="650" y="394" class="legend">通院負担+安全面不安</text>
</svg>