<svg xmlns="http://www.w3.org/2000/svg" width="960" height="420" viewBox="0 0 960 420" role="img">
<style>
.title{font:700 19px -apple-system,BlinkMacSystemFont,"Segoe UI",sans-serif;fill:#1f2933}
.label{font:600 14px -apple-system,BlinkMacSystemFont,"Segoe UI",sans-serif;fill:#24323d}
.num{font:600 13px -apple-system,BlinkMacSystemFont,"Segoe UI",sans-serif;fill:#24323d}
.axis,.legend,.note{font:12px -apple-system,BlinkMacSystemFont,"Segoe UI",sans-serif;fill:#52616b}
.inside{font:700 13px -apple-system,BlinkMacSystemFont,"Segoe UI",sans-serif;fill:white}
.big{font:700 34px -apple-system,BlinkMacSystemFont,"Segoe UI",sans-serif;fill:#1f2933}
</style>
<rect width="100%" height="100%" fill="white"/>
<text x="230" y="30" class="title">図1. 回答前提別にみた入院導入・外来導入の受容パターン</text>
<text x="218" y="95" text-anchor="end" class="label">現在の状態で回答</text>
<rect x="230.0" y="68" width="205.4" height="42" fill="#2f7d8c"/>
<text x="332.7" y="96" text-anchor="middle" class="inside">20</text>
<rect x="435.4" y="68" width="102.7" height="42" fill="#0f766e"/>
<text x="486.7" y="96" text-anchor="middle" class="inside">10</text>
<rect x="538.1" y="68" width="133.5" height="42" fill="#9aa6b2"/>
<text x="604.8" y="96" text-anchor="middle" class="inside">13</text>
<rect x="671.6" y="68" width="246.4" height="42" fill="#d8dee4"/>
<text x="794.8" y="96" text-anchor="middle" class="inside">24</text>
<text x="926" y="95" class="num">n=67</text>
<text x="218" y="181" text-anchor="end" class="label">将来TRS相当を想定</text>
<rect x="230.0" y="154" width="207.0" height="42" fill="#2f7d8c"/>
<text x="333.5" y="182" text-anchor="middle" class="inside">34</text>
<rect x="437.0" y="154" width="292.2" height="42" fill="#0f766e"/>
<text x="583.1" y="182" text-anchor="middle" class="inside">48</text>
<rect x="729.3" y="154" width="103.5" height="42" fill="#9aa6b2"/>
<text x="781.0" y="182" text-anchor="middle" class="inside">17</text>
<rect x="832.8" y="154" width="85.2" height="42" fill="#d8dee4"/>
<text x="875.4" y="182" text-anchor="middle" class="inside">14</text>
<text x="926" y="181" class="num">n=113</text>
<rect x="230" y="344" width="14" height="14" fill="#2f7d8c"/>
<text x="250" y="356" class="legend">入院は難しいが外来なら前向き</text>
<rect x="230" y="368" width="14" height="14" fill="#0f766e"/>
<text x="250" y="380" class="legend">入院・外来のどちらも前向き</text>
<rect x="230" y="392" width="14" height="14" fill="#9aa6b2"/>
<text x="250" y="404" class="legend">入院なら前向き</text>
<rect x="580" y="344" width="14" height="14" fill="#d8dee4"/>
<text x="600" y="356" class="legend">どちらも前向きに考えにくい</text>
</svg>