<svg xmlns="http://www.w3.org/2000/svg" width="940" height="426" viewBox="0 0 940 426" role="img">
<style>
.title{font:700 19px -apple-system,BlinkMacSystemFont,"Segoe UI",sans-serif;fill:#1f2933}
.label{font:600 14px -apple-system,BlinkMacSystemFont,"Segoe UI",sans-serif;fill:#24323d}
.num{font:600 13px -apple-system,BlinkMacSystemFont,"Segoe UI",sans-serif;fill:#24323d}
.axis,.legend,.note{font:12px -apple-system,BlinkMacSystemFont,"Segoe UI",sans-serif;fill:#52616b}
.inside{font:700 13px -apple-system,BlinkMacSystemFont,"Segoe UI",sans-serif;fill:white}
.big{font:700 34px -apple-system,BlinkMacSystemFont,"Segoe UI",sans-serif;fill:#1f2933}
</style>
<rect width="100%" height="100%" fill="white"/>
<text x="230" y="30" class="title">図4. 通院頻度threshold別にみた訪問看護確認頻度threshold</text>
<text x="218" y="93" text-anchor="end" class="label">週3回通院受容</text>
<rect x="230.0" y="66" width="219.3" height="38" fill="#245b67"/>
<text x="339.7" y="91" text-anchor="middle" class="inside">12</text>
<rect x="449.3" y="66" width="438.7" height="38" fill="#d8dee4"/>
<text x="668.7" y="91" text-anchor="middle" class="inside">24</text>
<text x="896" y="91" class="num">n=36</text>
<text x="218" y="161" text-anchor="end" class="label">週2回通院受容</text>
<rect x="230.0" y="134" width="194.4" height="38" fill="#245b67"/>
<text x="327.2" y="159" text-anchor="middle" class="inside">13</text>
<rect x="424.4" y="134" width="239.3" height="38" fill="#2f7d8c"/>
<text x="544.0" y="159" text-anchor="middle" class="inside">16</text>
<rect x="663.7" y="134" width="224.3" height="38" fill="#d8dee4"/>
<text x="775.8" y="159" text-anchor="middle" class="inside">15</text>
<text x="896" y="159" class="num">n=44</text>
<text x="218" y="229" text-anchor="end" class="label">週1回通院受容</text>
<rect x="230.0" y="202" width="107.1" height="38" fill="#245b67"/>
<text x="283.6" y="227" text-anchor="middle" class="inside">7</text>
<rect x="337.1" y="202" width="260.1" height="38" fill="#2f7d8c"/>
<text x="467.2" y="227" text-anchor="middle" class="inside">17</text>
<rect x="597.3" y="202" width="183.6" height="38" fill="#8bbbc3"/>
<text x="689.1" y="227" text-anchor="middle" class="inside">12</text>
<rect x="780.9" y="202" width="107.1" height="38" fill="#d8dee4"/>
<text x="834.4" y="227" text-anchor="middle" class="inside">7</text>
<text x="896" y="227" class="num">n=43</text>
<rect x="230" y="368" width="14" height="14" fill="#245b67"/>
<text x="250" y="380" class="legend">週5回確認まで受容</text>
<rect x="440" y="368" width="14" height="14" fill="#2f7d8c"/>
<text x="460" y="380" class="legend">週3回確認まで受容</text>
<rect x="650" y="368" width="14" height="14" fill="#8bbbc3"/>
<text x="670" y="380" class="legend">週2回確認まで受容</text>
<rect x="230" y="392" width="14" height="14" fill="#d8dee4"/>
<text x="250" y="404" class="legend">訪問看護追加は非受容/保留</text>
</svg>