<svg xmlns="http://www.w3.org/2000/svg" width="960" height="420" viewBox="0 0 960 420" role="img">
<style>
.title{font:700 19px -apple-system,BlinkMacSystemFont,"Segoe UI",sans-serif;fill:#1f2933}
.label{font:600 14px -apple-system,BlinkMacSystemFont,"Segoe UI",sans-serif;fill:#24323d}
.num{font:600 13px -apple-system,BlinkMacSystemFont,"Segoe UI",sans-serif;fill:#24323d}
.axis,.legend,.note{font:12px -apple-system,BlinkMacSystemFont,"Segoe UI",sans-serif;fill:#52616b}
.inside{font:700 13px -apple-system,BlinkMacSystemFont,"Segoe UI",sans-serif;fill:white}
.big{font:700 34px -apple-system,BlinkMacSystemFont,"Segoe UI",sans-serif;fill:#1f2933}
</style>
<rect width="100%" height="100%" fill="white"/>
<text x="230" y="30" class="title">図1. 回答前提別にみた入院導入・外来導入の受容パターン</text>
<text x="218" y="95" text-anchor="end" class="label">現在の状態で回答</text>
<rect x="230.0" y="68" width="285.0" height="42" fill="#2f7d8c"/>
<text x="372.5" y="96" text-anchor="middle" class="inside">29</text>
<rect x="515.0" y="68" width="117.9" height="42" fill="#0f766e"/>
<text x="574.0" y="96" text-anchor="middle" class="inside">12</text>
<rect x="633.0" y="68" width="68.8" height="42" fill="#9aa6b2"/>
<text x="667.4" y="96" text-anchor="middle" class="inside">7</text>
<rect x="701.8" y="68" width="216.2" height="42" fill="#d8dee4"/>
<text x="809.9" y="96" text-anchor="middle" class="inside">22</text>
<text x="926" y="95" class="num">n=70</text>
<text x="218" y="181" text-anchor="end" class="label">将来TRS相当を想定</text>
<rect x="230.0" y="154" width="175.1" height="42" fill="#2f7d8c"/>
<text x="317.6" y="182" text-anchor="middle" class="inside">28</text>
<rect x="405.1" y="154" width="306.5" height="42" fill="#0f766e"/>
<text x="558.4" y="182" text-anchor="middle" class="inside">49</text>
<rect x="711.6" y="154" width="81.3" height="42" fill="#9aa6b2"/>
<text x="752.3" y="182" text-anchor="middle" class="inside">13</text>
<rect x="792.9" y="154" width="125.1" height="42" fill="#d8dee4"/>
<text x="855.5" y="182" text-anchor="middle" class="inside">20</text>
<text x="926" y="181" class="num">n=110</text>
<rect x="230" y="344" width="14" height="14" fill="#2f7d8c"/>
<text x="250" y="356" class="legend">入院は難しいが外来なら前向き</text>
<rect x="230" y="368" width="14" height="14" fill="#0f766e"/>
<text x="250" y="380" class="legend">入院・外来のどちらも前向き</text>
<rect x="230" y="392" width="14" height="14" fill="#9aa6b2"/>
<text x="250" y="404" class="legend">入院なら前向き</text>
<rect x="580" y="344" width="14" height="14" fill="#d8dee4"/>
<text x="600" y="356" class="legend">どちらも前向きに考えにくい</text>
</svg>