<svg xmlns="http://www.w3.org/2000/svg" width="900" height="380" viewBox="0 0 900 380" role="img">
<style>
.title{font:700 19px -apple-system,BlinkMacSystemFont,"Segoe UI",sans-serif;fill:#1f2933}
.label{font:600 14px -apple-system,BlinkMacSystemFont,"Segoe UI",sans-serif;fill:#24323d}
.num{font:600 13px -apple-system,BlinkMacSystemFont,"Segoe UI",sans-serif;fill:#24323d}
.axis,.legend,.note{font:12px -apple-system,BlinkMacSystemFont,"Segoe UI",sans-serif;fill:#52616b}
.inside{font:700 13px -apple-system,BlinkMacSystemFont,"Segoe UI",sans-serif;fill:white}
.big{font:700 34px -apple-system,BlinkMacSystemFont,"Segoe UI",sans-serif;fill:#1f2933}
</style>
<rect width="100%" height="100%" fill="white"/>
<text x="190" y="30" class="title">図2. 入院導入受容性別にみた外来通院頻度threshold</text>
<text x="178" y="96" text-anchor="end" class="label">入院導入を前向きに考える</text>
<rect x="190.0" y="68" width="84.5" height="36" fill="#0f766e"/>
<text x="232.2" y="91" text-anchor="middle" class="inside">11</text>
<rect x="274.5" y="68" width="168.9" height="36" fill="#2f7d8c"/>
<text x="358.9" y="91" text-anchor="middle" class="inside">22</text>
<rect x="443.4" y="68" width="192.0" height="36" fill="#8bbbc3"/>
<text x="539.4" y="91" text-anchor="middle" class="inside">25</text>
<rect x="635.3" y="68" width="222.7" height="36" fill="#d8dee4"/>
<text x="746.7" y="91" text-anchor="middle" class="inside">29</text>
<text x="866" y="91" class="num">n=87</text>
<text x="178" y="172" text-anchor="end" class="label">入院導入を前向きに考えにくい</text>
<rect x="190.0" y="144" width="86.2" height="36" fill="#0f766e"/>
<text x="233.1" y="167" text-anchor="middle" class="inside">12</text>
<rect x="276.2" y="144" width="150.8" height="36" fill="#2f7d8c"/>
<text x="351.6" y="167" text-anchor="middle" class="inside">21</text>
<rect x="427.0" y="144" width="158.0" height="36" fill="#8bbbc3"/>
<text x="506.0" y="167" text-anchor="middle" class="inside">22</text>
<rect x="585.1" y="144" width="272.9" height="36" fill="#d8dee4"/>
<text x="721.5" y="167" text-anchor="middle" class="inside">38</text>
<text x="866" y="167" class="num">n=93</text>
<rect x="190" y="322" width="14" height="14" fill="#0f766e"/>
<text x="210" y="334" class="legend">週3回通院なら受容</text>
<rect x="360" y="322" width="14" height="14" fill="#2f7d8c"/>
<text x="380" y="334" class="legend">週2回通院なら受容</text>
<rect x="530" y="322" width="14" height="14" fill="#8bbbc3"/>
<text x="550" y="334" class="legend">週1回通院なら受容</text>
<rect x="700" y="322" width="14" height="14" fill="#d8dee4"/>
<text x="720" y="334" class="legend">通院のみ条件は非受容/保留</text>
</svg>