<svg xmlns="http://www.w3.org/2000/svg" width="940" height="430" viewBox="0 0 940 430" role="img">
<style>
.title{font:700 19px -apple-system,BlinkMacSystemFont,"Segoe UI",sans-serif;fill:#1f2933}
.label{font:600 14px -apple-system,BlinkMacSystemFont,"Segoe UI",sans-serif;fill:#24323d}
.num{font:600 13px -apple-system,BlinkMacSystemFont,"Segoe UI",sans-serif;fill:#24323d}
.axis,.legend,.note{font:12px -apple-system,BlinkMacSystemFont,"Segoe UI",sans-serif;fill:#52616b}
.inside{font:700 13px -apple-system,BlinkMacSystemFont,"Segoe UI",sans-serif;fill:white}
.big{font:700 34px -apple-system,BlinkMacSystemFont,"Segoe UI",sans-serif;fill:#1f2933}
</style>
<rect width="100%" height="100%" fill="white"/>
<text x="210" y="30" class="title">図3. 通院頻度別にみた拒否理由</text>
<text x="198" y="93" text-anchor="end" class="label">週3回通院を拒否</text>
<rect x="210.0" y="66" width="441.0" height="38" fill="#2f7d8c"/>
<text x="430.5" y="91" text-anchor="middle" class="inside">67</text>
<rect x="651.0" y="66" width="85.6" height="38" fill="#c47f4f"/>
<text x="693.8" y="91" text-anchor="middle" class="inside">13</text>
<rect x="736.6" y="66" width="151.4" height="38" fill="#7a9a3d"/>
<text x="812.3" y="91" text-anchor="middle" class="inside">23</text>
<text x="896" y="91" class="num">n=103</text>
<text x="198" y="165" text-anchor="end" class="label">週2回通院を拒否</text>
<rect x="210.0" y="138" width="466.1" height="38" fill="#2f7d8c"/>
<text x="443.1" y="163" text-anchor="middle" class="inside">44</text>
<rect x="676.1" y="138" width="84.8" height="38" fill="#c47f4f"/>
<text x="718.5" y="163" text-anchor="middle" class="inside">8</text>
<rect x="760.9" y="138" width="127.1" height="38" fill="#7a9a3d"/>
<text x="824.4" y="163" text-anchor="middle" class="inside">12</text>
<text x="896" y="163" class="num">n=64</text>
<text x="198" y="237" text-anchor="end" class="label">週1回通院を拒否</text>
<rect x="210.0" y="210" width="372.9" height="38" fill="#2f7d8c"/>
<text x="396.4" y="235" text-anchor="middle" class="inside">11</text>
<rect x="582.9" y="210" width="169.5" height="38" fill="#c47f4f"/>
<text x="667.6" y="235" text-anchor="middle" class="inside">5</text>
<rect x="752.4" y="210" width="135.6" height="38" fill="#7a9a3d"/>
<text x="820.2" y="235" text-anchor="middle" class="inside">4</text>
<text x="896" y="235" class="num">n=20</text>
<rect x="210" y="382" width="14" height="14" fill="#2f7d8c"/>
<text x="230" y="394" class="legend">通院負担のみ</text>
<rect x="420" y="382" width="14" height="14" fill="#c47f4f"/>
<text x="440" y="394" class="legend">安全面不安のみ</text>
<rect x="630" y="382" width="14" height="14" fill="#7a9a3d"/>
<text x="650" y="394" class="legend">通院負担+安全面不安</text>
</svg>