<svg xmlns="http://www.w3.org/2000/svg" width="980" height="560" viewBox="0 0 980 560" role="img">
<style>
.title{font:700 19px -apple-system,BlinkMacSystemFont,"Segoe UI",sans-serif;fill:#1f2933}
.label{font:600 14px -apple-system,BlinkMacSystemFont,"Segoe UI",sans-serif;fill:#24323d}
.num{font:600 13px -apple-system,BlinkMacSystemFont,"Segoe UI",sans-serif;fill:#24323d}
.axis,.legend,.note{font:12px -apple-system,BlinkMacSystemFont,"Segoe UI",sans-serif;fill:#52616b}
.inside{font:700 13px -apple-system,BlinkMacSystemFont,"Segoe UI",sans-serif;fill:white}
.big{font:700 34px -apple-system,BlinkMacSystemFont,"Segoe UI",sans-serif;fill:#1f2933}
</style>
<rect width="100%" height="100%" fill="white"/>
<text x="250" y="30" class="title">図5. 訪問看護を加えた場合の服用判断への方向性</text>
<text x="238" y="86" text-anchor="end" class="label">週5回確認: 週3回通院+週2回訪問看護</text>
<rect x="250.0" y="67" width="204.4" height="26" fill="#2f7d8c"/>
<text x="352.2" y="85" text-anchor="middle" class="inside">8</text>
<rect x="454.4" y="67" width="153.3" height="26" fill="#b7d5da"/>
<text x="531.1" y="85" text-anchor="middle" class="inside">6</text>
<rect x="607.8" y="67" width="178.9" height="26" fill="#c47f4f"/>
<text x="697.2" y="85" text-anchor="middle" class="inside">7</text>
<rect x="786.7" y="67" width="153.3" height="26" fill="#d8dee4"/>
<text x="863.3" y="85" text-anchor="middle" class="inside">6</text>
<text x="948" y="86" class="num">n=27</text>
<text x="238" y="128" text-anchor="end" class="label">週5回確認: 週2回通院+週3回訪問看護</text>
<rect x="250.0" y="109" width="323.0" height="26" fill="#2f7d8c"/>
<text x="411.5" y="127" text-anchor="middle" class="inside">22</text>
<rect x="573.0" y="109" width="102.8" height="26" fill="#b7d5da"/>
<text x="624.4" y="127" text-anchor="middle" class="inside">7</text>
<rect x="675.7" y="109" width="205.5" height="26" fill="#c47f4f"/>
<text x="778.5" y="127" text-anchor="middle" class="inside">14</text>
<rect x="881.3" y="109" width="58.7" height="26" fill="#d8dee4"/>
<text x="910.6" y="127" text-anchor="middle" class="inside">4</text>
<text x="948" y="128" class="num">n=47</text>
<text x="238" y="170" text-anchor="end" class="label">週5回確認: 週1回通院+週4回訪問看護</text>
<rect x="250.0" y="151" width="279.9" height="26" fill="#2f7d8c"/>
<text x="390.0" y="169" text-anchor="middle" class="inside">43</text>
<rect x="529.9" y="151" width="104.2" height="26" fill="#b7d5da"/>
<text x="582.0" y="169" text-anchor="middle" class="inside">16</text>
<rect x="634.1" y="151" width="214.8" height="26" fill="#c47f4f"/>
<text x="741.5" y="169" text-anchor="middle" class="inside">33</text>
<rect x="848.9" y="151" width="91.1" height="26" fill="#d8dee4"/>
<text x="894.4" y="169" text-anchor="middle" class="inside">14</text>
<text x="948" y="170" class="num">n=106</text>
<text x="238" y="212" text-anchor="end" class="label">週3回確認: 週3回通院</text>
<rect x="250.0" y="193" width="230.0" height="26" fill="#2f7d8c"/>
<text x="365.0" y="211" text-anchor="middle" class="inside">9</text>
<rect x="480.0" y="193" width="255.6" height="26" fill="#b7d5da"/>
<text x="607.8" y="211" text-anchor="middle" class="inside">10</text>
<rect x="735.6" y="193" width="127.8" height="26" fill="#c47f4f"/>
<text x="799.4" y="211" text-anchor="middle" class="inside">5</text>
<rect x="863.3" y="193" width="76.7" height="26" fill="#d8dee4"/>
<text x="901.7" y="211" text-anchor="middle" class="inside">3</text>
<text x="948" y="212" class="num">n=27</text>
<text x="238" y="254" text-anchor="end" class="label">週3回確認: 週2回通院+週1回訪問看護</text>
<rect x="250.0" y="235" width="249.6" height="26" fill="#2f7d8c"/>
<text x="374.8" y="253" text-anchor="middle" class="inside">17</text>
<rect x="499.6" y="235" width="205.5" height="26" fill="#b7d5da"/>
<text x="602.3" y="253" text-anchor="middle" class="inside">14</text>
<rect x="705.1" y="235" width="161.5" height="26" fill="#c47f4f"/>
<text x="785.9" y="253" text-anchor="middle" class="inside">11</text>
<rect x="866.6" y="235" width="73.4" height="26" fill="#d8dee4"/>
<text x="903.3" y="253" text-anchor="middle" class="inside">5</text>
<text x="948" y="254" class="num">n=47</text>
<text x="238" y="296" text-anchor="end" class="label">週3回確認: 週1回通院+週2回訪問看護</text>
<rect x="250.0" y="277" width="221.3" height="26" fill="#2f7d8c"/>
<text x="360.7" y="295" text-anchor="middle" class="inside">34</text>
<rect x="471.3" y="277" width="273.4" height="26" fill="#b7d5da"/>
<text x="608.0" y="295" text-anchor="middle" class="inside">42</text>
<rect x="744.7" y="277" width="149.7" height="26" fill="#c47f4f"/>
<text x="819.6" y="295" text-anchor="middle" class="inside">23</text>
<rect x="894.4" y="277" width="45.6" height="26" fill="#d8dee4"/>
<text x="917.2" y="295" text-anchor="middle" class="inside">7</text>
<text x="948" y="296" class="num">n=106</text>
<text x="238" y="338" text-anchor="end" class="label">週2回確認: 週2回通院</text>
<rect x="250.0" y="319" width="220.2" height="26" fill="#2f7d8c"/>
<text x="360.1" y="337" text-anchor="middle" class="inside">15</text>
<rect x="470.2" y="319" width="293.6" height="26" fill="#b7d5da"/>
<text x="617.0" y="337" text-anchor="middle" class="inside">20</text>
<rect x="763.8" y="319" width="102.8" height="26" fill="#c47f4f"/>
<text x="815.2" y="337" text-anchor="middle" class="inside">7</text>
<rect x="866.6" y="319" width="73.4" height="26" fill="#d8dee4"/>
<text x="903.3" y="337" text-anchor="middle" class="inside">5</text>
<text x="948" y="338" class="num">n=47</text>
<text x="238" y="380" text-anchor="end" class="label">週2回確認: 週1回通院+週1回訪問看護</text>
<rect x="250.0" y="361" width="234.3" height="26" fill="#2f7d8c"/>
<text x="367.2" y="379" text-anchor="middle" class="inside">36</text>
<rect x="484.3" y="361" width="188.8" height="26" fill="#b7d5da"/>
<text x="578.7" y="379" text-anchor="middle" class="inside">29</text>
<rect x="673.1" y="361" width="201.8" height="26" fill="#c47f4f"/>
<text x="774.0" y="379" text-anchor="middle" class="inside">31</text>
<rect x="874.9" y="361" width="65.1" height="26" fill="#d8dee4"/>
<text x="907.5" y="379" text-anchor="middle" class="inside">10</text>
<text x="948" y="380" class="num">n=106</text>
<rect x="250" y="502" width="14" height="14" fill="#2f7d8c"/>
<text x="270" y="514" class="legend">より前向きになる</text>
<rect x="430" y="502" width="14" height="14" fill="#b7d5da"/>
<text x="450" y="514" class="legend">変わらない</text>
<rect x="610" y="502" width="14" height="14" fill="#c47f4f"/>
<text x="630" y="514" class="legend">むしろ後ろ向きになる</text>
<rect x="790" y="502" width="14" height="14" fill="#d8dee4"/>
<text x="810" y="514" class="legend">わからない</text>
</svg>