<svg xmlns="http://www.w3.org/2000/svg" width="980" height="430" viewBox="0 0 980 430" role="img">
<style>
.title{font:700 19px -apple-system,BlinkMacSystemFont,"Segoe UI",sans-serif;fill:#1f2933}
.label{font:600 14px -apple-system,BlinkMacSystemFont,"Segoe UI",sans-serif;fill:#24323d}
.num{font:600 13px -apple-system,BlinkMacSystemFont,"Segoe UI",sans-serif;fill:#24323d}
.axis,.legend,.note{font:12px -apple-system,BlinkMacSystemFont,"Segoe UI",sans-serif;fill:#52616b}
.inside{font:700 13px -apple-system,BlinkMacSystemFont,"Segoe UI",sans-serif;fill:white}
.big{font:700 34px -apple-system,BlinkMacSystemFont,"Segoe UI",sans-serif;fill:#1f2933}
</style>
<rect width="100%" height="100%" fill="white"/>
<text x="70" y="32" class="title">図5. 最も前向きに考えやすい外来モニタリング条件</text>
<rect x="70.0" y="70" width="124.2" height="64" fill="#004d40"/>
<text x="132.1" y="108" text-anchor="middle" class="inside">26</text>
<rect x="194.2" y="70" width="57.3" height="64" fill="#00695c"/>
<text x="222.9" y="108" text-anchor="middle" class="inside">12</text>
<rect x="251.6" y="70" width="57.3" height="64" fill="#0f766e"/>
<text x="280.2" y="108" text-anchor="middle" class="inside">12</text>
<rect x="308.9" y="70" width="76.4" height="64" fill="#2f7d8c"/>
<text x="347.1" y="108" text-anchor="middle" class="inside">16</text>
<rect x="385.3" y="70" width="90.8" height="64" fill="#5f9ea8"/>
<text x="430.7" y="108" text-anchor="middle" class="inside">19</text>
<rect x="476.1" y="70" width="100.3" height="64" fill="#8bbbc3"/>
<text x="526.3" y="108" text-anchor="middle" class="inside">21</text>
<rect x="576.4" y="70" width="81.2" height="64" fill="#b7d5da"/>
<text x="617.1" y="108" text-anchor="middle" class="inside">17</text>
<rect x="657.7" y="70" width="109.9" height="64" fill="#d7e8eb"/>
<text x="712.6" y="108" text-anchor="middle" class="inside">23</text>
<rect x="767.6" y="70" width="162.4" height="64" fill="#d8dee4"/>
<text x="848.8" y="108" text-anchor="middle" class="inside">34</text>
<rect x="70" y="170" width="14" height="14" fill="#004d40"/>
<text x="90" y="182" class="legend">週5回確認: 週3回通院+週2回訪問看護</text>
<rect x="70" y="194" width="14" height="14" fill="#00695c"/>
<text x="90" y="206" class="legend">週5回確認: 週2回通院+週3回訪問看護</text>
<rect x="70" y="218" width="14" height="14" fill="#0f766e"/>
<text x="90" y="230" class="legend">週5回確認: 週1回通院+週4回訪問看護</text>
<rect x="70" y="242" width="14" height="14" fill="#2f7d8c"/>
<text x="90" y="254" class="legend">週3回確認: 週3回通院</text>
<rect x="70" y="266" width="14" height="14" fill="#5f9ea8"/>
<text x="90" y="278" class="legend">週3回確認: 週2回通院+週1回訪問看護</text>
<rect x="70" y="290" width="14" height="14" fill="#8bbbc3"/>
<text x="90" y="302" class="legend">週3回確認: 週1回通院+週2回訪問看護</text>
<rect x="70" y="314" width="14" height="14" fill="#b7d5da"/>
<text x="90" y="326" class="legend">週2回確認: 週2回通院</text>
<rect x="70" y="338" width="14" height="14" fill="#d7e8eb"/>
<text x="90" y="350" class="legend">週2回確認: 週1回通院+週1回訪問看護</text>
<rect x="70" y="362" width="14" height="14" fill="#d8dee4"/>
<text x="90" y="374" class="legend">どれも難しい</text>
</svg>