<svg xmlns="http://www.w3.org/2000/svg" width="1040" height="932" viewBox="0 0 1040 932" role="img">
<style>
.title{font:700 19px -apple-system,BlinkMacSystemFont,"Segoe UI",sans-serif;fill:#1f2933}
.label{font:600 14px -apple-system,BlinkMacSystemFont,"Segoe UI",sans-serif;fill:#24323d}
.num{font:600 13px -apple-system,BlinkMacSystemFont,"Segoe UI",sans-serif;fill:#24323d}
.axis,.legend,.note{font:12px -apple-system,BlinkMacSystemFont,"Segoe UI",sans-serif;fill:#52616b}
.inside{font:700 13px -apple-system,BlinkMacSystemFont,"Segoe UI",sans-serif;fill:white}
.big{font:700 34px -apple-system,BlinkMacSystemFont,"Segoe UI",sans-serif;fill:#1f2933}
</style>
<rect width="100%" height="100%" fill="white"/>
<text x="310" y="30" class="title">図8. 医師が外来導入受容性を過小評価しやすい患者・医師要因</text>
<line x1="310.0" y1="48" x2="310.0" y2="878" stroke="#e5eaf0" stroke-width="1"/>
<text x="310.0" y="910" text-anchor="middle" class="axis">0.25</text>
<line x1="435.0" y1="48" x2="435.0" y2="878" stroke="#e5eaf0" stroke-width="1"/>
<text x="435.0" y="910" text-anchor="middle" class="axis">0.5</text>
<line x1="560.0" y1="48" x2="560.0" y2="878" stroke="#1f2933" stroke-width="1.4"/>
<text x="560.0" y="910" text-anchor="middle" class="axis">1</text>
<line x1="685.0" y1="48" x2="685.0" y2="878" stroke="#e5eaf0" stroke-width="1"/>
<text x="685.0" y="910" text-anchor="middle" class="axis">2</text>
<line x1="810.0" y1="48" x2="810.0" y2="878" stroke="#e5eaf0" stroke-width="1"/>
<text x="810.0" y="910" text-anchor="middle" class="axis">4</text>
<text x="298" y="64" text-anchor="end" class="label">A. 患者要因</text>
<line x1="310" y1="70" x2="810" y2="70" stroke="#d8dee4"/>
<text x="298" y="106" text-anchor="end" class="label">現在の状態で回答</text>
<line x1="371.3" y1="100" x2="591.9" y2="100" stroke="#2f7d8c" stroke-width="2"/>
<circle cx="481.6" cy="100" r="5.5" fill="#2f7d8c"/>
<text x="828" y="105" class="num">0.65 (0.35-1.19)</text>
<text x="932" y="105" class="axis">25/76</text>
<text x="298" y="148" text-anchor="end" class="label">臨床家評価mGAF-F 40以下</text>
<line x1="371.3" y1="142" x2="591.9" y2="142" stroke="#2f7d8c" stroke-width="2"/>
<circle cx="481.6" cy="142" r="5.5" fill="#2f7d8c"/>
<text x="828" y="147" class="num">0.65 (0.35-1.19)</text>
<text x="932" y="147" class="axis">25/76</text>
<text x="298" y="190" text-anchor="end" class="label">現在治療で困りごとあり</text>
<line x1="487.8" y1="184" x2="709.6" y2="184" stroke="#2f7d8c" stroke-width="2"/>
<circle cx="598.7" cy="184" r="5.5" fill="#2f7d8c"/>
<text x="828" y="189" class="num">1.24 (0.67-2.29)</text>
<text x="932" y="189" class="axis">45/110</text>
<text x="298" y="232" text-anchor="end" class="label">主観的困りごと/つらさあり</text>
<line x1="571.2" y1="226" x2="792.9" y2="226" stroke="#2f7d8c" stroke-width="2"/>
<circle cx="682.1" cy="226" r="5.5" fill="#2f7d8c"/>
<text x="828" y="231" class="num">1.97 (1.06-3.64)</text>
<text x="932" y="231" class="axis">46/100</text>
<text x="298" y="274" text-anchor="end" class="label">入院導入は前向きに考えにくい</text>
<line x1="393.0" y1="268" x2="609.0" y2="268" stroke="#2f7d8c" stroke-width="2"/>
<circle cx="501.0" cy="268" r="5.5" fill="#2f7d8c"/>
<text x="828" y="273" class="num">0.72 (0.40-1.31)</text>
<text x="932" y="273" class="axis">35/99</text>
<text x="298" y="316" text-anchor="end" class="label">外来週1回通院なら受容</text>
<line x1="615.8" y1="310" x2="810.0" y2="310" stroke="#2f7d8c" stroke-width="2"/>
<circle cx="754.0" cy="310" r="5.5" fill="#2f7d8c"/>
<text x="828" y="315" class="num">2.93 (1.36-6.31)</text>
<text x="932" y="315" class="axis">20/33</text>
<text x="298" y="358" text-anchor="end" class="label">週5回確認まで受容</text>
<line x1="582.2" y1="352" x2="810.0" y2="352" stroke="#2f7d8c" stroke-width="2"/>
<circle cx="711.8" cy="352" r="5.5" fill="#2f7d8c"/>
<text x="828" y="357" class="num">2.32 (1.13-4.76)</text>
<text x="932" y="357" class="axis">21/38</text>
<text x="298" y="400" text-anchor="end" class="label">副作用懸念が強い（最大4以上）</text>
<line x1="380.7" y1="394" x2="731.4" y2="394" stroke="#2f7d8c" stroke-width="2"/>
<circle cx="556.1" cy="394" r="5.5" fill="#2f7d8c"/>
<text x="828" y="399" class="num">0.98 (0.37-2.59)</text>
<text x="932" y="399" class="axis">63/162</text>
<text x="298" y="442" text-anchor="end" class="label">有効性は十分（4以上）</text>
<line x1="486.8" y1="436" x2="703.5" y2="436" stroke="#2f7d8c" stroke-width="2"/>
<circle cx="595.2" cy="436" r="5.5" fill="#2f7d8c"/>
<text x="828" y="441" class="num">1.22 (0.67-2.22)</text>
<text x="932" y="441" class="axis">32/77</text>
<text x="298" y="484" text-anchor="end" class="label">過去拒否記載あり</text>
<line x1="374.2" y1="478" x2="719.9" y2="478" stroke="#2f7d8c" stroke-width="2"/>
<circle cx="547.1" cy="478" r="5.5" fill="#2f7d8c"/>
<text x="828" y="483" class="num">0.93 (0.36-2.43)</text>
<text x="932" y="483" class="axis">7/19</text>
<text x="298" y="526" text-anchor="end" class="label">B. 医師要因</text>
<line x1="310" y1="532" x2="810" y2="532" stroke="#d8dee4"/>
<text x="298" y="568" text-anchor="end" class="label">精神科経験15年以上</text>
<line x1="408.8" y1="562" x2="629.0" y2="562" stroke="#2f7d8c" stroke-width="2"/>
<circle cx="518.9" cy="562" r="5.5" fill="#2f7d8c"/>
<text x="828" y="567" class="num">0.80 (0.43-1.47)</text>
<text x="932" y="567" class="axis">26/73</text>
<text x="298" y="610" text-anchor="end" class="label">精神科専門医</text>
<line x1="425.6" y1="604" x2="653.3" y2="604" stroke="#2f7d8c" stroke-width="2"/>
<circle cx="539.5" cy="604" r="5.5" fill="#2f7d8c"/>
<text x="828" y="609" class="num">0.89 (0.47-1.68)</text>
<text x="932" y="609" class="axis">46/121</text>
<text x="298" y="652" text-anchor="end" class="label">精神保健指定医</text>
<line x1="524.2" y1="646" x2="743.7" y2="646" stroke="#2f7d8c" stroke-width="2"/>
<circle cx="634.0" cy="646" r="5.5" fill="#2f7d8c"/>
<text x="828" y="651" class="num">1.51 (0.82-2.77)</text>
<text x="932" y="651" class="axis">44/102</text>
<text x="298" y="694" text-anchor="end" class="label">クロザピン導入3例以上</text>
<line x1="393.2" y1="688" x2="624.0" y2="688" stroke="#2f7d8c" stroke-width="2"/>
<circle cx="508.6" cy="688" r="5.5" fill="#2f7d8c"/>
<text x="828" y="693" class="num">0.75 (0.40-1.43)</text>
<text x="932" y="693" class="axis">46/125</text>
<text x="298" y="736" text-anchor="end" class="label">現在担当クロザピン患者3名以上</text>
<line x1="486.5" y1="730" x2="702.2" y2="730" stroke="#2f7d8c" stroke-width="2"/>
<circle cx="594.3" cy="730" r="5.5" fill="#2f7d8c"/>
<text x="828" y="735" class="num">1.21 (0.67-2.20)</text>
<text x="932" y="735" class="axis">39/95</text>
<text x="298" y="778" text-anchor="end" class="label">医師の外来導入推奨率が高い</text>
<line x1="459.2" y1="772" x2="676.5" y2="772" stroke="#2f7d8c" stroke-width="2"/>
<circle cx="567.9" cy="772" r="5.5" fill="#2f7d8c"/>
<text x="828" y="777" class="num">1.04 (0.57-1.91)</text>
<text x="932" y="777" class="axis">30/76</text>
<text x="298" y="820" text-anchor="end" class="label">stably unwell理由選択率が高い</text>
<line x1="526.9" y1="814" x2="746.0" y2="814" stroke="#2f7d8c" stroke-width="2"/>
<circle cx="636.5" cy="814" r="5.5" fill="#2f7d8c"/>
<text x="828" y="819" class="num">1.53 (0.83-2.81)</text>
<text x="932" y="819" class="axis">32/71</text>
<text x="298" y="862" text-anchor="end" class="label">患者拒否見込み理由選択率が高い</text>
<line x1="504.4" y1="856" x2="731.2" y2="856" stroke="#2f7d8c" stroke-width="2"/>
<circle cx="617.8" cy="856" r="5.5" fill="#2f7d8c"/>
<text x="828" y="861" class="num">1.38 (0.73-2.58)</text>
<text x="932" y="861" class="axis">26/59</text>
<text x="560.0" y="924" text-anchor="middle" class="axis">Odds ratio（対数軸）</text>
<text x="828" y="34" class="axis">OR (95% CI)</text>
<text x="932" y="34" class="axis">該当者中の過小評価</text>
</svg>