<svg xmlns="http://www.w3.org/2000/svg" width="1040" height="806" viewBox="0 0 1040 806" role="img">
<style>
.title{font:700 19px -apple-system,BlinkMacSystemFont,"Segoe UI",sans-serif;fill:#1f2933}
.label{font:600 14px -apple-system,BlinkMacSystemFont,"Segoe UI",sans-serif;fill:#24323d}
.num{font:600 13px -apple-system,BlinkMacSystemFont,"Segoe UI",sans-serif;fill:#24323d}
.axis,.legend,.note{font:12px -apple-system,BlinkMacSystemFont,"Segoe UI",sans-serif;fill:#52616b}
.inside{font:700 13px -apple-system,BlinkMacSystemFont,"Segoe UI",sans-serif;fill:white}
.big{font:700 34px -apple-system,BlinkMacSystemFont,"Segoe UI",sans-serif;fill:#1f2933}
</style>
<rect width="100%" height="100%" fill="white"/>
<text x="310" y="30" class="title">図9. ベースライン情報でみる外来導入受容性の過小評価要因</text>
<line x1="310.0" y1="48" x2="310.0" y2="752" stroke="#e5eaf0" stroke-width="1"/>
<text x="310.0" y="784" text-anchor="middle" class="axis">0.25</text>
<line x1="435.0" y1="48" x2="435.0" y2="752" stroke="#e5eaf0" stroke-width="1"/>
<text x="435.0" y="784" text-anchor="middle" class="axis">0.5</text>
<line x1="560.0" y1="48" x2="560.0" y2="752" stroke="#1f2933" stroke-width="1.4"/>
<text x="560.0" y="784" text-anchor="middle" class="axis">1</text>
<line x1="685.0" y1="48" x2="685.0" y2="752" stroke="#e5eaf0" stroke-width="1"/>
<text x="685.0" y="784" text-anchor="middle" class="axis">2</text>
<line x1="810.0" y1="48" x2="810.0" y2="752" stroke="#e5eaf0" stroke-width="1"/>
<text x="810.0" y="784" text-anchor="middle" class="axis">4</text>
<text x="298" y="64" text-anchor="end" class="label">A. 患者要因</text>
<line x1="310" y1="70" x2="810" y2="70" stroke="#d8dee4"/>
<text x="298" y="106" text-anchor="end" class="label">65歳以上</text>
<line x1="457.7" y1="100" x2="810.0" y2="100" stroke="#2f7d8c" stroke-width="2"/>
<circle cx="669.9" cy="100" r="5.5" fill="#2f7d8c"/>
<text x="828" y="105" class="num">1.84 (0.57-5.97)</text>
<text x="932" y="105" class="axis">6/11</text>
<text x="298" y="148" text-anchor="end" class="label">臨床家評価mGAF-F 40以下</text>
<line x1="310.0" y1="142" x2="513.4" y2="142" stroke="#2f7d8c" stroke-width="2"/>
<circle cx="397.9" cy="142" r="5.5" fill="#2f7d8c"/>
<text x="828" y="147" class="num">0.41 (0.21-0.77)</text>
<text x="932" y="147" class="axis">19/70</text>
<text x="298" y="190" text-anchor="end" class="label">過去拒否記載あり</text>
<line x1="497.3" y1="184" x2="793.4" y2="184" stroke="#2f7d8c" stroke-width="2"/>
<circle cx="645.3" cy="184" r="5.5" fill="#2f7d8c"/>
<text x="828" y="189" class="num">1.61 (0.71-3.65)</text>
<text x="932" y="189" class="axis">13/26</text>
<text x="298" y="232" text-anchor="end" class="label">日中活動あり</text>
<line x1="479.4" y1="226" x2="693.4" y2="226" stroke="#2f7d8c" stroke-width="2"/>
<circle cx="586.4" cy="226" r="5.5" fill="#2f7d8c"/>
<text x="828" y="231" class="num">1.16 (0.64-2.10)</text>
<text x="932" y="231" class="axis">38/91</text>
<text x="298" y="274" text-anchor="end" class="label">同居家族から支援あり</text>
<line x1="540.8" y1="268" x2="791.7" y2="268" stroke="#2f7d8c" stroke-width="2"/>
<circle cx="666.2" cy="268" r="5.5" fill="#2f7d8c"/>
<text x="828" y="273" class="num">1.80 (0.90-3.61)</text>
<text x="932" y="273" class="axis">21/41</text>
<text x="298" y="316" text-anchor="end" class="label">ケア役割あり</text>
<line x1="452.2" y1="310" x2="695.6" y2="310" stroke="#2f7d8c" stroke-width="2"/>
<circle cx="573.9" cy="310" r="5.5" fill="#2f7d8c"/>
<text x="828" y="315" class="num">1.08 (0.55-2.12)</text>
<text x="932" y="315" class="axis">19/46</text>
<text x="298" y="358" text-anchor="end" class="label">通院片道60分以上</text>
<line x1="454.2" y1="352" x2="720.5" y2="352" stroke="#2f7d8c" stroke-width="2"/>
<circle cx="587.3" cy="352" r="5.5" fill="#2f7d8c"/>
<text x="828" y="357" class="num">1.16 (0.56-2.44)</text>
<text x="932" y="357" class="axis">15/35</text>
<text x="298" y="400" text-anchor="end" class="label">訪問看護を現在利用</text>
<line x1="460.4" y1="394" x2="705.1" y2="394" stroke="#2f7d8c" stroke-width="2"/>
<circle cx="582.8" cy="394" r="5.5" fill="#2f7d8c"/>
<text x="828" y="399" class="num">1.13 (0.58-2.24)</text>
<text x="932" y="399" class="axis">19/45</text>
<text x="298" y="442" text-anchor="end" class="label">生活保護あり</text>
<line x1="409.6" y1="436" x2="702.2" y2="436" stroke="#2f7d8c" stroke-width="2"/>
<circle cx="555.9" cy="436" r="5.5" fill="#2f7d8c"/>
<text x="828" y="441" class="num">0.98 (0.43-2.20)</text>
<text x="932" y="441" class="axis">11/28</text>
<text x="298" y="484" text-anchor="end" class="label">経済的にかなり困る</text>
<line x1="409.0" y1="478" x2="673.8" y2="478" stroke="#2f7d8c" stroke-width="2"/>
<circle cx="541.4" cy="478" r="5.5" fill="#2f7d8c"/>
<text x="828" y="483" class="num">0.90 (0.43-1.88)</text>
<text x="932" y="483" class="axis">14/37</text>
<text x="298" y="526" text-anchor="end" class="label">B. 医師要因</text>
<line x1="310" y1="532" x2="810" y2="532" stroke="#d8dee4"/>
<text x="298" y="568" text-anchor="end" class="label">精神科経験15年以上</text>
<line x1="388.4" y1="562" x2="615.5" y2="562" stroke="#2f7d8c" stroke-width="2"/>
<circle cx="501.9" cy="562" r="5.5" fill="#2f7d8c"/>
<text x="828" y="567" class="num">0.72 (0.39-1.36)</text>
<text x="932" y="567" class="axis">22/63</text>
<text x="298" y="610" text-anchor="end" class="label">精神科専門医</text>
<line x1="454.2" y1="604" x2="672.0" y2="604" stroke="#2f7d8c" stroke-width="2"/>
<circle cx="563.1" cy="604" r="5.5" fill="#2f7d8c"/>
<text x="828" y="609" class="num">1.02 (0.56-1.86)</text>
<text x="932" y="609" class="axis">43/107</text>
<text x="298" y="652" text-anchor="end" class="label">精神保健指定医</text>
<line x1="470.1" y1="646" x2="691.2" y2="646" stroke="#2f7d8c" stroke-width="2"/>
<circle cx="580.7" cy="646" r="5.5" fill="#2f7d8c"/>
<text x="828" y="651" class="num">1.12 (0.61-2.07)</text>
<text x="932" y="651" class="axis">46/112</text>
<text x="298" y="694" text-anchor="end" class="label">クロザピン導入3例以上</text>
<line x1="377.9" y1="688" x2="599.3" y2="688" stroke="#2f7d8c" stroke-width="2"/>
<circle cx="488.6" cy="688" r="5.5" fill="#2f7d8c"/>
<text x="828" y="693" class="num">0.67 (0.36-1.24)</text>
<text x="932" y="693" class="axis">42/115</text>
<text x="298" y="736" text-anchor="end" class="label">現在担当クロザピン患者3名以上</text>
<line x1="408.2" y1="730" x2="624.7" y2="730" stroke="#2f7d8c" stroke-width="2"/>
<circle cx="516.5" cy="730" r="5.5" fill="#2f7d8c"/>
<text x="828" y="735" class="num">0.79 (0.43-1.43)</text>
<text x="932" y="735" class="axis">29/79</text>
<text x="560.0" y="798" text-anchor="middle" class="axis">Odds ratio（対数軸）</text>
<text x="828" y="34" class="axis">OR (95% CI)</text>
<text x="932" y="34" class="axis">該当者中の過小評価</text>
</svg>