<svg xmlns="http://www.w3.org/2000/svg" width="980" height="560" viewBox="0 0 980 560" role="img">
<style>
.title{font:700 19px -apple-system,BlinkMacSystemFont,"Segoe UI",sans-serif;fill:#1f2933}
.label{font:600 14px -apple-system,BlinkMacSystemFont,"Segoe UI",sans-serif;fill:#24323d}
.num{font:600 13px -apple-system,BlinkMacSystemFont,"Segoe UI",sans-serif;fill:#24323d}
.axis,.legend,.note{font:12px -apple-system,BlinkMacSystemFont,"Segoe UI",sans-serif;fill:#52616b}
.inside{font:700 13px -apple-system,BlinkMacSystemFont,"Segoe UI",sans-serif;fill:white}
.big{font:700 34px -apple-system,BlinkMacSystemFont,"Segoe UI",sans-serif;fill:#1f2933}
</style>
<rect width="100%" height="100%" fill="white"/>
<text x="250" y="30" class="title">図5. 訪問看護を加えた場合の服用判断への方向性</text>
<text x="238" y="86" text-anchor="end" class="label">週5回確認: 週3回通院+週2回訪問看護</text>
<rect x="250.0" y="67" width="150.0" height="26" fill="#2f7d8c"/>
<text x="325.0" y="85" text-anchor="middle" class="inside">5</text>
<rect x="400.0" y="67" width="240.0" height="26" fill="#b7d5da"/>
<text x="520.0" y="85" text-anchor="middle" class="inside">8</text>
<rect x="640.0" y="67" width="210.0" height="26" fill="#c47f4f"/>
<text x="745.0" y="85" text-anchor="middle" class="inside">7</text>
<rect x="850.0" y="67" width="90.0" height="26" fill="#d8dee4"/>
<text x="895.0" y="85" text-anchor="middle" class="inside">3</text>
<text x="948" y="86" class="num">n=23</text>
<text x="238" y="128" text-anchor="end" class="label">週5回確認: 週2回通院+週3回訪問看護</text>
<rect x="250.0" y="109" width="249.6" height="26" fill="#2f7d8c"/>
<text x="374.8" y="127" text-anchor="middle" class="inside">17</text>
<rect x="499.6" y="109" width="161.5" height="26" fill="#b7d5da"/>
<text x="580.3" y="127" text-anchor="middle" class="inside">11</text>
<rect x="661.1" y="109" width="190.9" height="26" fill="#c47f4f"/>
<text x="756.5" y="127" text-anchor="middle" class="inside">13</text>
<rect x="851.9" y="109" width="88.1" height="26" fill="#d8dee4"/>
<text x="896.0" y="127" text-anchor="middle" class="inside">6</text>
<text x="948" y="128" class="num">n=47</text>
<text x="238" y="170" text-anchor="end" class="label">週5回確認: 週1回通院+週4回訪問看護</text>
<rect x="250.0" y="151" width="282.3" height="26" fill="#2f7d8c"/>
<text x="391.1" y="169" text-anchor="middle" class="inside">45</text>
<rect x="532.3" y="151" width="163.1" height="26" fill="#b7d5da"/>
<text x="613.8" y="169" text-anchor="middle" class="inside">26</text>
<rect x="695.4" y="151" width="169.4" height="26" fill="#c47f4f"/>
<text x="780.0" y="169" text-anchor="middle" class="inside">27</text>
<rect x="864.7" y="151" width="75.3" height="26" fill="#d8dee4"/>
<text x="902.4" y="169" text-anchor="middle" class="inside">12</text>
<text x="948" y="170" class="num">n=110</text>
<text x="238" y="212" text-anchor="end" class="label">週3回確認: 週3回通院</text>
<rect x="250.0" y="193" width="240.0" height="26" fill="#2f7d8c"/>
<text x="370.0" y="211" text-anchor="middle" class="inside">8</text>
<rect x="490.0" y="193" width="240.0" height="26" fill="#b7d5da"/>
<text x="610.0" y="211" text-anchor="middle" class="inside">8</text>
<rect x="730.0" y="193" width="90.0" height="26" fill="#c47f4f"/>
<text x="775.0" y="211" text-anchor="middle" class="inside">3</text>
<rect x="820.0" y="193" width="120.0" height="26" fill="#d8dee4"/>
<text x="880.0" y="211" text-anchor="middle" class="inside">4</text>
<text x="948" y="212" class="num">n=23</text>
<text x="238" y="254" text-anchor="end" class="label">週3回確認: 週2回通院+週1回訪問看護</text>
<rect x="250.0" y="235" width="323.0" height="26" fill="#2f7d8c"/>
<text x="411.5" y="253" text-anchor="middle" class="inside">22</text>
<rect x="573.0" y="235" width="220.2" height="26" fill="#b7d5da"/>
<text x="683.1" y="253" text-anchor="middle" class="inside">15</text>
<rect x="793.2" y="235" width="102.8" height="26" fill="#c47f4f"/>
<text x="844.6" y="253" text-anchor="middle" class="inside">7</text>
<rect x="896.0" y="235" width="44.0" height="26" fill="#d8dee4"/>
<text x="918.0" y="253" text-anchor="middle" class="inside">3</text>
<text x="948" y="254" class="num">n=47</text>
<text x="238" y="296" text-anchor="end" class="label">週3回確認: 週1回通院+週2回訪問看護</text>
<rect x="250.0" y="277" width="200.7" height="26" fill="#2f7d8c"/>
<text x="350.4" y="295" text-anchor="middle" class="inside">32</text>
<rect x="450.7" y="277" width="194.5" height="26" fill="#b7d5da"/>
<text x="548.0" y="295" text-anchor="middle" class="inside">31</text>
<rect x="645.2" y="277" width="175.6" height="26" fill="#c47f4f"/>
<text x="733.0" y="295" text-anchor="middle" class="inside">28</text>
<rect x="820.8" y="277" width="119.2" height="26" fill="#d8dee4"/>
<text x="880.4" y="295" text-anchor="middle" class="inside">19</text>
<text x="948" y="296" class="num">n=110</text>
<text x="238" y="338" text-anchor="end" class="label">週2回確認: 週2回通院</text>
<rect x="250.0" y="319" width="249.6" height="26" fill="#2f7d8c"/>
<text x="374.8" y="337" text-anchor="middle" class="inside">17</text>
<rect x="499.6" y="319" width="367.0" height="26" fill="#b7d5da"/>
<text x="683.1" y="337" text-anchor="middle" class="inside">25</text>
<rect x="866.6" y="319" width="44.0" height="26" fill="#c47f4f"/>
<text x="888.6" y="337" text-anchor="middle" class="inside">3</text>
<rect x="910.6" y="319" width="29.4" height="26" fill="#d8dee4"/>
<text x="948" y="338" class="num">n=47</text>
<text x="238" y="380" text-anchor="end" class="label">週2回確認: 週1回通院+週1回訪問看護</text>
<rect x="250.0" y="361" width="244.6" height="26" fill="#2f7d8c"/>
<text x="372.3" y="379" text-anchor="middle" class="inside">39</text>
<rect x="494.6" y="361" width="194.5" height="26" fill="#b7d5da"/>
<text x="591.9" y="379" text-anchor="middle" class="inside">31</text>
<rect x="689.1" y="361" width="144.3" height="26" fill="#c47f4f"/>
<text x="761.2" y="379" text-anchor="middle" class="inside">23</text>
<rect x="833.4" y="361" width="106.6" height="26" fill="#d8dee4"/>
<text x="886.7" y="379" text-anchor="middle" class="inside">17</text>
<text x="948" y="380" class="num">n=110</text>
<rect x="250" y="502" width="14" height="14" fill="#2f7d8c"/>
<text x="270" y="514" class="legend">より前向きになる</text>
<rect x="430" y="502" width="14" height="14" fill="#b7d5da"/>
<text x="450" y="514" class="legend">変わらない</text>
<rect x="610" y="502" width="14" height="14" fill="#c47f4f"/>
<text x="630" y="514" class="legend">むしろ後ろ向きになる</text>
<rect x="790" y="502" width="14" height="14" fill="#d8dee4"/>
<text x="810" y="514" class="legend">わからない</text>
</svg>