<svg xmlns="http://www.w3.org/2000/svg" width="980" height="560" viewBox="0 0 980 560" role="img">
<style>
.title{font:700 19px -apple-system,BlinkMacSystemFont,"Segoe UI",sans-serif;fill:#1f2933}
.label{font:600 14px -apple-system,BlinkMacSystemFont,"Segoe UI",sans-serif;fill:#24323d}
.num{font:600 13px -apple-system,BlinkMacSystemFont,"Segoe UI",sans-serif;fill:#24323d}
.axis,.legend,.note{font:12px -apple-system,BlinkMacSystemFont,"Segoe UI",sans-serif;fill:#52616b}
.inside{font:700 13px -apple-system,BlinkMacSystemFont,"Segoe UI",sans-serif;fill:white}
.big{font:700 34px -apple-system,BlinkMacSystemFont,"Segoe UI",sans-serif;fill:#1f2933}
</style>
<rect width="100%" height="100%" fill="white"/>
<text x="250" y="30" class="title">図5. 通院OK者における訪問看護追加の影響</text>
<text x="238" y="86" text-anchor="end" class="label">週5回確認: 週3回通院+週2回訪問看護</text>
<rect x="250.0" y="67" width="254.2" height="26" fill="#2f7d8c"/>
<text x="377.1" y="85" text-anchor="middle" class="inside">14</text>
<rect x="504.2" y="67" width="199.7" height="26" fill="#b7d5da"/>
<text x="604.1" y="85" text-anchor="middle" class="inside">11</text>
<rect x="703.9" y="67" width="145.3" height="26" fill="#c47f4f"/>
<text x="776.6" y="85" text-anchor="middle" class="inside">8</text>
<rect x="849.2" y="67" width="90.8" height="26" fill="#d8dee4"/>
<text x="894.6" y="85" text-anchor="middle" class="inside">5</text>
<text x="948" y="86" class="num">n=38</text>
<text x="238" y="128" text-anchor="end" class="label">週5回確認: 週2回通院+週3回訪問看護</text>
<rect x="250.0" y="109" width="134.6" height="26" fill="#2f7d8c"/>
<text x="317.3" y="127" text-anchor="middle" class="inside">8</text>
<rect x="384.6" y="109" width="286.1" height="26" fill="#b7d5da"/>
<text x="527.7" y="127" text-anchor="middle" class="inside">17</text>
<rect x="670.7" y="109" width="185.1" height="26" fill="#c47f4f"/>
<text x="763.3" y="127" text-anchor="middle" class="inside">11</text>
<rect x="855.9" y="109" width="84.1" height="26" fill="#d8dee4"/>
<text x="897.9" y="127" text-anchor="middle" class="inside">5</text>
<text x="948" y="128" class="num">n=41</text>
<text x="238" y="170" text-anchor="end" class="label">週5回確認: 週1回通院+週4回訪問看護</text>
<rect x="250.0" y="151" width="295.7" height="26" fill="#2f7d8c"/>
<text x="397.9" y="169" text-anchor="middle" class="inside">15</text>
<rect x="545.7" y="151" width="138.0" height="26" fill="#b7d5da"/>
<text x="614.7" y="169" text-anchor="middle" class="inside">7</text>
<rect x="683.7" y="151" width="98.6" height="26" fill="#c47f4f"/>
<text x="733.0" y="169" text-anchor="middle" class="inside">5</text>
<rect x="782.3" y="151" width="157.7" height="26" fill="#d8dee4"/>
<text x="861.1" y="169" text-anchor="middle" class="inside">8</text>
<text x="948" y="170" class="num">n=35</text>
<text x="238" y="212" text-anchor="end" class="label">週3回確認: 週2回通院+週1回訪問看護</text>
<rect x="250.0" y="193" width="235.6" height="26" fill="#2f7d8c"/>
<text x="367.8" y="211" text-anchor="middle" class="inside">14</text>
<rect x="485.6" y="193" width="202.0" height="26" fill="#b7d5da"/>
<text x="586.6" y="211" text-anchor="middle" class="inside">12</text>
<rect x="687.6" y="193" width="168.3" height="26" fill="#c47f4f"/>
<text x="771.7" y="211" text-anchor="middle" class="inside">10</text>
<rect x="855.9" y="193" width="84.1" height="26" fill="#d8dee4"/>
<text x="897.9" y="211" text-anchor="middle" class="inside">5</text>
<text x="948" y="212" class="num">n=41</text>
<text x="238" y="254" text-anchor="end" class="label">週3回確認: 週1回通院+週2回訪問看護</text>
<rect x="250.0" y="235" width="236.6" height="26" fill="#2f7d8c"/>
<text x="368.3" y="253" text-anchor="middle" class="inside">12</text>
<rect x="486.6" y="235" width="236.6" height="26" fill="#b7d5da"/>
<text x="604.9" y="253" text-anchor="middle" class="inside">12</text>
<rect x="723.1" y="235" width="118.3" height="26" fill="#c47f4f"/>
<text x="782.3" y="253" text-anchor="middle" class="inside">6</text>
<rect x="841.4" y="235" width="98.6" height="26" fill="#d8dee4"/>
<text x="890.7" y="253" text-anchor="middle" class="inside">5</text>
<text x="948" y="254" class="num">n=35</text>
<text x="238" y="296" text-anchor="end" class="label">週2回確認: 週1回通院+週1回訪問看護</text>
<rect x="250.0" y="277" width="138.0" height="26" fill="#2f7d8c"/>
<text x="319.0" y="295" text-anchor="middle" class="inside">7</text>
<rect x="388.0" y="277" width="315.4" height="26" fill="#b7d5da"/>
<text x="545.7" y="295" text-anchor="middle" class="inside">16</text>
<rect x="703.4" y="277" width="157.7" height="26" fill="#c47f4f"/>
<text x="782.3" y="295" text-anchor="middle" class="inside">8</text>
<rect x="861.1" y="277" width="78.9" height="26" fill="#d8dee4"/>
<text x="900.6" y="295" text-anchor="middle" class="inside">4</text>
<text x="948" y="296" class="num">n=35</text>
<rect x="250" y="502" width="14" height="14" fill="#2f7d8c"/>
<text x="270" y="514" class="legend">より前向き</text>
<rect x="430" y="502" width="14" height="14" fill="#b7d5da"/>
<text x="450" y="514" class="legend">あまり変わらない</text>
<rect x="610" y="502" width="14" height="14" fill="#c47f4f"/>
<text x="630" y="514" class="legend">むしろ難しい</text>
<rect x="790" y="502" width="14" height="14" fill="#d8dee4"/>
<text x="810" y="514" class="legend">わからない</text>
</svg>