<svg xmlns="http://www.w3.org/2000/svg" width="1040" height="1226" viewBox="0 0 1040 1226" role="img">
<style>
.title{font:700 19px -apple-system,BlinkMacSystemFont,"Segoe UI",sans-serif;fill:#1f2933}
.label{font:600 14px -apple-system,BlinkMacSystemFont,"Segoe UI",sans-serif;fill:#24323d}
.num{font:600 13px -apple-system,BlinkMacSystemFont,"Segoe UI",sans-serif;fill:#24323d}
.axis,.legend,.note{font:12px -apple-system,BlinkMacSystemFont,"Segoe UI",sans-serif;fill:#52616b}
.inside{font:700 13px -apple-system,BlinkMacSystemFont,"Segoe UI",sans-serif;fill:white}
.big{font:700 34px -apple-system,BlinkMacSystemFont,"Segoe UI",sans-serif;fill:#1f2933}
</style>
<rect width="100%" height="100%" fill="white"/>
<text x="310" y="30" class="title">図8. 医師が外来導入受容性を過小評価しやすい患者・医師要因</text>
<line x1="310.0" y1="48" x2="310.0" y2="1172" stroke="#e5eaf0" stroke-width="1"/>
<text x="310.0" y="1204" text-anchor="middle" class="axis">0.25</text>
<line x1="435.0" y1="48" x2="435.0" y2="1172" stroke="#e5eaf0" stroke-width="1"/>
<text x="435.0" y="1204" text-anchor="middle" class="axis">0.5</text>
<line x1="560.0" y1="48" x2="560.0" y2="1172" stroke="#1f2933" stroke-width="1.4"/>
<text x="560.0" y="1204" text-anchor="middle" class="axis">1</text>
<line x1="685.0" y1="48" x2="685.0" y2="1172" stroke="#e5eaf0" stroke-width="1"/>
<text x="685.0" y="1204" text-anchor="middle" class="axis">2</text>
<line x1="810.0" y1="48" x2="810.0" y2="1172" stroke="#e5eaf0" stroke-width="1"/>
<text x="810.0" y="1204" text-anchor="middle" class="axis">4</text>
<text x="298" y="64" text-anchor="end" class="label">A. 患者要因</text>
<line x1="310" y1="70" x2="810" y2="70" stroke="#d8dee4"/>
<text x="298" y="106" text-anchor="end" class="label">現在の状態で回答</text>
<line x1="506.4" y1="100" x2="724.0" y2="100" stroke="#2f7d8c" stroke-width="2"/>
<circle cx="615.2" cy="100" r="5.5" fill="#2f7d8c"/>
<text x="828" y="105" class="num">1.36 (0.74-2.48)</text>
<text x="932" y="105" class="axis">32/73</text>
<text x="298" y="148" text-anchor="end" class="label">臨床家評価mGAF-F 40以下</text>
<line x1="506.4" y1="142" x2="724.0" y2="142" stroke="#2f7d8c" stroke-width="2"/>
<circle cx="615.2" cy="142" r="5.5" fill="#2f7d8c"/>
<text x="828" y="147" class="num">1.36 (0.74-2.48)</text>
<text x="932" y="147" class="axis">32/73</text>
<text x="298" y="190" text-anchor="end" class="label">現在治療で困りごとあり</text>
<line x1="501.7" y1="184" x2="726.6" y2="184" stroke="#2f7d8c" stroke-width="2"/>
<circle cx="614.1" cy="184" r="5.5" fill="#2f7d8c"/>
<text x="828" y="189" class="num">1.35 (0.72-2.52)</text>
<text x="932" y="189" class="axis">48/114</text>
<text x="298" y="232" text-anchor="end" class="label">主観的困りごと/つらさあり</text>
<line x1="533.2" y1="226" x2="758.8" y2="226" stroke="#2f7d8c" stroke-width="2"/>
<circle cx="646.0" cy="226" r="5.5" fill="#2f7d8c"/>
<text x="828" y="231" class="num">1.61 (0.86-3.01)</text>
<text x="932" y="231" class="axis">49/112</text>
<text x="298" y="274" text-anchor="end" class="label">入院導入は前向きに考えにくい</text>
<line x1="397.1" y1="268" x2="612.5" y2="268" stroke="#2f7d8c" stroke-width="2"/>
<circle cx="504.8" cy="268" r="5.5" fill="#2f7d8c"/>
<text x="828" y="273" class="num">0.74 (0.41-1.34)</text>
<text x="932" y="273" class="axis">31/87</text>
<text x="298" y="316" text-anchor="end" class="label">外来週1回通院なら受容</text>
<line x1="624.4" y1="310" x2="810.0" y2="310" stroke="#2f7d8c" stroke-width="2"/>
<circle cx="753.4" cy="310" r="5.5" fill="#2f7d8c"/>
<text x="828" y="315" class="num">2.92 (1.43-5.98)</text>
<text x="932" y="315" class="axis">24/40</text>
<text x="298" y="358" text-anchor="end" class="label">週5回確認まで受容</text>
<line x1="648.2" y1="352" x2="810.0" y2="352" stroke="#2f7d8c" stroke-width="2"/>
<circle cx="784.0" cy="352" r="5.5" fill="#2f7d8c"/>
<text x="828" y="357" class="num">3.46 (1.63-7.35)</text>
<text x="932" y="357" class="axis">23/36</text>
<text x="298" y="400" text-anchor="end" class="label">副作用懸念が強い（最大4以上）</text>
<line x1="513.6" y1="394" x2="810.0" y2="394" stroke="#2f7d8c" stroke-width="2"/>
<circle cx="810.0" cy="394" r="5.5" fill="#2f7d8c"/>
<text x="828" y="399" class="num">4.44 (0.77-25.53)</text>
<text x="932" y="399" class="axis">70/170</text>
<text x="298" y="442" text-anchor="end" class="label">有効性は十分（4以上）</text>
<line x1="454.6" y1="436" x2="668.9" y2="436" stroke="#2f7d8c" stroke-width="2"/>
<circle cx="561.7" cy="436" r="5.5" fill="#2f7d8c"/>
<text x="828" y="441" class="num">1.01 (0.56-1.83)</text>
<text x="932" y="441" class="axis">36/91</text>
<text x="298" y="484" text-anchor="end" class="label">過去拒否記載あり</text>
<line x1="310.0" y1="478" x2="536.4" y2="478" stroke="#2f7d8c" stroke-width="2"/>
<circle cx="378.9" cy="478" r="5.5" fill="#2f7d8c"/>
<text x="828" y="483" class="num">0.37 (0.15-0.88)</text>
<text x="932" y="483" class="axis">7/33</text>
<text x="298" y="526" text-anchor="end" class="label">日中活動あり</text>
<line x1="504.8" y1="520" x2="724.5" y2="520" stroke="#2f7d8c" stroke-width="2"/>
<circle cx="614.7" cy="520" r="5.5" fill="#2f7d8c"/>
<text x="828" y="525" class="num">1.35 (0.74-2.49)</text>
<text x="932" y="525" class="axis">45/106</text>
<text x="298" y="568" text-anchor="end" class="label">同居家族から支援あり</text>
<line x1="465.9" y1="562" x2="727.0" y2="562" stroke="#2f7d8c" stroke-width="2"/>
<circle cx="596.4" cy="562" r="5.5" fill="#2f7d8c"/>
<text x="828" y="567" class="num">1.22 (0.59-2.52)</text>
<text x="932" y="567" class="axis">16/37</text>
<text x="298" y="610" text-anchor="end" class="label">ケア役割あり</text>
<line x1="459.3" y1="604" x2="725.8" y2="604" stroke="#2f7d8c" stroke-width="2"/>
<circle cx="592.5" cy="604" r="5.5" fill="#2f7d8c"/>
<text x="828" y="609" class="num">1.20 (0.57-2.51)</text>
<text x="932" y="609" class="axis">15/35</text>
<text x="298" y="652" text-anchor="end" class="label">通院片道60分以上</text>
<line x1="404.9" y1="646" x2="676.0" y2="646" stroke="#2f7d8c" stroke-width="2"/>
<circle cx="540.5" cy="646" r="5.5" fill="#2f7d8c"/>
<text x="828" y="651" class="num">0.90 (0.42-1.90)</text>
<text x="932" y="651" class="axis">13/35</text>
<text x="298" y="694" text-anchor="end" class="label">訪問看護を現在利用</text>
<line x1="443.6" y1="688" x2="689.7" y2="688" stroke="#2f7d8c" stroke-width="2"/>
<circle cx="566.6" cy="688" r="5.5" fill="#2f7d8c"/>
<text x="828" y="693" class="num">1.04 (0.52-2.05)</text>
<text x="932" y="693" class="axis">18/45</text>
<text x="298" y="736" text-anchor="end" class="label">生活保護あり</text>
<line x1="485.3" y1="730" x2="750.8" y2="730" stroke="#2f7d8c" stroke-width="2"/>
<circle cx="618.1" cy="730" r="5.5" fill="#2f7d8c"/>
<text x="828" y="735" class="num">1.38 (0.66-2.88)</text>
<text x="932" y="735" class="axis">16/35</text>
<text x="298" y="778" text-anchor="end" class="label">経済的にかなり困る</text>
<line x1="413.8" y1="772" x2="671.8" y2="772" stroke="#2f7d8c" stroke-width="2"/>
<circle cx="542.8" cy="772" r="5.5" fill="#2f7d8c"/>
<text x="828" y="777" class="num">0.91 (0.44-1.86)</text>
<text x="932" y="777" class="axis">15/40</text>
<text x="298" y="820" text-anchor="end" class="label">B. 医師要因</text>
<line x1="310" y1="826" x2="810" y2="826" stroke="#d8dee4"/>
<text x="298" y="862" text-anchor="end" class="label">精神科経験15年以上</text>
<line x1="466.4" y1="856" x2="682.2" y2="856" stroke="#2f7d8c" stroke-width="2"/>
<circle cx="574.3" cy="856" r="5.5" fill="#2f7d8c"/>
<text x="828" y="861" class="num">1.08 (0.60-1.97)</text>
<text x="932" y="861" class="axis">32/79</text>
<text x="298" y="904" text-anchor="end" class="label">精神科専門医</text>
<line x1="432.0" y1="898" x2="659.4" y2="898" stroke="#2f7d8c" stroke-width="2"/>
<circle cx="545.7" cy="898" r="5.5" fill="#2f7d8c"/>
<text x="828" y="903" class="num">0.92 (0.49-1.74)</text>
<text x="932" y="903" class="axis">47/121</text>
<text x="298" y="946" text-anchor="end" class="label">精神保健指定医</text>
<line x1="463.4" y1="940" x2="684.7" y2="940" stroke="#2f7d8c" stroke-width="2"/>
<circle cx="574.1" cy="940" r="5.5" fill="#2f7d8c"/>
<text x="828" y="945" class="num">1.08 (0.59-2.00)</text>
<text x="932" y="945" class="axis">45/112</text>
<text x="298" y="988" text-anchor="end" class="label">クロザピン導入3例以上</text>
<line x1="439.5" y1="982" x2="684.5" y2="982" stroke="#2f7d8c" stroke-width="2"/>
<circle cx="562.0" cy="982" r="5.5" fill="#2f7d8c"/>
<text x="828" y="987" class="num">1.01 (0.51-1.99)</text>
<text x="932" y="987" class="axis">53/134</text>
<text x="298" y="1030" text-anchor="end" class="label">現在担当クロザピン患者3名以上</text>
<line x1="461.2" y1="1024" x2="677.0" y2="1024" stroke="#2f7d8c" stroke-width="2"/>
<circle cx="569.1" cy="1024" r="5.5" fill="#2f7d8c"/>
<text x="828" y="1029" class="num">1.05 (0.58-1.91)</text>
<text x="932" y="1029" class="axis">40/100</text>
<text x="298" y="1072" text-anchor="end" class="label">医師の外来導入推奨率が高い</text>
<line x1="482.6" y1="1066" x2="699.9" y2="1066" stroke="#2f7d8c" stroke-width="2"/>
<circle cx="591.2" cy="1066" r="5.5" fill="#2f7d8c"/>
<text x="828" y="1071" class="num">1.19 (0.65-2.17)</text>
<text x="932" y="1071" class="axis">31/74</text>
<text x="298" y="1114" text-anchor="end" class="label">stably unwell理由選択率が高い</text>
<line x1="481.7" y1="1108" x2="701.3" y2="1108" stroke="#2f7d8c" stroke-width="2"/>
<circle cx="591.5" cy="1108" r="5.5" fill="#2f7d8c"/>
<text x="828" y="1113" class="num">1.19 (0.65-2.19)</text>
<text x="932" y="1113" class="axis">29/69</text>
<text x="298" y="1156" text-anchor="end" class="label">患者拒否見込み理由選択率が高い</text>
<line x1="396.3" y1="1150" x2="629.3" y2="1150" stroke="#2f7d8c" stroke-width="2"/>
<circle cx="512.8" cy="1150" r="5.5" fill="#2f7d8c"/>
<text x="828" y="1155" class="num">0.77 (0.40-1.47)</text>
<text x="932" y="1155" class="axis">20/57</text>
<text x="560.0" y="1218" text-anchor="middle" class="axis">Odds ratio（対数軸）</text>
<text x="828" y="34" class="axis">OR (95% CI)</text>
<text x="932" y="34" class="axis">該当者中の過小評価</text>
</svg>