<svg xmlns="http://www.w3.org/2000/svg" width="980" height="532" viewBox="0 0 980 532" role="img">
<style>
.title{font:700 19px -apple-system,BlinkMacSystemFont,"Segoe UI",sans-serif;fill:#1f2933}
.label{font:600 14px -apple-system,BlinkMacSystemFont,"Segoe UI",sans-serif;fill:#24323d}
.num{font:600 13px -apple-system,BlinkMacSystemFont,"Segoe UI",sans-serif;fill:#24323d}
.axis,.legend,.note{font:12px -apple-system,BlinkMacSystemFont,"Segoe UI",sans-serif;fill:#52616b}
.inside{font:700 13px -apple-system,BlinkMacSystemFont,"Segoe UI",sans-serif;fill:white}
.big{font:700 34px -apple-system,BlinkMacSystemFont,"Segoe UI",sans-serif;fill:#1f2933}
</style>
<rect width="100%" height="100%" fill="white"/>
<text x="310" y="30" class="title">図8. 医師が外来導入受容性を過小評価しやすい患者特徴</text>
<line x1="310.0" y1="48" x2="310.0" y2="478" stroke="#e5eaf0" stroke-width="1"/>
<text x="310.0" y="510" text-anchor="middle" class="axis">0.25</text>
<line x1="420.0" y1="48" x2="420.0" y2="478" stroke="#e5eaf0" stroke-width="1"/>
<text x="420.0" y="510" text-anchor="middle" class="axis">0.5</text>
<line x1="530.0" y1="48" x2="530.0" y2="478" stroke="#1f2933" stroke-width="1.4"/>
<text x="530.0" y="510" text-anchor="middle" class="axis">1</text>
<line x1="640.0" y1="48" x2="640.0" y2="478" stroke="#e5eaf0" stroke-width="1"/>
<text x="640.0" y="510" text-anchor="middle" class="axis">2</text>
<line x1="750.0" y1="48" x2="750.0" y2="478" stroke="#e5eaf0" stroke-width="1"/>
<text x="750.0" y="510" text-anchor="middle" class="axis">4</text>
<text x="298" y="64" text-anchor="end" class="label">現在の状態で回答</text>
<line x1="411.8" y1="58" x2="611.1" y2="58" stroke="#2f7d8c" stroke-width="2"/>
<circle cx="511.5" cy="58" r="5.5" fill="#2f7d8c"/>
<text x="768" y="63" class="num">0.89 (0.47-1.67)</text>
<text x="872" y="63" class="axis">23/64</text>
<text x="298" y="108" text-anchor="end" class="label">臨床家評価mGAF-F 40以下</text>
<line x1="411.8" y1="102" x2="611.1" y2="102" stroke="#2f7d8c" stroke-width="2"/>
<circle cx="511.5" cy="102" r="5.5" fill="#2f7d8c"/>
<text x="768" y="107" class="num">0.89 (0.47-1.67)</text>
<text x="872" y="107" class="axis">23/64</text>
<text x="298" y="152" text-anchor="end" class="label">現在治療で困りごとあり</text>
<line x1="399.2" y1="146" x2="592.8" y2="146" stroke="#2f7d8c" stroke-width="2"/>
<circle cx="496.0" cy="146" r="5.5" fill="#2f7d8c"/>
<text x="768" y="151" class="num">0.81 (0.44-1.49)</text>
<text x="872" y="151" class="axis">39/109</text>
<text x="298" y="196" text-anchor="end" class="label">主観的困りごと/つらさあり</text>
<line x1="519.5" y1="190" x2="712.9" y2="190" stroke="#2f7d8c" stroke-width="2"/>
<circle cx="616.2" cy="190" r="5.5" fill="#2f7d8c"/>
<text x="768" y="195" class="num">1.72 (0.94-3.17)</text>
<text x="872" y="195" class="axis">42/96</text>
<text x="298" y="240" text-anchor="end" class="label">入院導入は前向きに考えにくい</text>
<line x1="420.1" y1="234" x2="610.3" y2="234" stroke="#2f7d8c" stroke-width="2"/>
<circle cx="515.2" cy="234" r="5.5" fill="#2f7d8c"/>
<text x="768" y="239" class="num">0.91 (0.50-1.66)</text>
<text x="872" y="239" class="axis">33/90</text>
<text x="298" y="284" text-anchor="end" class="label">外来週1回通院なら受容</text>
<line x1="611.6" y1="278" x2="750.0" y2="278" stroke="#2f7d8c" stroke-width="2"/>
<circle cx="727.1" cy="278" r="5.5" fill="#2f7d8c"/>
<text x="768" y="283" class="num">3.46 (1.67-7.17)</text>
<text x="872" y="283" class="axis">24/39</text>
<text x="298" y="328" text-anchor="end" class="label">週5回確認まで受容</text>
<line x1="694.3" y1="322" x2="750.0" y2="322" stroke="#2f7d8c" stroke-width="2"/>
<circle cx="750.0" cy="322" r="5.5" fill="#2f7d8c"/>
<text x="768" y="327" class="num">6.00 (2.82-12.80)</text>
<text x="872" y="327" class="axis">29/41</text>
<text x="298" y="372" text-anchor="end" class="label">副作用懸念が強い（最大4以上）</text>
<line x1="362.9" y1="366" x2="645.4" y2="366" stroke="#2f7d8c" stroke-width="2"/>
<circle cx="504.2" cy="366" r="5.5" fill="#2f7d8c"/>
<text x="768" y="371" class="num">0.85 (0.35-2.07)</text>
<text x="872" y="371" class="axis">59/158</text>
<text x="298" y="416" text-anchor="end" class="label">有効性は十分（4以上）</text>
<line x1="464.5" y1="410" x2="654.8" y2="410" stroke="#2f7d8c" stroke-width="2"/>
<circle cx="559.7" cy="410" r="5.5" fill="#2f7d8c"/>
<text x="768" y="415" class="num">1.21 (0.66-2.20)</text>
<text x="872" y="415" class="axis">36/90</text>
<text x="298" y="460" text-anchor="end" class="label">過去拒否記載あり</text>
<line x1="310.0" y1="454" x2="548.6" y2="454" stroke="#2f7d8c" stroke-width="2"/>
<circle cx="376.8" cy="454" r="5.5" fill="#2f7d8c"/>
<text x="768" y="459" class="num">0.38 (0.13-1.12)</text>
<text x="872" y="459" class="axis">4/21</text>
<text x="530.0" y="524" text-anchor="middle" class="axis">Odds ratio（対数軸）</text>
<text x="768" y="34" class="axis">OR (95% CI)</text>
<text x="872" y="34" class="axis">該当者中の過小評価</text>
</svg>