<svg xmlns="http://www.w3.org/2000/svg" width="1040" height="764" viewBox="0 0 1040 764" role="img">
<style>
.title{font:700 19px -apple-system,BlinkMacSystemFont,"Segoe UI",sans-serif;fill:#1f2933}
.label{font:600 14px -apple-system,BlinkMacSystemFont,"Segoe UI",sans-serif;fill:#24323d}
.num{font:600 13px -apple-system,BlinkMacSystemFont,"Segoe UI",sans-serif;fill:#24323d}
.axis,.legend,.note{font:12px -apple-system,BlinkMacSystemFont,"Segoe UI",sans-serif;fill:#52616b}
.inside{font:700 13px -apple-system,BlinkMacSystemFont,"Segoe UI",sans-serif;fill:white}
.big{font:700 34px -apple-system,BlinkMacSystemFont,"Segoe UI",sans-serif;fill:#1f2933}
</style>
<rect width="100%" height="100%" fill="white"/>
<text x="310" y="30" class="title">図9. ベースライン情報でみる医師予測の過小評価要因</text>
<line x1="310.0" y1="48" x2="310.0" y2="710" stroke="#e5eaf0" stroke-width="1"/>
<text x="310.0" y="742" text-anchor="middle" class="axis">0.25</text>
<line x1="435.0" y1="48" x2="435.0" y2="710" stroke="#e5eaf0" stroke-width="1"/>
<text x="435.0" y="742" text-anchor="middle" class="axis">0.5</text>
<line x1="560.0" y1="48" x2="560.0" y2="710" stroke="#1f2933" stroke-width="1.4"/>
<text x="560.0" y="742" text-anchor="middle" class="axis">1</text>
<line x1="685.0" y1="48" x2="685.0" y2="710" stroke="#e5eaf0" stroke-width="1"/>
<text x="685.0" y="742" text-anchor="middle" class="axis">2</text>
<line x1="810.0" y1="48" x2="810.0" y2="710" stroke="#e5eaf0" stroke-width="1"/>
<text x="810.0" y="742" text-anchor="middle" class="axis">4</text>
<text x="298" y="64" text-anchor="end" class="label">A. 患者要因</text>
<line x1="310" y1="70" x2="810" y2="70" stroke="#d8dee4"/>
<text x="298" y="106" text-anchor="end" class="label">65歳以上</text>
<line x1="528.8" y1="100" x2="810.0" y2="100" stroke="#2f7d8c" stroke-width="2"/>
<circle cx="735.4" cy="100" r="5.5" fill="#2f7d8c"/>
<text x="828" y="105" class="num">2.64 (0.84-8.31)</text>
<text x="932" y="105" class="axis">7/12</text>
<text x="298" y="148" text-anchor="end" class="label">臨床家評価mGAF-F 40以下</text>
<line x1="391.1" y1="142" x2="625.8" y2="142" stroke="#2f7d8c" stroke-width="2"/>
<circle cx="508.4" cy="142" r="5.5" fill="#2f7d8c"/>
<text x="828" y="147" class="num">0.75 (0.39-1.44)</text>
<text x="932" y="147" class="axis">19/61</text>
<text x="298" y="190" text-anchor="end" class="label">過去拒否記載あり</text>
<line x1="310.0" y1="184" x2="636.7" y2="184" stroke="#2f7d8c" stroke-width="2"/>
<circle cx="465.3" cy="184" r="5.5" fill="#2f7d8c"/>
<text x="828" y="189" class="num">0.59 (0.23-1.53)</text>
<text x="932" y="189" class="axis">6/24</text>
<text x="298" y="232" text-anchor="end" class="label">日中活動あり</text>
<line x1="373.3" y1="226" x2="593.2" y2="226" stroke="#2f7d8c" stroke-width="2"/>
<circle cx="483.2" cy="226" r="5.5" fill="#2f7d8c"/>
<text x="828" y="231" class="num">0.65 (0.36-1.20)</text>
<text x="932" y="231" class="axis">29/94</text>
<text x="298" y="274" text-anchor="end" class="label">同居家族から支援あり</text>
<line x1="486.4" y1="268" x2="752.6" y2="268" stroke="#2f7d8c" stroke-width="2"/>
<circle cx="619.5" cy="268" r="5.5" fill="#2f7d8c"/>
<text x="828" y="273" class="num">1.39 (0.67-2.91)</text>
<text x="932" y="273" class="axis">15/36</text>
<text x="298" y="316" text-anchor="end" class="label">ケア役割あり</text>
<line x1="466.5" y1="310" x2="708.0" y2="310" stroke="#2f7d8c" stroke-width="2"/>
<circle cx="587.3" cy="310" r="5.5" fill="#2f7d8c"/>
<text x="828" y="315" class="num">1.16 (0.60-2.27)</text>
<text x="932" y="315" class="axis">19/50</text>
<text x="298" y="358" text-anchor="end" class="label">通院片道60分以上</text>
<line x1="365.3" y1="352" x2="643.2" y2="352" stroke="#2f7d8c" stroke-width="2"/>
<circle cx="504.3" cy="352" r="5.5" fill="#2f7d8c"/>
<text x="828" y="357" class="num">0.73 (0.34-1.59)</text>
<text x="932" y="357" class="axis">11/37</text>
<text x="298" y="400" text-anchor="end" class="label">訪問看護を現在利用</text>
<line x1="435.9" y1="394" x2="687.4" y2="394" stroke="#2f7d8c" stroke-width="2"/>
<circle cx="561.6" cy="394" r="5.5" fill="#2f7d8c"/>
<text x="828" y="399" class="num">1.01 (0.50-2.03)</text>
<text x="932" y="399" class="axis">16/45</text>
<text x="298" y="442" text-anchor="end" class="label">経済的にかなり困る</text>
<line x1="508.8" y1="436" x2="788.0" y2="436" stroke="#2f7d8c" stroke-width="2"/>
<circle cx="648.4" cy="436" r="5.5" fill="#2f7d8c"/>
<text x="828" y="441" class="num">1.63 (0.75-3.54)</text>
<text x="932" y="441" class="axis">14/31</text>
<text x="298" y="484" text-anchor="end" class="label">B. 医師要因</text>
<line x1="310" y1="490" x2="810" y2="490" stroke="#d8dee4"/>
<text x="298" y="526" text-anchor="end" class="label">精神科経験15年以上</text>
<line x1="393.3" y1="520" x2="622.6" y2="520" stroke="#2f7d8c" stroke-width="2"/>
<circle cx="508.0" cy="520" r="5.5" fill="#2f7d8c"/>
<text x="828" y="525" class="num">0.75 (0.40-1.42)</text>
<text x="932" y="525" class="axis">21/67</text>
<text x="298" y="568" text-anchor="end" class="label">精神科専門医</text>
<line x1="372.5" y1="562" x2="593.7" y2="562" stroke="#2f7d8c" stroke-width="2"/>
<circle cx="483.1" cy="562" r="5.5" fill="#2f7d8c"/>
<text x="828" y="567" class="num">0.65 (0.35-1.21)</text>
<text x="932" y="567" class="axis">33/105</text>
<text x="298" y="610" text-anchor="end" class="label">精神保健指定医</text>
<line x1="409.7" y1="604" x2="628.8" y2="604" stroke="#2f7d8c" stroke-width="2"/>
<circle cx="519.3" cy="604" r="5.5" fill="#2f7d8c"/>
<text x="828" y="609" class="num">0.80 (0.43-1.46)</text>
<text x="932" y="609" class="axis">30/91</text>
<text x="298" y="652" text-anchor="end" class="label">クロザピン導入3例以上</text>
<line x1="362.4" y1="646" x2="603.1" y2="646" stroke="#2f7d8c" stroke-width="2"/>
<circle cx="482.7" cy="646" r="5.5" fill="#2f7d8c"/>
<text x="828" y="651" class="num">0.65 (0.33-1.27)</text>
<text x="932" y="651" class="axis">43/131</text>
<text x="298" y="694" text-anchor="end" class="label">現在担当クロザピン患者3名以上</text>
<line x1="434.4" y1="688" x2="653.4" y2="688" stroke="#2f7d8c" stroke-width="2"/>
<circle cx="543.9" cy="688" r="5.5" fill="#2f7d8c"/>
<text x="828" y="693" class="num">0.91 (0.50-1.68)</text>
<text x="932" y="693" class="axis">30/87</text>
<text x="560.0" y="756" text-anchor="middle" class="axis">Odds ratio（対数軸）</text>
<text x="828" y="34" class="axis">OR (95% CI)</text>
<text x="932" y="34" class="axis">該当者中の過小評価</text>
</svg>