<svg xmlns="http://www.w3.org/2000/svg" width="900" height="380" viewBox="0 0 900 380" role="img">
<style>
.title{font:700 19px -apple-system,BlinkMacSystemFont,"Segoe UI",sans-serif;fill:#1f2933}
.label{font:600 14px -apple-system,BlinkMacSystemFont,"Segoe UI",sans-serif;fill:#24323d}
.num{font:600 13px -apple-system,BlinkMacSystemFont,"Segoe UI",sans-serif;fill:#24323d}
.axis,.legend,.note{font:12px -apple-system,BlinkMacSystemFont,"Segoe UI",sans-serif;fill:#52616b}
.inside{font:700 13px -apple-system,BlinkMacSystemFont,"Segoe UI",sans-serif;fill:white}
.big{font:700 34px -apple-system,BlinkMacSystemFont,"Segoe UI",sans-serif;fill:#1f2933}
</style>
<rect width="100%" height="100%" fill="white"/>
<text x="190" y="30" class="title">図2. 入院導入受容性別にみた外来通院頻度threshold</text>
<text x="178" y="96" text-anchor="end" class="label">入院導入を前向きに考える</text>
<rect x="190.0" y="68" width="105.9" height="36" fill="#0f766e"/>
<text x="243.0" y="91" text-anchor="middle" class="inside">13</text>
<rect x="295.9" y="68" width="203.7" height="36" fill="#2f7d8c"/>
<text x="397.7" y="91" text-anchor="middle" class="inside">25</text>
<rect x="499.6" y="68" width="195.5" height="36" fill="#8bbbc3"/>
<text x="597.3" y="91" text-anchor="middle" class="inside">24</text>
<rect x="695.1" y="68" width="162.9" height="36" fill="#d8dee4"/>
<text x="776.5" y="91" text-anchor="middle" class="inside">20</text>
<text x="866" y="91" class="num">n=82</text>
<text x="178" y="172" text-anchor="end" class="label">入院導入を前向きに考えにくい</text>
<rect x="190.0" y="144" width="102.2" height="36" fill="#0f766e"/>
<text x="241.1" y="167" text-anchor="middle" class="inside">15</text>
<rect x="292.2" y="144" width="150.0" height="36" fill="#2f7d8c"/>
<text x="367.2" y="167" text-anchor="middle" class="inside">22</text>
<rect x="442.2" y="144" width="150.0" height="36" fill="#8bbbc3"/>
<text x="517.2" y="167" text-anchor="middle" class="inside">22</text>
<rect x="592.2" y="144" width="265.8" height="36" fill="#d8dee4"/>
<text x="725.1" y="167" text-anchor="middle" class="inside">39</text>
<text x="866" y="167" class="num">n=98</text>
<rect x="190" y="322" width="14" height="14" fill="#0f766e"/>
<text x="210" y="334" class="legend">週3回通院なら受容</text>
<rect x="360" y="322" width="14" height="14" fill="#2f7d8c"/>
<text x="380" y="334" class="legend">週2回通院なら受容</text>
<rect x="530" y="322" width="14" height="14" fill="#8bbbc3"/>
<text x="550" y="334" class="legend">週1回通院なら受容</text>
<rect x="700" y="322" width="14" height="14" fill="#d8dee4"/>
<text x="720" y="334" class="legend">通院のみ条件は非受容/保留</text>
</svg>