<svg xmlns="http://www.w3.org/2000/svg" width="1040" height="806" viewBox="0 0 1040 806" role="img">
<style>
.title{font:700 19px -apple-system,BlinkMacSystemFont,"Segoe UI",sans-serif;fill:#1f2933}
.label{font:600 14px -apple-system,BlinkMacSystemFont,"Segoe UI",sans-serif;fill:#24323d}
.num{font:600 13px -apple-system,BlinkMacSystemFont,"Segoe UI",sans-serif;fill:#24323d}
.axis,.legend,.note{font:12px -apple-system,BlinkMacSystemFont,"Segoe UI",sans-serif;fill:#52616b}
.inside{font:700 13px -apple-system,BlinkMacSystemFont,"Segoe UI",sans-serif;fill:white}
.big{font:700 34px -apple-system,BlinkMacSystemFont,"Segoe UI",sans-serif;fill:#1f2933}
</style>
<rect width="100%" height="100%" fill="white"/>
<text x="310" y="30" class="title">図9. ベースライン情報でみる医師予測の過小評価要因</text>
<line x1="310.0" y1="48" x2="310.0" y2="752" stroke="#e5eaf0" stroke-width="1"/>
<text x="310.0" y="784" text-anchor="middle" class="axis">0.25</text>
<line x1="435.0" y1="48" x2="435.0" y2="752" stroke="#e5eaf0" stroke-width="1"/>
<text x="435.0" y="784" text-anchor="middle" class="axis">0.5</text>
<line x1="560.0" y1="48" x2="560.0" y2="752" stroke="#1f2933" stroke-width="1.4"/>
<text x="560.0" y="784" text-anchor="middle" class="axis">1</text>
<line x1="685.0" y1="48" x2="685.0" y2="752" stroke="#e5eaf0" stroke-width="1"/>
<text x="685.0" y="784" text-anchor="middle" class="axis">2</text>
<line x1="810.0" y1="48" x2="810.0" y2="752" stroke="#e5eaf0" stroke-width="1"/>
<text x="810.0" y="784" text-anchor="middle" class="axis">4</text>
<text x="298" y="64" text-anchor="end" class="label">A. 患者要因</text>
<line x1="310" y1="70" x2="810" y2="70" stroke="#d8dee4"/>
<text x="298" y="106" text-anchor="end" class="label">65歳以上</text>
<line x1="421.9" y1="100" x2="799.9" y2="100" stroke="#2f7d8c" stroke-width="2"/>
<circle cx="610.9" cy="100" r="5.5" fill="#2f7d8c"/>
<text x="828" y="105" class="num">1.33 (0.46-3.78)</text>
<text x="932" y="105" class="axis">6/15</text>
<text x="298" y="148" text-anchor="end" class="label">過去拒否記載あり</text>
<line x1="310.0" y1="142" x2="593.8" y2="142" stroke="#2f7d8c" stroke-width="2"/>
<circle cx="448.5" cy="142" r="5.5" fill="#2f7d8c"/>
<text x="828" y="147" class="num">0.54 (0.24-1.21)</text>
<text x="932" y="147" class="axis">9/38</text>
<text x="298" y="190" text-anchor="end" class="label">低機能だが安定として抽出</text>
<line x1="464.2" y1="184" x2="701.3" y2="184" stroke="#2f7d8c" stroke-width="2"/>
<circle cx="582.8" cy="184" r="5.5" fill="#2f7d8c"/>
<text x="828" y="189" class="num">1.13 (0.59-2.19)</text>
<text x="932" y="189" class="axis">20/55</text>
<text x="298" y="232" text-anchor="end" class="label">症状残存が目立つとして抽出</text>
<line x1="419.0" y1="226" x2="649.7" y2="226" stroke="#2f7d8c" stroke-width="2"/>
<circle cx="534.3" cy="226" r="5.5" fill="#2f7d8c"/>
<text x="828" y="231" class="num">0.87 (0.46-1.64)</text>
<text x="932" y="231" class="axis">21/65</text>
<text x="298" y="274" text-anchor="end" class="label">日中活動あり</text>
<line x1="464.8" y1="268" x2="686.5" y2="268" stroke="#2f7d8c" stroke-width="2"/>
<circle cx="575.7" cy="268" r="5.5" fill="#2f7d8c"/>
<text x="828" y="273" class="num">1.09 (0.59-2.02)</text>
<text x="932" y="273" class="axis">35/99</text>
<text x="298" y="316" text-anchor="end" class="label">同居家族から支援あり</text>
<line x1="328.8" y1="310" x2="611.0" y2="310" stroke="#2f7d8c" stroke-width="2"/>
<circle cx="469.9" cy="310" r="5.5" fill="#2f7d8c"/>
<text x="828" y="315" class="num">0.61 (0.28-1.33)</text>
<text x="932" y="315" class="axis">10/39</text>
<text x="298" y="358" text-anchor="end" class="label">ケア役割あり</text>
<line x1="397.7" y1="352" x2="655.3" y2="352" stroke="#2f7d8c" stroke-width="2"/>
<circle cx="526.5" cy="352" r="5.5" fill="#2f7d8c"/>
<text x="828" y="357" class="num">0.83 (0.41-1.70)</text>
<text x="932" y="357" class="axis">14/45</text>
<text x="298" y="400" text-anchor="end" class="label">通院片道60分以上</text>
<line x1="547.9" y1="394" x2="810.0" y2="394" stroke="#2f7d8c" stroke-width="2"/>
<circle cx="687.4" cy="394" r="5.5" fill="#2f7d8c"/>
<text x="828" y="399" class="num">2.03 (0.93-4.40)</text>
<text x="932" y="399" class="axis">15/31</text>
<text x="298" y="442" text-anchor="end" class="label">訪問看護を現在利用</text>
<line x1="322.7" y1="436" x2="594.5" y2="436" stroke="#2f7d8c" stroke-width="2"/>
<circle cx="458.6" cy="436" r="5.5" fill="#2f7d8c"/>
<text x="828" y="441" class="num">0.57 (0.27-1.21)</text>
<text x="932" y="441" class="axis">11/44</text>
<text x="298" y="484" text-anchor="end" class="label">経済的にかなり困る</text>
<line x1="401.4" y1="478" x2="683.6" y2="478" stroke="#2f7d8c" stroke-width="2"/>
<circle cx="542.5" cy="478" r="5.5" fill="#2f7d8c"/>
<text x="828" y="483" class="num">0.91 (0.41-1.98)</text>
<text x="932" y="483" class="axis">11/34</text>
<text x="298" y="526" text-anchor="end" class="label">B. 医師要因</text>
<line x1="310" y1="532" x2="810" y2="532" stroke="#d8dee4"/>
<text x="298" y="568" text-anchor="end" class="label">精神科経験15年以上</text>
<line x1="378.6" y1="562" x2="602.6" y2="562" stroke="#2f7d8c" stroke-width="2"/>
<circle cx="490.6" cy="562" r="5.5" fill="#2f7d8c"/>
<text x="828" y="567" class="num">0.68 (0.37-1.27)</text>
<text x="932" y="567" class="axis">24/81</text>
<text x="298" y="610" text-anchor="end" class="label">精神科専門医</text>
<line x1="369.4" y1="604" x2="594.2" y2="604" stroke="#2f7d8c" stroke-width="2"/>
<circle cx="481.8" cy="604" r="5.5" fill="#2f7d8c"/>
<text x="828" y="609" class="num">0.65 (0.35-1.21)</text>
<text x="932" y="609" class="axis">34/111</text>
<text x="298" y="652" text-anchor="end" class="label">精神保健指定医</text>
<line x1="415.0" y1="646" x2="700.5" y2="646" stroke="#2f7d8c" stroke-width="2"/>
<circle cx="557.7" cy="646" r="5.5" fill="#2f7d8c"/>
<text x="828" y="651" class="num">0.99 (0.45-2.18)</text>
<text x="932" y="651" class="axis">51/148</text>
<text x="298" y="694" text-anchor="end" class="label">クロザピン導入3例以上</text>
<line x1="342.5" y1="688" x2="605.9" y2="688" stroke="#2f7d8c" stroke-width="2"/>
<circle cx="474.2" cy="688" r="5.5" fill="#2f7d8c"/>
<text x="828" y="693" class="num">0.62 (0.30-1.29)</text>
<text x="932" y="693" class="axis">46/143</text>
<text x="298" y="736" text-anchor="end" class="label">現在担当クロザピン患者3名以上</text>
<line x1="415.3" y1="730" x2="638.6" y2="730" stroke="#2f7d8c" stroke-width="2"/>
<circle cx="526.9" cy="730" r="5.5" fill="#2f7d8c"/>
<text x="828" y="735" class="num">0.83 (0.45-1.55)</text>
<text x="932" y="735" class="axis">25/78</text>
<text x="560.0" y="798" text-anchor="middle" class="axis">Odds ratio（対数軸）</text>
<text x="828" y="34" class="axis">OR (95% CI)</text>
<text x="932" y="34" class="axis">該当者中の過小評価</text>
</svg>