<svg xmlns="http://www.w3.org/2000/svg" width="1040" height="460" viewBox="0 0 1040 460" role="img">
<style>
.title{font:700 19px -apple-system,BlinkMacSystemFont,"Segoe UI",sans-serif;fill:#1f2933}
.label{font:600 14px -apple-system,BlinkMacSystemFont,"Segoe UI",sans-serif;fill:#24323d}
.num{font:600 13px -apple-system,BlinkMacSystemFont,"Segoe UI",sans-serif;fill:#24323d}
.axis,.legend,.note{font:12px -apple-system,BlinkMacSystemFont,"Segoe UI",sans-serif;fill:#52616b}
.inside{font:700 13px -apple-system,BlinkMacSystemFont,"Segoe UI",sans-serif;fill:white}
.big{font:700 34px -apple-system,BlinkMacSystemFont,"Segoe UI",sans-serif;fill:#1f2933}
</style>
<rect width="100%" height="100%" fill="white"/>
<text x="230" y="30" class="title">図4. 安全面不安を含む拒否者での訪問看護追加後の受容</text>
<text x="218" y="93" text-anchor="end" class="label">週3回通院で安全面不安</text>
<rect x="230.0" y="66" width="144.4" height="38" fill="#245b67"/>
<text x="302.2" y="91" text-anchor="middle" class="inside">8</text>
<rect x="374.4" y="66" width="613.6" height="38" fill="#d8dee4"/>
<text x="681.2" y="91" text-anchor="middle" class="inside">34</text>
<text x="996" y="91" class="num">n=42</text>
<text x="218" y="165" text-anchor="end" class="label">週2回通院で安全面不安</text>
<rect x="230.0" y="138" width="189.5" height="38" fill="#2f7d8c"/>
<text x="324.8" y="163" text-anchor="middle" class="inside">4</text>
<rect x="419.5" y="138" width="94.8" height="38" fill="#5f9ea8"/>
<text x="466.9" y="163" text-anchor="middle" class="inside">2</text>
<rect x="514.2" y="138" width="473.8" height="38" fill="#d8dee4"/>
<text x="751.1" y="163" text-anchor="middle" class="inside">10</text>
<text x="996" y="163" class="num">n=16</text>
<text x="218" y="237" text-anchor="end" class="label">週1回通院で安全面不安</text>
<rect x="230.0" y="210" width="252.7" height="38" fill="#0f766e"/>
<text x="356.3" y="235" text-anchor="middle" class="inside">2</text>
<rect x="482.7" y="210" width="505.3" height="38" fill="#d8dee4"/>
<text x="735.3" y="235" text-anchor="middle" class="inside">4</text>
<text x="996" y="235" class="num">n=6</text>
<rect x="230" y="376" width="14" height="14" fill="#245b67"/>
<text x="250" y="388" class="legend">週5回確認: 週3回通院+週2回訪問看護</text>
<rect x="230" y="400" width="14" height="14" fill="#2f7d8c"/>
<text x="250" y="412" class="legend">週3回確認: 週2回通院+週1回訪問看護</text>
<rect x="230" y="424" width="14" height="14" fill="#5f9ea8"/>
<text x="250" y="436" class="legend">週5回確認: 週2回通院+週3回訪問看護</text>
<rect x="560" y="376" width="14" height="14" fill="#0f766e"/>
<text x="580" y="388" class="legend">週2回確認: 週1回通院+週1回訪問看護</text>
<rect x="560" y="400" width="14" height="14" fill="#8bbbc3"/>
<text x="580" y="412" class="legend">週3回確認: 週1回通院+週2回訪問看護</text>
<rect x="560" y="424" width="14" height="14" fill="#b7d5da"/>
<text x="580" y="436" class="legend">週5回確認: 週1回通院+週4回訪問看護</text>
<rect x="890" y="376" width="14" height="14" fill="#d8dee4"/>
<text x="910" y="388" class="legend">受容に転じず</text>
</svg>