<svg xmlns="http://www.w3.org/2000/svg" width="900" height="380" viewBox="0 0 900 380" role="img">
<style>
.title{font:700 19px -apple-system,BlinkMacSystemFont,"Segoe UI",sans-serif;fill:#1f2933}
.label{font:600 14px -apple-system,BlinkMacSystemFont,"Segoe UI",sans-serif;fill:#24323d}
.num{font:600 13px -apple-system,BlinkMacSystemFont,"Segoe UI",sans-serif;fill:#24323d}
.axis,.legend,.note{font:12px -apple-system,BlinkMacSystemFont,"Segoe UI",sans-serif;fill:#52616b}
.inside{font:700 13px -apple-system,BlinkMacSystemFont,"Segoe UI",sans-serif;fill:white}
.big{font:700 34px -apple-system,BlinkMacSystemFont,"Segoe UI",sans-serif;fill:#1f2933}
</style>
<rect width="100%" height="100%" fill="white"/>
<text x="190" y="30" class="title">図3. 対象集団別のburden threshold</text>
<text x="178" y="96" text-anchor="end" class="label">TRS適格候補</text>
<rect x="190.0" y="68" width="77.7" height="36" fill="#004d40"/>
<text x="228.8" y="91" text-anchor="middle" class="inside">10</text>
<rect x="267.7" y="68" width="38.8" height="36" fill="#00695c"/>
<rect x="306.5" y="68" width="124.3" height="36" fill="#0f766e"/>
<text x="368.7" y="91" text-anchor="middle" class="inside">16</text>
<rect x="430.8" y="68" width="77.7" height="36" fill="#2f7d8c"/>
<text x="469.6" y="91" text-anchor="middle" class="inside">10</text>
<rect x="508.5" y="68" width="77.7" height="36" fill="#5f9ea8"/>
<text x="547.3" y="91" text-anchor="middle" class="inside">10</text>
<rect x="586.1" y="68" width="139.8" height="36" fill="#8bbbc3"/>
<text x="656.0" y="91" text-anchor="middle" class="inside">18</text>
<rect x="726.0" y="68" width="15.5" height="36" fill="#b7d5da"/>
<rect x="741.5" y="68" width="46.6" height="36" fill="#d7e8eb"/>
<rect x="788.1" y="68" width="69.9" height="36" fill="#d8dee4"/>
<text x="823.0" y="91" text-anchor="middle" class="inside">9</text>
<text x="866" y="91" class="num">n=86</text>
<text x="178" y="172" text-anchor="end" class="label">広い未使用外来患者</text>
<rect x="190.0" y="144" width="78.2" height="36" fill="#004d40"/>
<text x="229.1" y="167" text-anchor="middle" class="inside">11</text>
<rect x="268.2" y="144" width="35.5" height="36" fill="#00695c"/>
<rect x="303.7" y="144" width="56.9" height="36" fill="#0f766e"/>
<text x="332.1" y="167" text-anchor="middle" class="inside">8</text>
<rect x="360.6" y="144" width="92.4" height="36" fill="#2f7d8c"/>
<text x="406.7" y="167" text-anchor="middle" class="inside">13</text>
<rect x="452.9" y="144" width="71.1" height="36" fill="#5f9ea8"/>
<text x="488.5" y="167" text-anchor="middle" class="inside">10</text>
<rect x="524.0" y="144" width="113.7" height="36" fill="#8bbbc3"/>
<text x="580.9" y="167" text-anchor="middle" class="inside">16</text>
<rect x="637.7" y="144" width="64.0" height="36" fill="#b7d5da"/>
<text x="669.7" y="167" text-anchor="middle" class="inside">9</text>
<rect x="701.7" y="144" width="64.0" height="36" fill="#d7e8eb"/>
<text x="733.6" y="167" text-anchor="middle" class="inside">9</text>
<rect x="765.6" y="144" width="92.4" height="36" fill="#d8dee4"/>
<text x="811.8" y="167" text-anchor="middle" class="inside">13</text>
<text x="866" y="167" class="num">n=94</text>
<rect x="190" y="322" width="14" height="14" fill="#004d40"/>
<text x="210" y="334" class="legend">週3回通院+週2回訪問看護なら受容</text>
<rect x="360" y="322" width="14" height="14" fill="#00695c"/>
<text x="380" y="334" class="legend">週3回通院なら受容</text>
<rect x="530" y="322" width="14" height="14" fill="#0f766e"/>
<text x="550" y="334" class="legend">週2回通院+週3回訪問看護なら受容</text>
<rect x="700" y="322" width="14" height="14" fill="#2f7d8c"/>
<text x="720" y="334" class="legend">週2回通院+週1回訪問看護なら受容</text>
<rect x="190" y="344" width="14" height="14" fill="#5f9ea8"/>
<text x="210" y="356" class="legend">週1回通院+週4回訪問看護なら受容</text>
<rect x="360" y="344" width="14" height="14" fill="#8bbbc3"/>
<text x="380" y="356" class="legend">週1回通院+週2回訪問看護なら受容</text>
<rect x="530" y="344" width="14" height="14" fill="#b7d5da"/>
<text x="550" y="356" class="legend">週1回通院+週1回訪問看護なら受容</text>
<rect x="700" y="344" width="14" height="14" fill="#d7e8eb"/>
<text x="720" y="356" class="legend">週1回通院なら受容</text>
<rect x="190" y="366" width="14" height="14" fill="#d8dee4"/>
<text x="210" y="378" class="legend">外来導入も非受容/保留</text>
</svg>