<svg xmlns="http://www.w3.org/2000/svg" width="1040" height="806" viewBox="0 0 1040 806" role="img">
<style>
.title{font:700 19px -apple-system,BlinkMacSystemFont,"Segoe UI",sans-serif;fill:#1f2933}
.label{font:600 14px -apple-system,BlinkMacSystemFont,"Segoe UI",sans-serif;fill:#24323d}
.num{font:600 13px -apple-system,BlinkMacSystemFont,"Segoe UI",sans-serif;fill:#24323d}
.axis,.legend,.note{font:12px -apple-system,BlinkMacSystemFont,"Segoe UI",sans-serif;fill:#52616b}
.inside{font:700 13px -apple-system,BlinkMacSystemFont,"Segoe UI",sans-serif;fill:white}
.big{font:700 34px -apple-system,BlinkMacSystemFont,"Segoe UI",sans-serif;fill:#1f2933}
</style>
<rect width="100%" height="100%" fill="white"/>
<text x="310" y="30" class="title">図9. ベースライン情報でみる外来導入受容性の過小評価要因</text>
<line x1="310.0" y1="48" x2="310.0" y2="752" stroke="#e5eaf0" stroke-width="1"/>
<text x="310.0" y="784" text-anchor="middle" class="axis">0.25</text>
<line x1="435.0" y1="48" x2="435.0" y2="752" stroke="#e5eaf0" stroke-width="1"/>
<text x="435.0" y="784" text-anchor="middle" class="axis">0.5</text>
<line x1="560.0" y1="48" x2="560.0" y2="752" stroke="#1f2933" stroke-width="1.4"/>
<text x="560.0" y="784" text-anchor="middle" class="axis">1</text>
<line x1="685.0" y1="48" x2="685.0" y2="752" stroke="#e5eaf0" stroke-width="1"/>
<text x="685.0" y="784" text-anchor="middle" class="axis">2</text>
<line x1="810.0" y1="48" x2="810.0" y2="752" stroke="#e5eaf0" stroke-width="1"/>
<text x="810.0" y="784" text-anchor="middle" class="axis">4</text>
<text x="298" y="64" text-anchor="end" class="label">A. 患者要因</text>
<line x1="310" y1="70" x2="810" y2="70" stroke="#d8dee4"/>
<text x="298" y="106" text-anchor="end" class="label">65歳以上</text>
<line x1="374.4" y1="100" x2="777.4" y2="100" stroke="#2f7d8c" stroke-width="2"/>
<circle cx="575.9" cy="100" r="5.5" fill="#2f7d8c"/>
<text x="828" y="105" class="num">1.09 (0.36-3.34)</text>
<text x="932" y="105" class="axis">5/13</text>
<text x="298" y="148" text-anchor="end" class="label">臨床家評価mGAF-F 40以下</text>
<line x1="347.7" y1="142" x2="577.6" y2="142" stroke="#2f7d8c" stroke-width="2"/>
<circle cx="462.7" cy="142" r="5.5" fill="#2f7d8c"/>
<text x="828" y="147" class="num">0.58 (0.31-1.10)</text>
<text x="932" y="147" class="axis">20/68</text>
<text x="298" y="190" text-anchor="end" class="label">過去拒否記載あり</text>
<line x1="447.1" y1="184" x2="772.7" y2="184" stroke="#2f7d8c" stroke-width="2"/>
<circle cx="609.9" cy="184" r="5.5" fill="#2f7d8c"/>
<text x="828" y="189" class="num">1.32 (0.53-3.25)</text>
<text x="932" y="189" class="axis">9/21</text>
<text x="298" y="232" text-anchor="end" class="label">日中活動あり</text>
<line x1="425.0" y1="226" x2="647.0" y2="226" stroke="#2f7d8c" stroke-width="2"/>
<circle cx="536.0" cy="226" r="5.5" fill="#2f7d8c"/>
<text x="828" y="231" class="num">0.88 (0.47-1.62)</text>
<text x="932" y="231" class="axis">40/111</text>
<text x="298" y="274" text-anchor="end" class="label">同居家族から支援あり</text>
<line x1="403.4" y1="268" x2="689.8" y2="268" stroke="#2f7d8c" stroke-width="2"/>
<circle cx="546.6" cy="268" r="5.5" fill="#2f7d8c"/>
<text x="828" y="273" class="num">0.93 (0.42-2.05)</text>
<text x="932" y="273" class="axis">11/31</text>
<text x="298" y="316" text-anchor="end" class="label">ケア役割あり</text>
<line x1="496.4" y1="310" x2="760.4" y2="310" stroke="#2f7d8c" stroke-width="2"/>
<circle cx="628.4" cy="310" r="5.5" fill="#2f7d8c"/>
<text x="828" y="315" class="num">1.46 (0.70-3.04)</text>
<text x="932" y="315" class="axis">16/36</text>
<text x="298" y="358" text-anchor="end" class="label">通院片道60分以上</text>
<line x1="336.2" y1="352" x2="634.2" y2="352" stroke="#2f7d8c" stroke-width="2"/>
<circle cx="485.2" cy="352" r="5.5" fill="#2f7d8c"/>
<text x="828" y="357" class="num">0.66 (0.29-1.51)</text>
<text x="932" y="357" class="axis">9/31</text>
<text x="298" y="400" text-anchor="end" class="label">訪問看護を現在利用</text>
<line x1="351.5" y1="394" x2="612.5" y2="394" stroke="#2f7d8c" stroke-width="2"/>
<circle cx="482.0" cy="394" r="5.5" fill="#2f7d8c"/>
<text x="828" y="399" class="num">0.65 (0.31-1.34)</text>
<text x="932" y="399" class="axis">13/44</text>
<text x="298" y="442" text-anchor="end" class="label">生活保護あり</text>
<line x1="310.0" y1="436" x2="584.7" y2="436" stroke="#2f7d8c" stroke-width="2"/>
<circle cx="438.9" cy="436" r="5.5" fill="#2f7d8c"/>
<text x="828" y="441" class="num">0.51 (0.23-1.15)</text>
<text x="932" y="441" class="axis">9/36</text>
<text x="298" y="484" text-anchor="end" class="label">経済的にかなり困る</text>
<line x1="393.1" y1="478" x2="652.3" y2="478" stroke="#2f7d8c" stroke-width="2"/>
<circle cx="522.7" cy="478" r="5.5" fill="#2f7d8c"/>
<text x="828" y="483" class="num">0.81 (0.40-1.67)</text>
<text x="932" y="483" class="axis">14/42</text>
<text x="298" y="526" text-anchor="end" class="label">B. 医師要因</text>
<line x1="310" y1="532" x2="810" y2="532" stroke="#d8dee4"/>
<text x="298" y="568" text-anchor="end" class="label">精神科経験15年以上</text>
<line x1="463.0" y1="562" x2="687.7" y2="562" stroke="#2f7d8c" stroke-width="2"/>
<circle cx="575.4" cy="562" r="5.5" fill="#2f7d8c"/>
<text x="828" y="567" class="num">1.09 (0.58-2.03)</text>
<text x="932" y="567" class="axis">25/65</text>
<text x="298" y="610" text-anchor="end" class="label">精神科専門医</text>
<line x1="432.3" y1="604" x2="657.0" y2="604" stroke="#2f7d8c" stroke-width="2"/>
<circle cx="544.6" cy="604" r="5.5" fill="#2f7d8c"/>
<text x="828" y="609" class="num">0.92 (0.49-1.71)</text>
<text x="932" y="609" class="axis">42/115</text>
<text x="298" y="652" text-anchor="end" class="label">精神保健指定医</text>
<line x1="360.4" y1="646" x2="584.1" y2="646" stroke="#2f7d8c" stroke-width="2"/>
<circle cx="472.2" cy="646" r="5.5" fill="#2f7d8c"/>
<text x="828" y="651" class="num">0.61 (0.33-1.14)</text>
<text x="932" y="651" class="axis">38/115</text>
<text x="298" y="694" text-anchor="end" class="label">クロザピン導入3例以上</text>
<line x1="386.4" y1="688" x2="606.9" y2="688" stroke="#2f7d8c" stroke-width="2"/>
<circle cx="496.7" cy="688" r="5.5" fill="#2f7d8c"/>
<text x="828" y="693" class="num">0.70 (0.38-1.30)</text>
<text x="932" y="693" class="axis">37/109</text>
<text x="298" y="736" text-anchor="end" class="label">現在担当クロザピン患者3名以上</text>
<line x1="438.9" y1="730" x2="655.9" y2="730" stroke="#2f7d8c" stroke-width="2"/>
<circle cx="547.4" cy="730" r="5.5" fill="#2f7d8c"/>
<text x="828" y="735" class="num">0.93 (0.51-1.70)</text>
<text x="932" y="735" class="axis">35/96</text>
<text x="560.0" y="798" text-anchor="middle" class="axis">Odds ratio（対数軸）</text>
<text x="828" y="34" class="axis">OR (95% CI)</text>
<text x="932" y="34" class="axis">該当者中の過小評価</text>
</svg>