<svg xmlns="http://www.w3.org/2000/svg" width="940" height="430" viewBox="0 0 940 430" role="img">
<style>
.title{font:700 19px -apple-system,BlinkMacSystemFont,"Segoe UI",sans-serif;fill:#1f2933}
.label{font:600 14px -apple-system,BlinkMacSystemFont,"Segoe UI",sans-serif;fill:#24323d}
.num{font:600 13px -apple-system,BlinkMacSystemFont,"Segoe UI",sans-serif;fill:#24323d}
.axis,.legend,.note{font:12px -apple-system,BlinkMacSystemFont,"Segoe UI",sans-serif;fill:#52616b}
.inside{font:700 13px -apple-system,BlinkMacSystemFont,"Segoe UI",sans-serif;fill:white}
.big{font:700 34px -apple-system,BlinkMacSystemFont,"Segoe UI",sans-serif;fill:#1f2933}
</style>
<rect width="100%" height="100%" fill="white"/>
<text x="210" y="30" class="title">図3. 通院頻度別にみた拒否理由</text>
<text x="198" y="93" text-anchor="end" class="label">週3回通院を拒否</text>
<rect x="210.0" y="66" width="524.6" height="38" fill="#2f7d8c"/>
<text x="472.3" y="91" text-anchor="middle" class="inside">65</text>
<rect x="734.6" y="66" width="24.2" height="38" fill="#c47f4f"/>
<rect x="758.9" y="66" width="129.1" height="38" fill="#7a9a3d"/>
<text x="823.4" y="91" text-anchor="middle" class="inside">16</text>
<text x="896" y="91" class="num">n=84</text>
<text x="198" y="165" text-anchor="end" class="label">週2回通院を拒否</text>
<rect x="210.0" y="138" width="474.6" height="38" fill="#2f7d8c"/>
<text x="447.3" y="163" text-anchor="middle" class="inside">35</text>
<rect x="684.6" y="138" width="94.9" height="38" fill="#c47f4f"/>
<text x="732.1" y="163" text-anchor="middle" class="inside">7</text>
<rect x="779.5" y="138" width="108.5" height="38" fill="#7a9a3d"/>
<text x="833.8" y="163" text-anchor="middle" class="inside">8</text>
<text x="896" y="163" class="num">n=50</text>
<text x="198" y="237" text-anchor="end" class="label">週1回通院を拒否</text>
<rect x="210.0" y="210" width="355.1" height="38" fill="#2f7d8c"/>
<text x="387.6" y="235" text-anchor="middle" class="inside">11</text>
<rect x="565.1" y="210" width="193.7" height="38" fill="#c47f4f"/>
<text x="662.0" y="235" text-anchor="middle" class="inside">6</text>
<rect x="758.9" y="210" width="129.1" height="38" fill="#7a9a3d"/>
<text x="823.4" y="235" text-anchor="middle" class="inside">4</text>
<text x="896" y="235" class="num">n=21</text>
<rect x="210" y="382" width="14" height="14" fill="#2f7d8c"/>
<text x="230" y="394" class="legend">通院負担のみ</text>
<rect x="420" y="382" width="14" height="14" fill="#c47f4f"/>
<text x="440" y="394" class="legend">安全面不安のみ</text>
<rect x="630" y="382" width="14" height="14" fill="#7a9a3d"/>
<text x="650" y="394" class="legend">通院負担+安全面不安</text>
</svg>