<svg xmlns="http://www.w3.org/2000/svg" width="940" height="380" viewBox="0 0 940 380" role="img">
<style>
.title{font:700 19px -apple-system,BlinkMacSystemFont,"Segoe UI",sans-serif;fill:#1f2933}
.label{font:600 14px -apple-system,BlinkMacSystemFont,"Segoe UI",sans-serif;fill:#24323d}
.num{font:600 13px -apple-system,BlinkMacSystemFont,"Segoe UI",sans-serif;fill:#24323d}
.axis,.legend,.note{font:12px -apple-system,BlinkMacSystemFont,"Segoe UI",sans-serif;fill:#52616b}
.inside{font:700 13px -apple-system,BlinkMacSystemFont,"Segoe UI",sans-serif;fill:white}
.big{font:700 34px -apple-system,BlinkMacSystemFont,"Segoe UI",sans-serif;fill:#1f2933}
</style>
<rect width="100%" height="100%" fill="white"/>
<text x="230" y="30" class="title">図5. 回答前提別にみた訪問看護確認頻度threshold</text>
<text x="218" y="93" text-anchor="end" class="label">現在の状態で回答</text>
<rect x="230.0" y="66" width="144.4" height="38" fill="#245b67"/>
<text x="302.2" y="91" text-anchor="middle" class="inside">9</text>
<rect x="374.4" y="66" width="128.4" height="38" fill="#2f7d8c"/>
<text x="438.6" y="91" text-anchor="middle" class="inside">8</text>
<rect x="502.8" y="66" width="64.2" height="38" fill="#8bbbc3"/>
<text x="534.9" y="91" text-anchor="middle" class="inside">4</text>
<rect x="567.0" y="66" width="321.0" height="38" fill="#d8dee4"/>
<text x="727.5" y="91" text-anchor="middle" class="inside">20</text>
<text x="896" y="91" class="num">n=41</text>
<text x="218" y="161" text-anchor="end" class="label">将来TRS相当を想定</text>
<rect x="230.0" y="134" width="288.4" height="38" fill="#245b67"/>
<text x="374.2" y="159" text-anchor="middle" class="inside">32</text>
<rect x="518.4" y="134" width="108.2" height="38" fill="#2f7d8c"/>
<text x="572.5" y="159" text-anchor="middle" class="inside">12</text>
<rect x="626.6" y="134" width="63.1" height="38" fill="#8bbbc3"/>
<text x="658.2" y="159" text-anchor="middle" class="inside">7</text>
<rect x="689.7" y="134" width="198.3" height="38" fill="#d8dee4"/>
<text x="788.8" y="159" text-anchor="middle" class="inside">22</text>
<text x="896" y="159" class="num">n=73</text>
<rect x="230" y="322" width="14" height="14" fill="#245b67"/>
<text x="250" y="334" class="legend">週5回確認まで受容</text>
<rect x="440" y="322" width="14" height="14" fill="#2f7d8c"/>
<text x="460" y="334" class="legend">週3回確認まで受容</text>
<rect x="650" y="322" width="14" height="14" fill="#8bbbc3"/>
<text x="670" y="334" class="legend">週2回確認まで受容</text>
<rect x="230" y="346" width="14" height="14" fill="#d8dee4"/>
<text x="250" y="358" class="legend">訪問看護追加は非受容/保留</text>
</svg>