<svg xmlns="http://www.w3.org/2000/svg" width="930" height="528" viewBox="0 0 930 528"><style>text{font-family:-apple-system,BlinkMacSystemFont,"Segoe UI","Hiragino Sans","Yu Gothic",sans-serif;fill:#17212b} .muted{fill:#5d6773} .axis{stroke:#aab4c0;stroke-width:1} .teal{fill:#2f6f7e} .gold{fill:#9b6a2f} .red{fill:#a84a3f} .bar{fill:#2f6f7e}</style><text x="24" y="34" font-size="20" font-weight="700">図3. 患者背景とクロザピン改善期待との関連</text><text x="520" y="70" font-size="14" font-weight="700">改善期待あり</text><line x1="585" y1="84" x2="585" y2="504" class="axis"/><text x="577" y="520" font-size="12" class="muted">1</text><text x="24" y="109" font-size="13">年齢, 10歳増加あたり</text><line x1="523.9" y1="104" x2="589.2" y2="104" stroke="#2f6f7e" stroke-width="3"/><circle cx="556.8" cy="104" r="5" fill="#2f6f7e"/><text x="730" y="109" font-size="12">0.82 (0.65-1.03)</text><text x="24" y="143" font-size="13">女性</text><line x1="514.9" y1="138" x2="637.7" y2="138" stroke="#2f6f7e" stroke-width="3"/><circle cx="576.2" cy="138" r="5" fill="#2f6f7e"/><text x="730" y="143" font-size="12">0.94 (0.61-1.45)</text><text x="24" y="177" font-size="13">罹病期間, 10年増加あたり</text><line x1="514.9" y1="172" x2="583.6" y2="172" stroke="#2f6f7e" stroke-width="3"/><circle cx="549.7" cy="172" r="5" fill="#2f6f7e"/><text x="730" y="177" font-size="12">0.78 (0.61-0.99)</text><text x="24" y="211" font-size="13">BE-PSD-J 精神病症状, 1点増加あたり</text><line x1="608.5" y1="206" x2="661.9" y2="206" stroke="#2f6f7e" stroke-width="3"/><circle cx="634.7" cy="206" r="5" fill="#2f6f7e"/><text x="730" y="211" font-size="12">1.42 (1.18-1.72)</text><text x="24" y="245" font-size="13">BE-PSD-J 思考の解体, 1点増加あたり</text><line x1="583.6" y1="240" x2="635.7" y2="240" stroke="#2f6f7e" stroke-width="3"/><circle cx="609.7" cy="240" r="5" fill="#2f6f7e"/><text x="730" y="245" font-size="12">1.19 (0.99-1.43)</text><text x="24" y="279" font-size="13">BE-PSD-J 陰性症状, 1点増加あたり</text><line x1="523.9" y1="274" x2="577.7" y2="274" stroke="#2f6f7e" stroke-width="3"/><circle cx="551.6" cy="274" r="5" fill="#2f6f7e"/><text x="730" y="279" font-size="12">0.79 (0.65-0.95)</text><text x="24" y="313" font-size="13">BE-PSD-J 興奮/躁, 1点増加あたり</text><line x1="573.2" y1="308" x2="626.5" y2="308" stroke="#2f6f7e" stroke-width="3"/><circle cx="599.8" cy="308" r="5" fill="#2f6f7e"/><text x="730" y="313" font-size="12">1.11 (0.92-1.34)</text><text x="24" y="347" font-size="13">BE-PSD-J うつ/不安, 1点増加あたり</text><line x1="570.1" y1="342" x2="618.9" y2="342" stroke="#2f6f7e" stroke-width="3"/><circle cx="594.6" cy="342" r="5" fill="#2f6f7e"/><text x="730" y="347" font-size="12">1.07 (0.90-1.27)</text><text x="24" y="381" font-size="13">過去の精神科入院回数, 1回増加あたり</text><line x1="582.1" y1="376" x2="602.3" y2="376" stroke="#2f6f7e" stroke-width="3"/><circle cx="591.9" cy="376" r="5" fill="#2f6f7e"/><text x="730" y="381" font-size="12">1.05 (0.98-1.13)</text><text x="24" y="415" font-size="13">直近入院からの月数, 12か月増加あたり</text><line x1="560.3" y1="410" x2="591.9" y2="410" stroke="#2f6f7e" stroke-width="3"/><circle cx="576.2" cy="410" r="5" fill="#2f6f7e"/><text x="730" y="415" font-size="12">0.94 (0.84-1.05)</text><text x="24" y="449" font-size="13">現在LAI使用中</text><line x1="505.2" y1="444" x2="637.7" y2="444" stroke="#2f6f7e" stroke-width="3"/><circle cx="571.6" cy="444" r="5" fill="#2f6f7e"/><text x="730" y="449" font-size="12">0.91 (0.57-1.45)</text><text x="24" y="483" font-size="13">過去のクロザピン拒否あり</text><line x1="399.2" y1="478" x2="579.2" y2="478" stroke="#2f6f7e" stroke-width="3"/><circle cx="489.5" cy="478" r="5" fill="#2f6f7e"/><text x="730" y="483" font-size="12">0.51 (0.27-0.96)</text></svg>