<svg xmlns="http://www.w3.org/2000/svg" viewBox="0 0 1080 500" role="img">
<rect x="0" y="0" width="1080" height="500" fill="#fff"/>

<text x="24" y="34" font-size="16" font-weight="700">実数, n</text>
<text x="24" y="58" font-size="12" fill="#5d6773">数値はダミーデータ。各段階の規模が分かるように実数で示す。</text>
<line x1="500" y1="80" x2="500" y2="420" stroke="#e0e5ea" stroke-width="1"/><text x="500" y="450" text-anchor="middle" font-size="12" fill="#5d6773">0</text><line x1="585" y1="80" x2="585" y2="420" stroke="#e0e5ea" stroke-width="1"/><text x="585" y="450" text-anchor="middle" font-size="12" fill="#5d6773">200</text><line x1="670" y1="80" x2="670" y2="420" stroke="#e0e5ea" stroke-width="1"/><text x="670" y="450" text-anchor="middle" font-size="12" fill="#5d6773">400</text><line x1="755" y1="80" x2="755" y2="420" stroke="#e0e5ea" stroke-width="1"/><text x="755" y="450" text-anchor="middle" font-size="12" fill="#5d6773">600</text><line x1="840" y1="80" x2="840" y2="420" stroke="#e0e5ea" stroke-width="1"/><text x="840" y="450" text-anchor="middle" font-size="12" fill="#5d6773">800</text><line x1="925" y1="80" x2="925" y2="420" stroke="#e0e5ea" stroke-width="1"/><text x="925" y="450" text-anchor="middle" font-size="12" fill="#5d6773">1,000</text><line x1="1010" y1="80" x2="1010" y2="420" stroke="#e0e5ea" stroke-width="1"/><text x="1010" y="450" text-anchor="middle" font-size="12" fill="#5d6773">1,200</text>
<text x="24" y="104" font-size="14" fill="#17212b">統合失調症外来患者</text><rect x="500" y="88" width="527.0" height="22" fill="#2f6f7e"/><text x="1037.0" y="104" font-size="13" fill="#17212b" font-weight="700">1,240</text><text x="24" y="144" font-size="14" fill="#17212b">クロザピン適応相当</text><rect x="500" y="128" width="79.0" height="22" fill="#2f6f7e"/><text x="589.0" y="144" font-size="13" fill="#17212b" font-weight="700">186</text><text x="24" y="184" font-size="14" fill="#17212b">入院導入を勧めたい</text><rect x="500" y="168" width="27.2" height="22" fill="#2f6f7e"/><text x="537.2" y="184" font-size="13" fill="#17212b" font-weight="700">64</text><text x="24" y="224" font-size="14" fill="#17212b">入院導入を勧めた場合の受け入れ見込みあり</text><rect x="500" y="208" width="12.3" height="22" fill="#2f6f7e"/><text x="522.3" y="224" font-size="13" fill="#17212b" font-weight="700">29</text><text x="24" y="264" font-size="14" fill="#17212b">外来導入を勧めたい</text><rect x="500" y="248" width="44.2" height="22" fill="#2f6f7e"/><text x="554.2" y="264" font-size="13" fill="#17212b" font-weight="700">104</text><text x="24" y="304" font-size="14" fill="#17212b">外来導入を勧めた場合の受け入れ見込みあり</text><rect x="500" y="288" width="32.3" height="22" fill="#2f6f7e"/><text x="542.3" y="304" font-size="13" fill="#17212b" font-weight="700">76</text><text x="24" y="344" font-size="14" fill="#17212b">過去のクロザピン拒否記載あり</text><rect x="500" y="328" width="12.3" height="22" fill="#2f6f7e"/><text x="522.3" y="344" font-size="13" fill="#17212b" font-weight="700">29</text><text x="24" y="384" font-size="14" fill="#17212b">過去拒否例のうち外来導入なら新たに勧めたい</text><rect x="500" y="368" width="6.8" height="22" fill="#2f6f7e"/><text x="516.8" y="384" font-size="13" fill="#17212b" font-weight="700">16</text>

</svg>
