<svg xmlns="http://www.w3.org/2000/svg" viewBox="0 0 1240 702" role="img">
<rect x="0" y="0" width="1240" height="702" fill="#fff"/>

<text x="24" y="35" font-size="16" font-weight="700">単一患者因子モデル</text>
<text x="500" y="35" text-anchor="middle" font-size="16" font-weight="700">外来導入を勧めたい</text>
<text x="815" y="35" text-anchor="middle" font-size="16" font-weight="700">クロザピン積極検討あり</text>
<text x="655" y="78" font-size="12" fill="#5d6773">OR (95% CI)</text><text x="990" y="78" font-size="12" fill="#5d6773">OR (95% CI)</text>
<line x1="390" y1="86" x2="640" y2="86" stroke="#17212b" stroke-width="1.2"/><line x1="705" y1="86" x2="955" y2="86" stroke="#17212b" stroke-width="1.2"/>
<line x1="515.0" y1="86" x2="515.0" y2="608" stroke="#5d6773" stroke-width="1.2" stroke-dasharray="4 4"/><line x1="830.0" y1="86" x2="830.0" y2="608" stroke="#5d6773" stroke-width="1.2" stroke-dasharray="4 4"/>
<line x1="20" y1="137" x2="1210" y2="137" stroke="#cfd6df" stroke-width="1"/><line x1="20" y1="175" x2="1210" y2="175" stroke="#cfd6df" stroke-width="1"/><line x1="20" y1="213" x2="1210" y2="213" stroke="#cfd6df" stroke-width="1"/><line x1="20" y1="251" x2="1210" y2="251" stroke="#cfd6df" stroke-width="1"/><line x1="20" y1="289" x2="1210" y2="289" stroke="#cfd6df" stroke-width="1"/><line x1="20" y1="327" x2="1210" y2="327" stroke="#cfd6df" stroke-width="1"/><line x1="20" y1="365" x2="1210" y2="365" stroke="#cfd6df" stroke-width="1"/><line x1="20" y1="403" x2="1210" y2="403" stroke="#cfd6df" stroke-width="1"/><line x1="20" y1="441" x2="1210" y2="441" stroke="#cfd6df" stroke-width="1"/><line x1="20" y1="479" x2="1210" y2="479" stroke="#cfd6df" stroke-width="1"/><line x1="20" y1="517" x2="1210" y2="517" stroke="#cfd6df" stroke-width="1"/><line x1="20" y1="555" x2="1210" y2="555" stroke="#cfd6df" stroke-width="1"/>
<rect x="645" y="94" width="145" height="532" fill="#fff"/><rect x="980" y="94" width="220" height="532" fill="#fff"/>
<text x="24" y="118" font-size="14" fill="#17212b">年齢, 10歳増加あたり</text><line x1="489.1" y1="113" x2="526.0" y2="113" stroke="#2f6f7e" stroke-width="3"/><circle cx="507.5" cy="113" r="5" fill="#2f6f7e"/><text x="655" y="118" font-size="13" fill="#17212b">0.92 (0.75-1.13)</text><line x1="797.8" y1="113" x2="838.6" y2="113" stroke="#9b6a2f" stroke-width="3"/><circle cx="818.5" cy="113" r="5" fill="#9b6a2f"/><text x="990" y="118" font-size="13" fill="#17212b">0.88 (0.70-1.10)</text><text x="24" y="156" font-size="14" fill="#17212b">女性</text><line x1="459.4" y1="151" x2="542.7" y2="151" stroke="#2f6f7e" stroke-width="3"/><circle cx="501.4" cy="151" r="5" fill="#2f6f7e"/><text x="655" y="156" font-size="13" fill="#17212b">0.86 (0.54-1.36)</text><line x1="777.7" y1="151" x2="865.3" y2="151" stroke="#9b6a2f" stroke-width="3"/><circle cx="821.5" cy="151" r="5" fill="#9b6a2f"/><text x="990" y="156" font-size="13" fill="#17212b">0.91 (0.56-1.48)</text><text x="24" y="194" font-size="14" fill="#17212b">罹病期間, 10年増加あたり</text><line x1="476.2" y1="189" x2="518.5" y2="189" stroke="#2f6f7e" stroke-width="3"/><circle cx="497.1" cy="189" r="5" fill="#2f6f7e"/><text x="655" y="194" font-size="13" fill="#17212b">0.82 (0.65-1.04)</text><line x1="780.9" y1="189" x2="829.1" y2="189" stroke="#9b6a2f" stroke-width="3"/><circle cx="805.3" cy="189" r="5" fill="#9b6a2f"/><text x="990" y="194" font-size="13" fill="#17212b">0.76 (0.58-0.99)</text><text x="24" y="232" font-size="14" fill="#17212b">mGAF-Symptom, 10点低下あたり</text><line x1="518.5" y1="227" x2="563.9" y2="227" stroke="#2f6f7e" stroke-width="3"/><circle cx="541.4" cy="227" r="5" fill="#2f6f7e"/><text x="655" y="232" font-size="13" fill="#17212b">1.34 (1.04-1.72)</text><line x1="822.5" y1="227" x2="871.8" y2="227" stroke="#9b6a2f" stroke-width="3"/><circle cx="847.2" cy="227" r="5" fill="#9b6a2f"/><text x="990" y="232" font-size="13" fill="#17212b">1.21 (0.92-1.59)</text><text x="24" y="270" font-size="14" fill="#17212b">mGAF-Function, 10点低下あたり</text><line x1="505.5" y1="265" x2="551.6" y2="265" stroke="#2f6f7e" stroke-width="3"/><circle cx="528.4" cy="265" r="5" fill="#2f6f7e"/><text x="655" y="270" font-size="13" fill="#17212b">1.16 (0.90-1.50)</text><line x1="813.2" y1="265" x2="862.9" y2="265" stroke="#9b6a2f" stroke-width="3"/><circle cx="837.8" cy="265" r="5" fill="#9b6a2f"/><text x="990" y="270" font-size="13" fill="#17212b">1.09 (0.83-1.44)</text><text x="24" y="308" font-size="14" fill="#17212b">行動が妄想・幻覚にかなり影響</text><line x1="524.4" y1="303" x2="598.0" y2="303" stroke="#2f6f7e" stroke-width="3"/><circle cx="561.2" cy="303" r="5" fill="#2f6f7e"/><text x="655" y="308" font-size="13" fill="#17212b">1.67 (1.11-2.51)</text><line x1="830.9" y1="303" x2="907.0" y2="303" stroke="#9b6a2f" stroke-width="3"/><circle cx="868.9" cy="303" r="5" fill="#9b6a2f"/><text x="990" y="308" font-size="13" fill="#17212b">1.54 (1.01-2.35)</text><text x="24" y="346" font-size="14" fill="#17212b">幻覚・妄想・重い強迫儀式など</text><line x1="511.3" y1="341" x2="583.6" y2="341" stroke="#2f6f7e" stroke-width="3"/><circle cx="547.3" cy="341" r="5" fill="#2f6f7e"/><text x="655" y="346" font-size="13" fill="#17212b">1.43 (0.96-2.14)</text><line x1="817.4" y1="341" x2="892.5" y2="341" stroke="#9b6a2f" stroke-width="3"/><circle cx="855.0" cy="341" r="5" fill="#9b6a2f"/><text x="990" y="346" font-size="13" fill="#17212b">1.32 (0.87-2.00)</text><text x="24" y="384" font-size="14" fill="#17212b">重いコミュニケーション障害</text><line x1="461.1" y1="379" x2="552.8" y2="379" stroke="#2f6f7e" stroke-width="3"/><circle cx="506.5" cy="379" r="5" fill="#2f6f7e"/><text x="655" y="384" font-size="13" fill="#17212b">0.91 (0.55-1.52)</text><line x1="765.7" y1="379" x2="862.9" y2="379" stroke="#9b6a2f" stroke-width="3"/><circle cx="814.3" cy="379" r="5" fill="#9b6a2f"/><text x="990" y="384" font-size="13" fill="#17212b">0.84 (0.49-1.44)</text><text x="24" y="422" font-size="14" fill="#17212b">主要な機能障害あり</text><line x1="462.7" y1="417" x2="532.2" y2="417" stroke="#2f6f7e" stroke-width="3"/><circle cx="497.1" cy="417" r="5" fill="#2f6f7e"/><text x="655" y="422" font-size="13" fill="#17212b">0.82 (0.56-1.21)</text><line x1="767.5" y1="417" x2="841.8" y2="417" stroke="#9b6a2f" stroke-width="3"/><circle cx="805.3" cy="417" r="5" fill="#9b6a2f"/><text x="990" y="422" font-size="13" fill="#17212b">0.76 (0.50-1.14)</text><text x="24" y="460" font-size="14" fill="#17212b">過去の精神科入院回数, 1回増加あたり</text><line x1="513.2" y1="455" x2="525.2" y2="455" stroke="#2f6f7e" stroke-width="3"/><circle cx="519.4" cy="455" r="5" fill="#2f6f7e"/><text x="655" y="460" font-size="13" fill="#17212b">1.05 (0.98-1.12)</text><line x1="826.3" y1="455" x2="839.4" y2="455" stroke="#9b6a2f" stroke-width="3"/><circle cx="832.7" cy="455" r="5" fill="#9b6a2f"/><text x="990" y="460" font-size="13" fill="#17212b">1.03 (0.96-1.11)</text><text x="24" y="498" font-size="14" fill="#17212b">直近入院からの月数, 12か月増加あたり</text><line x1="501.4" y1="493" x2="521.1" y2="493" stroke="#2f6f7e" stroke-width="3"/><circle cx="511.3" cy="493" r="5" fill="#2f6f7e"/><text x="655" y="498" font-size="13" fill="#17212b">0.96 (0.86-1.07)</text><line x1="812.1" y1="493" x2="834.4" y2="493" stroke="#9b6a2f" stroke-width="3"/><circle cx="823.5" cy="493" r="5" fill="#9b6a2f"/><text x="990" y="498" font-size="13" fill="#17212b">0.93 (0.82-1.05)</text><text x="24" y="536" font-size="14" fill="#17212b">現在LAI使用中</text><line x1="457.8" y1="531" x2="548.5" y2="531" stroke="#2f6f7e" stroke-width="3"/><circle cx="503.5" cy="531" r="5" fill="#2f6f7e"/><text x="655" y="536" font-size="13" fill="#17212b">0.88 (0.53-1.45)</text><line x1="760.0" y1="531" x2="856.4" y2="531" stroke="#9b6a2f" stroke-width="3"/><circle cx="808.7" cy="531" r="5" fill="#9b6a2f"/><text x="990" y="536" font-size="13" fill="#17212b">0.79 (0.46-1.34)</text><text x="24" y="574" font-size="14" fill="#17212b">過去のクロザピン拒否記載あり</text><line x1="420.3" y1="569" x2="549.7" y2="569" stroke="#2f6f7e" stroke-width="3"/><circle cx="485.4" cy="569" r="5" fill="#2f6f7e"/><text x="655" y="574" font-size="13" fill="#17212b">0.72 (0.35-1.47)</text><line x1="697.5" y1="569" x2="833.5" y2="569" stroke="#9b6a2f" stroke-width="3"/><circle cx="765.7" cy="569" r="5" fill="#9b6a2f"/><text x="990" y="574" font-size="13" fill="#17212b">0.49 (0.23-1.04)</text>
<text x="390.0" y="632" text-anchor="middle" font-size="12" fill="#5d6773">0.25</text><text x="705.0" y="632" text-anchor="middle" font-size="12" fill="#5d6773">0.25</text><text x="452.5" y="632" text-anchor="middle" font-size="12" fill="#5d6773">0.5</text><text x="767.5" y="632" text-anchor="middle" font-size="12" fill="#5d6773">0.5</text><text x="515.0" y="632" text-anchor="middle" font-size="12" fill="#5d6773">1</text><text x="830.0" y="632" text-anchor="middle" font-size="12" fill="#5d6773">1</text><text x="577.5" y="632" text-anchor="middle" font-size="12" fill="#5d6773">2</text><text x="892.5" y="632" text-anchor="middle" font-size="12" fill="#5d6773">2</text><text x="640.0" y="632" text-anchor="middle" font-size="12" fill="#5d6773">4</text><text x="955.0" y="632" text-anchor="middle" font-size="12" fill="#5d6773">4</text>
<text x="515" y="661" text-anchor="middle" font-size="12" fill="#5d6773">オッズ比（対数目盛）</text><text x="830" y="661" text-anchor="middle" font-size="12" fill="#5d6773">オッズ比（対数目盛）</text>

</svg>
