<svg xmlns="http://www.w3.org/2000/svg" viewBox="0 0 1080 650" role="img">
<rect x="0" y="0" width="1080" height="650" fill="#fff"/>

<text x="24" y="34" font-size="16" font-weight="700">理由カテゴリ</text><text x="870" y="34" text-anchor="middle" font-size="16" font-weight="700">患者割合, %</text>
<line x1="690.0" y1="58" x2="690.0" y2="580" stroke="#e0e5ea" stroke-width="1"/><text x="690.0" y="605" text-anchor="middle" font-size="12" fill="#5d6773">0</text><line x1="745.0" y1="58" x2="745.0" y2="580" stroke="#e0e5ea" stroke-width="1"/><text x="745.0" y="605" text-anchor="middle" font-size="12" fill="#5d6773">10</text><line x1="800.0" y1="58" x2="800.0" y2="580" stroke="#e0e5ea" stroke-width="1"/><text x="800.0" y="605" text-anchor="middle" font-size="12" fill="#5d6773">20</text><line x1="855.0" y1="58" x2="855.0" y2="580" stroke="#e0e5ea" stroke-width="1"/><text x="855.0" y="605" text-anchor="middle" font-size="12" fill="#5d6773">30</text><line x1="910.0" y1="58" x2="910.0" y2="580" stroke="#e0e5ea" stroke-width="1"/><text x="910.0" y="605" text-anchor="middle" font-size="12" fill="#5d6773">40</text><line x1="965.0" y1="58" x2="965.0" y2="580" stroke="#e0e5ea" stroke-width="1"/><text x="965.0" y="605" text-anchor="middle" font-size="12" fill="#5d6773">50</text><line x1="1020.0" y1="58" x2="1020.0" y2="580" stroke="#e0e5ea" stroke-width="1"/><text x="1020.0" y="605" text-anchor="middle" font-size="12" fill="#5d6773">60</text>
<text x="24" y="82" font-size="14" font-weight="700" fill="#17212b">医師側の判断</text>
<text x="24" y="350" font-size="14" font-weight="700" fill="#17212b">医師が想像する患者側の判断</text>
<text x="42" y="121" font-size="14" fill="#17212b">Stably well / 十分治療されている</text><rect x="690" y="102" width="68.0" height="12" fill="#2f6f7e"/><rect x="690" y="118" width="124.7" height="12" fill="#b9d5db"/><text x="764.0" y="113" font-size="12" fill="#17212b">12.4</text><text x="820.7" y="129" font-size="12" fill="#17212b">22.7</text><text x="42" y="166" font-size="14" fill="#17212b">Stably unwell / 低機能だが安定</text><rect x="690" y="147" width="107.7" height="12" fill="#2f6f7e"/><rect x="690" y="163" width="232.5" height="12" fill="#b9d5db"/><text x="803.7" y="158" font-size="12" fill="#17212b">19.6</text><text x="928.5" y="174" font-size="12" fill="#17212b">42.3</text><text x="42" y="211" font-size="14" fill="#17212b">改善見込みが乏しい / beyond clozapine</text><rect x="690" y="192" width="90.7" height="12" fill="#2f6f7e"/><rect x="690" y="208" width="198.5" height="12" fill="#b9d5db"/><text x="786.7" y="203" font-size="12" fill="#17212b">16.5</text><text x="894.5" y="219" font-size="12" fill="#17212b">36.1</text><text x="42" y="256" font-size="14" fill="#17212b">有害事象・忍容性への懸念</text><rect x="690" y="237" width="56.7" height="12" fill="#2f6f7e"/><rect x="690" y="253" width="153.1" height="12" fill="#b9d5db"/><text x="752.7" y="248" font-size="12" fill="#17212b">10.3</text><text x="849.1" y="264" font-size="12" fill="#17212b">27.8</text><text x="42" y="301" font-size="14" fill="#17212b">服薬遵守・連絡・支援体制への懸念</text><rect x="690" y="282" width="45.4" height="12" fill="#2f6f7e"/><rect x="690" y="298" width="175.8" height="12" fill="#b9d5db"/><text x="741.4" y="293" font-size="12" fill="#17212b">8.2</text><text x="871.8" y="309" font-size="12" fill="#17212b">32.0</text><text x="42" y="389" font-size="14" fill="#17212b">入院が困難または受け入れ困難</text><rect x="690" y="370" width="62.4" height="12" fill="#2f6f7e"/><rect x="690" y="386" width="170.1" height="12" fill="#b9d5db"/><text x="758.4" y="381" font-size="12" fill="#17212b">11.3</text><text x="866.1" y="397" font-size="12" fill="#17212b">30.9</text><text x="42" y="434" font-size="14" fill="#17212b">採血・受診の負担</text><rect x="690" y="415" width="45.4" height="12" fill="#2f6f7e"/><rect x="690" y="431" width="158.8" height="12" fill="#b9d5db"/><text x="741.4" y="426" font-size="12" fill="#17212b">8.2</text><text x="854.8" y="442" font-size="12" fill="#17212b">28.9</text><text x="42" y="479" font-size="14" fill="#17212b">副作用への懸念</text><rect x="690" y="460" width="39.7" height="12" fill="#2f6f7e"/><rect x="690" y="476" width="141.8" height="12" fill="#b9d5db"/><text x="735.7" y="471" font-size="12" fill="#17212b">7.2</text><text x="837.8" y="487" font-size="12" fill="#17212b">25.8</text><text x="42" y="524" font-size="14" fill="#17212b">期待される有用性の理解が難しい</text><rect x="690" y="505" width="34.0" height="12" fill="#2f6f7e"/><rect x="690" y="521" width="107.7" height="12" fill="#b9d5db"/><text x="730.0" y="516" font-size="12" fill="#17212b">6.2</text><text x="803.7" y="532" font-size="12" fill="#17212b">19.6</text>
<rect x="365" y="622" width="16" height="10" fill="#2f6f7e"/><text x="388" y="631" font-size="12" fill="#17212b">主な理由</text>
<rect x="575" y="622" width="16" height="10" fill="#b9d5db"/><text x="598" y="631" font-size="12" fill="#17212b">副次的理由（複数選択可）</text>

</svg>
