<svg xmlns="http://www.w3.org/2000/svg" viewBox="0 0 1240 358" role="img">
<rect x="0" y="0" width="1240" height="358" fill="#fff"/>

<text x="24" y="35" font-size="16" font-weight="700">単一主治医特徴モデル</text>
<text x="500" y="35" text-anchor="middle" font-size="16" font-weight="700">外来導入を勧めたい</text>
<text x="815" y="35" text-anchor="middle" font-size="16" font-weight="700">患者受け入れ見込みあり</text>
<text x="655" y="78" font-size="12" fill="#5d6773">OR (95% CI)</text><text x="990" y="78" font-size="12" fill="#5d6773">OR (95% CI)</text>
<line x1="390" y1="86" x2="640" y2="86" stroke="#17212b" stroke-width="1.2"/><line x1="705" y1="86" x2="955" y2="86" stroke="#17212b" stroke-width="1.2"/>
<line x1="515.0" y1="86" x2="515.0" y2="264" stroke="#5d6773" stroke-width="1.2" stroke-dasharray="4 4"/><line x1="830.0" y1="86" x2="830.0" y2="264" stroke="#5d6773" stroke-width="1.2" stroke-dasharray="4 4"/>
<line x1="20" y1="137" x2="1210" y2="137" stroke="#cfd6df" stroke-width="1"/><line x1="20" y1="187" x2="1210" y2="187" stroke="#cfd6df" stroke-width="1"/>
<rect x="645" y="94" width="145" height="188" fill="#fff"/><rect x="980" y="94" width="220" height="188" fill="#fff"/>
<text x="24" y="118" font-size="14" fill="#17212b">過去のクロザピン導入症例数, 5例増加あたり</text><line x1="511.3" y1="113" x2="555.1" y2="113" stroke="#2f6f7e" stroke-width="3"/><circle cx="532.9" cy="113" r="5" fill="#2f6f7e"/><text x="655" y="118" font-size="13" fill="#17212b">1.22 (0.96-1.56)</text><line x1="835.3" y1="113" x2="883.0" y2="113" stroke="#9b6a2f" stroke-width="3"/><circle cx="859.0" cy="113" r="5" fill="#9b6a2f"/><text x="990" y="118" font-size="13" fill="#17212b">1.38 (1.06-1.80)</text><text x="24" y="168" font-size="14" fill="#17212b">現在担当クロザピン患者数, 5例増加あたり</text><line x1="503.5" y1="163" x2="556.8" y2="163" stroke="#2f6f7e" stroke-width="3"/><circle cx="529.9" cy="163" r="5" fill="#2f6f7e"/><text x="655" y="168" font-size="13" fill="#17212b">1.18 (0.88-1.59)</text><line x1="834.4" y1="163" x2="893.8" y2="163" stroke="#9b6a2f" stroke-width="3"/><circle cx="864.1" cy="163" r="5" fill="#9b6a2f"/><text x="990" y="168" font-size="13" fill="#17212b">1.46 (1.05-2.03)</text><text x="24" y="218" font-size="14" fill="#17212b">精神科経験年数, 10年増加あたり</text><line x1="482.8" y1="213" x2="540.0" y2="213" stroke="#2f6f7e" stroke-width="3"/><circle cx="511.3" cy="213" r="5" fill="#2f6f7e"/><text x="655" y="218" font-size="13" fill="#17212b">0.96 (0.70-1.32)</text><line x1="806.4" y1="213" x2="867.8" y2="213" stroke="#9b6a2f" stroke-width="3"/><circle cx="836.9" cy="213" r="5" fill="#9b6a2f"/><text x="990" y="218" font-size="13" fill="#17212b">1.08 (0.77-1.52)</text>
<text x="390.0" y="288" text-anchor="middle" font-size="12" fill="#5d6773">0.25</text><text x="705.0" y="288" text-anchor="middle" font-size="12" fill="#5d6773">0.25</text><text x="452.5" y="288" text-anchor="middle" font-size="12" fill="#5d6773">0.5</text><text x="767.5" y="288" text-anchor="middle" font-size="12" fill="#5d6773">0.5</text><text x="515.0" y="288" text-anchor="middle" font-size="12" fill="#5d6773">1</text><text x="830.0" y="288" text-anchor="middle" font-size="12" fill="#5d6773">1</text><text x="577.5" y="288" text-anchor="middle" font-size="12" fill="#5d6773">2</text><text x="892.5" y="288" text-anchor="middle" font-size="12" fill="#5d6773">2</text><text x="640.0" y="288" text-anchor="middle" font-size="12" fill="#5d6773">4</text><text x="955.0" y="288" text-anchor="middle" font-size="12" fill="#5d6773">4</text>
<text x="515" y="317" text-anchor="middle" font-size="12" fill="#5d6773">オッズ比（対数目盛）</text><text x="830" y="317" text-anchor="middle" font-size="12" fill="#5d6773">オッズ比（対数目盛）</text>

</svg>
