<svg xmlns="http://www.w3.org/2000/svg" width="900" height="398" viewBox="0 0 900 398">
<style>text{font-family:-apple-system,BlinkMacSystemFont,"Noto Sans JP",Arial,sans-serif;fill:#17222b}.title{font-size:20px;font-weight:700}.lab{font-size:14px}.axis{stroke:#8fa0aa}.ci{stroke:#2f7f92;stroke-width:3}.dot{fill:#2f7f92}.zero{stroke:#b7c3cb;stroke-dasharray:4 4}.num{font-size:13px}</style>
<text x="450.0" y="34" text-anchor="middle" class="title">DCE/DCM: レジメン属性の選好係数</text>
<line x1="469.3" y1="50" x2="469.3" y2="350" class="zero"/>
<line x1="330.0" y1="352" x2="330.0" y2="360" class="axis"/>
<text x="330.0" y="380" text-anchor="middle" class="num">-1</text>
<line x1="469.3" y1="352" x2="469.3" y2="360" class="axis"/>
<text x="469.3" y="380" text-anchor="middle" class="num">+0</text>
<line x1="608.6" y1="352" x2="608.6" y2="360" class="axis"/>
<text x="608.6" y="380" text-anchor="middle" class="num">+1</text>
<text x="270" y="75" text-anchor="end" class="lab">外来導入（入院ではなく）</text>
<line x1="668.8" y1="70" x2="758.6" y2="70" class="ci"/>
<circle cx="713.7" cy="70" r="6" class="dot"/>
<text x="750" y="75" class="num">+1.75 [+1.43, +2.08]</text>
<text x="270" y="123" text-anchor="end" class="lab">外来開始時の週1回通院（週2回ではなく）</text>
<line x1="445.0" y1="118" x2="520.9" y2="118" class="ci"/>
<circle cx="483.0" cy="118" r="6" class="dot"/>
<text x="750" y="123" class="num">+0.10 [-0.17, +0.37]</text>
<text x="270" y="171" text-anchor="end" class="lab">外来開始時の訪問看護・電話支援あり</text>
<line x1="482.3" y1="166" x2="583.6" y2="166" class="ci"/>
<circle cx="533.0" cy="166" r="6" class="dot"/>
<text x="750" y="171" class="num">+0.46 [+0.09, +0.82]</text>
<text x="270" y="219" text-anchor="end" class="lab">外来開始時の毎日の確認が簡易</text>
<line x1="438.2" y1="214" x2="514.4" y2="214" class="ci"/>
<circle cx="476.3" cy="214" r="6" class="dot"/>
<text x="750" y="219" class="num">+0.05 [-0.22, +0.32]</text>
<text x="270" y="267" text-anchor="end" class="lab">外来開始時に採血場所を選べる</text>
<line x1="506.7" y1="262" x2="579.8" y2="262" class="ci"/>
<circle cx="543.3" cy="262" r="6" class="dot"/>
<text x="750" y="267" class="num">+0.53 [+0.27, +0.79]</text>
<text x="270" y="315" text-anchor="end" class="lab">外来開始中の異常時は入院切替あり</text>
<line x1="340.6" y1="310" x2="452.0" y2="310" class="ci"/>
<circle cx="396.3" cy="310" r="6" class="dot"/>
<text x="750" y="315" class="num">-0.52 [-0.92, -0.12]</text>
</svg>