<svg xmlns="http://www.w3.org/2000/svg" width="880" height="274" viewBox="0 0 880 274">
<style>text{font-family:-apple-system,BlinkMacSystemFont,"Noto Sans JP",Arial,sans-serif;fill:#17222b}.axis{stroke:#99a8b3}.bar{fill:#2f7f92}.grid{stroke:#e2e8ee}.small{font-size:13px}.label{font-size:15px}.title{font-size:20px;font-weight:700}</style>
<text x="300" y="32" text-anchor="middle" class="title">導入方法別の受容/前向き割合</text>
<line x1="300.0" y1="50" x2="300.0" y2="242" class="grid"/>
<text x="300.0" y="264" text-anchor="middle" class="small">0%</text>
<line x1="427.5" y1="50" x2="427.5" y2="242" class="grid"/>
<text x="427.5" y="264" text-anchor="middle" class="small">25%</text>
<line x1="555.0" y1="50" x2="555.0" y2="242" class="grid"/>
<text x="555.0" y="264" text-anchor="middle" class="small">50%</text>
<line x1="682.5" y1="50" x2="682.5" y2="242" class="grid"/>
<text x="682.5" y="264" text-anchor="middle" class="small">75%</text>
<line x1="810.0" y1="50" x2="810.0" y2="242" class="grid"/>
<text x="810.0" y="264" text-anchor="middle" class="small">99%</text>
<text x="288" y="88" text-anchor="end" class="label">入院導入</text>
<rect x="300" y="68" width="10.3" height="28" rx="2" class="bar"/>
<text x="318.3" y="87" class="label">2.0%</text>
<text x="288" y="134" text-anchor="end" class="label">外来導入_週2回</text>
<rect x="300" y="114" width="265.9" height="28" rx="2" class="bar"/>
<text x="573.9" y="133" class="label">51.8%</text>
<text x="288" y="180" text-anchor="end" class="label">外来導入_週1回</text>
<rect x="300" y="160" width="361.4" height="28" rx="2" class="bar"/>
<text x="669.4" y="179" class="label">70.4%</text>
<text x="288" y="226" text-anchor="end" class="label">外来導入_週1回_訪問看護</text>
<rect x="300" y="206" width="443.5" height="28" rx="2" class="bar"/>
<text x="751.5" y="225" class="label">86.4%</text>
</svg>