<svg xmlns="http://www.w3.org/2000/svg" width="860" height="520" viewBox="0 0 860 520">
<style>text{font-family:-apple-system,BlinkMacSystemFont,"Noto Sans JP",Arial,sans-serif;fill:#17222b}.title{font-size:20px;font-weight:700}.box{fill:#f7f9fb;stroke:#c8d3dc;stroke-width:1.5}.n{font-size:24px;font-weight:700}.lab{font-size:15px}.arrow{stroke:#98a7b1;stroke-width:2;marker-end:url(#a)}</style><defs><marker id="a" markerWidth="8" markerHeight="8" refX="6" refY="3" orient="auto"><path d="M0,0 L0,6 L7,3 z" fill="#98a7b1"/></marker></defs>
<text x="430.0" y="34" text-anchor="middle" class="title">患者調査 対象者フロー</text>
<rect x="190" y="62" width="480" height="54" rx="6" class="box"/>
<text x="430" y="84" text-anchor="middle" class="lab">外来統合失調症スペクトラム患者</text>
<text x="430" y="108" text-anchor="middle" class="n">n = 220</text>
<line x1="430" y1="118" x2="430" y2="140" class="arrow"/>
<rect x="190" y="144" width="480" height="54" rx="6" class="box"/>
<text x="430" y="166" text-anchor="middle" class="lab">クロザピン使用中/使用歴ありを除外</text>
<text x="430" y="190" text-anchor="middle" class="n">n = 199</text>
<line x1="430" y1="200" x2="430" y2="222" class="arrow"/>
<rect x="190" y="226" width="480" height="54" rx="6" class="box"/>
<text x="430" y="248" text-anchor="middle" class="lab">広い患者選好調査対象</text>
<text x="430" y="272" text-anchor="middle" class="n">n = 199</text>
<line x1="430" y1="282" x2="430" y2="304" class="arrow"/>
<rect x="190" y="308" width="480" height="54" rx="6" class="box"/>
<text x="430" y="330" text-anchor="middle" class="lab">適応相当/治療抵抗性疑い</text>
<text x="430" y="354" text-anchor="middle" class="n">n = 84</text>
<line x1="430" y1="364" x2="430" y2="386" class="arrow"/>
<rect x="190" y="390" width="480" height="54" rx="6" class="box"/>
<text x="430" y="412" text-anchor="middle" class="lab">主治医が連絡可と判断</text>
<text x="430" y="436" text-anchor="middle" class="n">n = 63</text>
</svg>